<?xml version="1.0" encoding="utf-8"?>
<!-- Generator: Adobe Illustrator 16.0.0, SVG Export Plug-In . SVG Version: 6.00 Build 0)  -->
<!DOCTYPE svg PUBLIC "-//W3C//DTD SVG 1.1//EN" "http://www.w3.org/Graphics/SVG/1.1/DTD/svg11.dtd">
<svg version="1.1" id="Lager_1" xmlns="http://www.w3.org/2000/svg" xmlns:xlink="http://www.w3.org/1999/xlink" x="0px" y="0px"
	 width="1822px" height="780px" viewBox="0 0 1822 780" enable-background="new 0 0 1822 780" xml:space="preserve">
<g>
	<path fill-rule="evenodd" clip-rule="evenodd" fill="#3A3A3A" d="M0,780.384c0-176.503,0-453.726,0-630.228
		c2.083-3.105,5.528-4.78,8.32-6.93c4.092-3.152,4.888-6.988,5.155-11.351c0.396-6.481,2.473-12.654,3.246-19.064
		c0.261-2.16,1.11-4.293,3.74-4.336c2.628-0.043,3.433,2.107,3.935,4.208c2.716,11.393,4.59,22.935,6.133,34.536
		c0.162,1.214,0.188,2.454,0.745,3.577c0.803,1.619,2.157,2.255,3.898,1.96c1.667-0.283,2.229-1.539,2.37-3.039
		c0.28-2.97,0.091-5.95,0.173-8.925c0.182-6.578,1.381-7.99,7.854-8.622c3.909-0.383,7.506-2.534,11.797-1.049
		c4.404,1.524,6.7,3.877,6.854,8.635c0.234,7.222,1.294,7.999,8.565,6.81c5.613-0.918,11.147-1.721,15.797,2.419
		c-0.716-4.162-0.742-8.355,1.245-12.456c2.487-5.134,1.286-10.686,1.406-16.061c0.195-8.757,1.649-11.361,8.387-13.84
		c6.235-2.296,16.991-0.078,20.589,4.246c1.431,1.72,1.715,3.771,1.75,5.912c0.08,4.904,0.105,9.808,0.014,14.707
		c-0.054,2.903,0.995,4.28,4.004,3.915c1.038-0.125,2.099-0.067,3.149-0.03c6.304,0.226,6.164,0.131,9.764-5.05
		c1.861-2.68,4.549-4.701,6.625-7.303c1.793-2.245,4.231-0.929,5.705,1.16c4.192,5.942,9.996,6.654,16.638,5.79
		c6.426-0.835,12.946-0.247,19.299,0.717c3.269,0.495,6.594,0.52,9.829,1.252c1.42,0.322,2.851,0.193,3.705-1.247
		c2.119-3.572,5.556-3.824,9.17-3.785c3.672,0.039,7.326-0.85,10.896-1c6.587-0.276,13.663-0.767,18.861,4.896
		c1.348,1.467,2.278,1.217,3.25-0.36c1.391-2.258,2.161-4.771,3.118-7.214c2.751-6.581,5.694-7.611,13.62-4.798
		c2.523,0.11,4.508-1.689,7.006-1.886c5.903-0.467,9.343,1.776,9.592,7.622c0.215,5.02,2.526,6.554,6.948,5.903
		c9.722-1.426,15.982,3.767,21.796,10.945c2.799-3.133,6.82-4.396,11.235-4.598c2.417-0.108,3.784-1.198,4.385-3.643
		c0.833-3.385,3.419-4.634,6.708-4.742c1.221-0.041,2.448-0.087,3.661-0.263c7.855-1.149,10.466,0.673,11.611,8.563
		c0.39,2.681,1.348,4.091,4.198,4.265c2.971,0.182,5.329-0.381,5.823-3.715c0.773-5.226,3.629-8.552,8.637-10.111
		c0.56-0.082,1.117-0.078,1.675-0.006c7.434,2.667,11.546,8.751,14.102,15.501c2.021,5.342,5.587,7.131,10.17,3.385
		c4.84-3.956,8.283-8.193,8.107-15.283c-0.139-5.618,1.804-11.321,2.781-16.993c0.398-2.313,0.837-4.805,3.742-4.904
		c3.085-0.105,4.206,2.464,4.555,4.894c1.243,8.643,3.76,17.057,4.513,25.775c0.271,3.137,1.04,6.193,1.349,9.331
		c0.21,2.134,1.005,4.297,3.726,4.274c3.006-0.022,2.996-2.405,3.084-4.526c0.13-3.147-0.013-6.3,0.145-9.445
		c0.197-3.907,2.154-6.456,6.124-6.43c4.506,0.028,8.594-2.881,13.375-1.212c4.843,1.688,6.559,3.327,6.888,8.53
		c0.458,7.268,1.379,8.069,8.571,6.895c5.421-0.887,10.77-1.678,15.603,2.198c-0.377-4.526-0.16-8.873,1.808-13.184
		c2.171-4.754,0.986-10.015,1.086-15.053c0.2-10.068,5.4-14.95,15.463-14.263c5.395-1.463,9.229,2.169,13.576,4.144
		c1.783,1.394,2.51,3.315,2.64,5.492c0.206,3.498,0.13,7,0.11,10.501c-0.019,3.308,0.226,6.63-0.462,9.871
		c3.778-1.272,7.58-1.404,11.27-0.021c2.286,0.856,3.645,0.956,3.775-2.014c0.247-5.6,5.838-7.468,8.361-11.547
		c1.1-1.777,3.601-0.59,4.921,1.081c4.743,6.001,10.757,7.06,18.141,6.135c5.971-0.748,12.264-0.396,18.243,0.827
		c3.282,0.67,6.604,0.498,9.831,1.284c1.663,0.405,3.065-0.032,4.119-1.531c2.163-3.07,5.366-3.618,8.838-3.555
		c3.676,0.069,7.383-1.071,10.874-1.01c7.211,0.125,15.118-0.92,20.924,5.894c1.607-2.175,3.36-3.889,3.48-6.856
		c0.281-6.985,3.243-9.541,10.054-8.187c3.851,0.768,7.362,0.873,11.232,0.048c5.932-1.262,8.822,1.601,9.798,7.854
		c1.031,6.596,3.867,12.807,3.699,20.491c3.093-2.255,2.265-4.521,2.418-6.386c0.347-4.22,2.533-6.319,6.71-6.523
		c7.087-0.345,14.123,0.211,21.22-1.88c8.489-2.501,15.647,1.533,21.474,7.579c1.567,1.625,2.416,1.991,4.192,0.698
		c1.895-1.38,4.307-1.587,6.508-1.834c3.45-0.386,6.12-1.261,6.708-5.188c0.098-0.652-0.211,0.082,0.224-0.461
		c4.226-5.28,10.374-3.339,15.62-3.503c4.182-0.131,6.517,3.574,6.761,7.991c0.124,2.259-0.093,4.655,3.282,4.932
		c3.47,0.285,6.005-0.884,6.75-4.319c1.06-4.885,3.84-8.104,8.331-10.031c0.538-0.13,1.078-0.136,1.621-0.046
		c6.541,4.93,13.545,9.427,14.92,18.604c0.524,3.497,6.186,3.788,9.884,0.924c5.292-4.097,7.717-9.321,7.684-16.002
		c-0.027-5.406,2.358-10.476,2.783-15.865c0.473-2.143,1.314-4.291,3.83-4.119c3.103,0.212,4.146,2.658,4.454,5.441
		c2.818,10.833,4.211,21.928,5.827,32.98c0.349,2.39,0.772,4.688,3.845,4.643c3.335-0.052,3.165-2.662,3.257-4.932
		c0.115-2.797,0.016-5.599,0.132-8.397c0.11-2.613,0.874-5.325,3.365-6.063c4.599-1.36,9.258-3.371,14.185-2.549
		c6.916,1.153,8.554,3.227,8.884,10.05c0.281,5.782,1.287,6.688,7.637,5.75c5.411-0.799,10.736-1.694,15.841,1.305
		c0.855-10.763,4.773-20.989,3.804-31.941c-0.448-5.067,4.43-9.078,9.964-9.431c2.616-0.166,5.249,0.053,7.875-0.154
		c6.363,0.313,11.156,4.144,12.194,9.717c0.788,5.04,0.528,10.131,0.42,15.195c-0.069,3.257,1.163,4.533,4.331,4.047
		c0.343-0.053,0.699-0.026,1.049-0.024c7.517,0.037,7.388-0.069,11.944-5.594c1.856-2.25,4.138-4.113,5.942-6.508
		c1.772-2.351,4.042-1.445,5.607,0.812c4.118,5.932,10.029,6.678,16.568,5.954c6.801-0.753,13.6-0.144,20.34,0.732
		c2.055,0.267,4.125,0.537,6.173,0.851c3.459,0.528,6.375,0.701,8.638-2.838c1.288-2.014,4.039-1.776,6.318-1.895
		c2.069-0.109,3.5-0.784,4.353-3.008c2.735-7.133,5.592-8.78,12.699-6.887c3.192,0.852,5.968,0.856,9.145-0.034
		c5.688-1.597,8.556-0.216,10.704,4.246c2.174-4.27,4.678-5.603,9.674-4.285c3.141,0.829,5.93,1.018,9.153,0.114
		c6.523-1.829,9.538-0.062,11.812,6.58c0.963,2.813,2.865,3.229,5.25,3.261c5.215,0.069,10.002-0.054,14.34,4.539
		c2.469,2.615,7.645,0.127,11.545-0.297c8.645-0.94,17.154-2.104,25.955-0.67c5.558,0.904,11.099-1.089,15.443-5.017
		c2.709-2.45,4.59-2.659,7.534,0.03c3.344,3.054,7.599,5.078,7.388,10.573c-0.043,1.173,0.976,1.966,2.212,1.201
		c3.509-2.166,7.372-1.952,11.222-1.813c2.454,0.088,2.894-1.386,2.902-3.364c0.017-4.026,0.03-8.054,0.007-12.081
		c-0.054-9.824,0.522-9.571,9.648-13.103c6.037-2.338,13.001-2.187,19.066,2.156c2.737,1.957,4.011,4.188,4.066,7.396
		c0.064,3.853,0.032,7.704,0.06,11.557c0.017,2.479,0.296,4.85,1.633,7.051c2.667,4.394,3.05,9.178,2.091,14.234
		c4.39-4.063,9.644-3.612,14.872-3.102c1.381,0.135,2.729,0.569,4.139,0.657c6.703,0.422,7.165,0.031,7.501-6.563
		c0.347-6.798,6.532-11.284,13.705-9.509c2.901,0.718,5.742,1.358,8.722,1.565c3.987,0.278,5.886,2.658,6.068,6.554
		c0.131,2.801-0.002,5.605,0.123,8.402c0.104,2.36-0.451,5.272,3.138,5.63c3.907,0.389,4.507-2.491,4.982-5.382
		c1.08-6.548,1.924-13.131,3.122-19.663c0.885-4.82,2.278-9.513,3.257-14.306c0.445-2.179,1.301-4.191,3.926-4.165
		c2.761,0.029,4.099,2.069,4.396,4.436c0.858,6.76,3.175,13.245,3.481,20.117c0.308,6.875,7.624,13.518,14.568,13.713
		c2.678,0.075,3.848-1.22,4.065-3.695c0.337-3.809,2.241-6.594,5.617-8.298c1.506-0.759,2.372-1.921,3.156-3.345
		c1.933-3.507,4.904-5.647,9.001-5.071c4.304,0.604,7.495,3.013,8.537,7.443c0.913,3.882,2.66,6.294,7.146,5.96
		c2.709-0.202,4.015-1.057,4.402-3.957c1.057-7.905,4.388-10.144,12.58-8.949c1.911,0.277,3.846,0.187,5.765,0.359
		c2.672,0.242,4.92,1.436,5.519,4.095c0.797,3.541,3.076,4.323,6.161,4.276c1.051-0.017,2.137,0.48,3.103,0.365
		c3.354-0.402,6.038,5.124,9.077,1.835c2.521-2.726,5.956-3.409,8.564-5.811c5.258-4.839,12.174-3.485,18.024-2.074
		c5.241,1.266,10.281,1.337,15.459,1.37c10.085,0.066,10.186,0.119,11.633,10.245c0.099,0.684,0.233,1.383,1.063,1.707
		c1.103-0.028,1.548-0.995,1.455-1.772c-0.811-6.869,3.236-12.76,3.771-19.407c0.418-5.229,4.748-7.509,10.693-5.944
		c3.007,0.79,5.642,0.638,8.646,0.004c6.735-1.42,12.562,0.745,11.513,8.228c-0.373,2.649,1.585,4.449,3.208,6.089
		c6.979-5.471,14.838-6.35,23.067-5.02c2.616,0.423,5.204,0.658,7.816,0.611c3.985-0.071,7.386,0.616,10.396,3.811
		c3.109,3.299,7.411,0.876,10.929,0.436c7.98-0.999,15.824-1.819,23.894-0.765c5.182,0.678,10.063-1.089,13.759-5.015
		c4.31-4.576,4.789-4.501,8.606,0.14c2.614,3.178,6.446,5.442,6.329,10.327c-0.024,1.056,1.183,1.201,2.042,0.792
		c3.809-1.813,7.856-1.118,12.176-1.096c-0.01-5.517,0.285-10.934-0.108-16.293c-0.462-6.289,2.844-9.819,7.85-12.306
		c5.373-2.669,17.493-0.54,21.842,3.635c1.636,1.57,2.055,3.581,2.104,5.749c0.076,3.501,0.091,7.004,0.039,10.503
		c-0.056,3.886,0.246,7.622,2.044,11.225c1.615,3.237,1.153,6.837,0.866,10.703c4.252-3.538,9.094-3.157,13.914-2.472
		c1.908,0.272,3.799,0.518,5.726,0.607c3.054,0.143,4.313-1.144,4.561-4.273c0.855-10.832,4.753-13.521,15.293-10.895
		c0.078,0.019,0.248,0.058,0.513,0.116c10.604,2.331,10.506,2.333,10.752,13.499c0.06,2.654-1.576,6.916,2.762,7.311
		c4.546,0.412,3.974-3.943,4.354-6.913c1.344-10.576,3.516-21.009,5.411-31.489c0.123-0.692,0.327-1.362,0.594-2.011
		c0.816-1.996,1.703-4.077,4.358-3.753c2.293,0.279,3.058,2.171,3.322,4.169c0.938,7.096,2.977,14.008,3.338,21.203
		c0.317,6.315,6.689,12.937,12.83,13.694c2.767,0.341,4.185-0.578,4.727-3.46c1.276-6.799,7.777-14.492,14.229-17.247
		c0.538-0.104,1.078-0.121,1.62-0.072c4.785,1.379,7.915,4.314,8.635,9.407c0.528,3.742,2.738,4.659,6.276,4.544
		c3.924-0.127,3.764-2.604,4.071-5.312c0.706-6.192,4.408-8.912,10.428-7.811c1.908,0.349,3.827,0.333,5.735,0.527
		c2.647,0.273,4.879,1.432,5.498,4.114c0.727,3.139,2.51,4.357,5.558,4.298c1.224-0.024,2.644,0.033,3.559,0.734
		c6.865,5.263,10.733-0.396,15.022-4.102c4.878-4.218,9.906-4.089,12.478,0.587c-0.004,179.662-0.002,460.029-0.002,639.675
		c0,1.574-0.045,3.152-0.002,4.727c0.058,2.007-0.866,2.856-2.845,2.766c-1.221-0.057-2.448-0.004-3.676-0.004
		c-603.369,0-1206.739,0.001-1810.109-0.022C3.768,780.886,1.809,781.357,0,780.384z"/>
	<path fill-rule="evenodd" clip-rule="evenodd" fill="#D3672F" d="M0,95.524c1.72-0.523,3.447-0.232,5.077-1.982
		c1.744-1.872,5.028-1.637,7.551-1.291c3.655,0.501,7.326,2.59,9.671-2.327c0.608-1.274,2.206-0.618,3.359-0.688
		c6.787-0.408,13.615,0.717,20.386-0.695c4.12-0.858,1.153,3.751,3.78,4.67c0.782-1.875,2.049-3.143,4.602-2.994
		c8.095,0.473,15.513-2.371,22.946-5.12c1.73-0.641,1.167-1.811,1.43-2.892c0.469-1.93,1.047-3.833,1.532-5.58
		c1.15-0.131,1.326,0.514,1.228,0.932c-1.36,5.764,2.176,8.263,6.808,9.206c2.76,0.563,2.859,1.875,2.818,3.918
		c-0.049,2.45-0.336,4.961,0.088,7.334c0.376,2.104-2.168,5.792,2.496,6.008c3.564,0.165,7.887,1.268,8.155-4.584
		c0.043-0.952,0.294-1.781,1.395-1.79c4.373-0.039,8.893-0.679,13.062,0.246c2.236,0.495,2.122,5.351,5.969,5.769
		c1.053-1.221,0.553-2.838,0.559-4.283c0.048-12.077,0.13-24.155-0.038-36.23c-0.045-3.267,0.645-4.949,4.257-4.405
		c2.331,0.351,4.242-0.073,3.969-3.18c-0.185-2.106,1.35-2.072,2.798-2.072c5.076,0,10.411-0.962,15.143,0.314
		c3.576,0.962,5.663,6.019,10.464,5.733c0.066,1.218,0.187,2.433,0.19,3.649c0.02,6.651,0.333,13.323-0.081,19.947
		c-0.399,6.39,1.235,11.881,4.939,16.999c0.706,0.975,0.53,2.678,0.545,4.046c0.059,5.25,0.063,10.502,0.016,15.752
		c-0.018,1.983,0.523,3.596,2.69,3.783c2.257,0.194,2.222-2.348,1.72-2.893c-1.954-2.126,5.418-2.444,0.605-4.812
		c5.015-0.822,9.315-4.491,14.659-2.984c7.249,2.044,14.92,0.969,22.117,3.005c2.901,0.819,3.294-0.059,3.24-2.53
		c-0.097-4.375,0.675-8.896-0.188-13.095c-1.348-6.563,3.209-7.589,7.323-8.808c2.719-0.807,5.763-1.948,8.446,1.414
		c0.922,1.153,4.321,0.388,6.589,0.396c8.137,0.029,8.139,0.013,8.141,8.406c0.001,5.076-0.068,10.152,0.007,15.228
		c0.124,8.254-1.203,7.067,7.248,7.129c0.223,3.78-2.976,6.378-3.415,10.016c-0.209,1.729-2.32,0.986-3.622,1.051
		c-1.873,0.094-3.122-0.811-3.018-2.76c0.181-3.356-2.025-3.017-4.356-3.596c-8.934-2.215-17.688,1.212-26.528,0.412
		c-2.931-0.265-4.093,1.085-4.211,3.915c-0.097,2.321-0.56,2.66-3.526,2.069c-10.679-2.129-21.402-5.156-32.534-2.261
		c-5.968,1.553-14.708-2.719-17.365-8.046c-0.396-0.793-0.567-1.784-1.632-1.713c-1.463,0.1-1.299,1.365-1.4,2.374
		c-0.118,1.188,0.21,2.987-1.161,3.197c-6.527,0.995-5.03,5.906-5.207,10.061c-0.05,1.181,0.146,2.598-1.525,2.903
		c-1.29,0.236-2.378-0.234-3.295-1.189c-3.797-3.953-10.111-4.266-14.988-0.326c0-7.001-0.762-13.721,0.219-20.173
		c0.94-6.183-2.661-8.709-6.492-11.517c-2.025-1.484-12.685,0.645-14.818,1.308c-6.762,2.105-4.975,7.341-5.067,11.96
		c-0.126,6.364,0.303,12.541-3.093,18.692c-1.764,3.196-0.31,8.168-0.31,13.385c-3.896-6.205-9.114-6.938-14.493-5.719
		c-3.644,0.827-7.316,0.557-10.886,1.304c-2.536,0.529-3.112-0.567-3.04-2.72c0.047-1.398,0.001-2.799,0-4.198
		c-0.007-8.022,0.061-8.548-7.849-9.559c-4.249-0.544-8.583,2.058-13.132,2.115c-1.185,0.016-0.964,2.041-0.973,3.231
		c-0.032,4.376-0.064,8.75,0.001,13.124c0.036,2.35-0.283,4.474-3.288,3.927c-2.693-0.491-6.716,2.167-7.721-2.763
		c-0.732-3.592-1.354-7.229-1.679-10.875c-0.888-9.952-3.701-19.559-5.107-29.412c-0.168-1.176-0.108-2.808-1.727-2.772
		c-1.637,0.032-1.438,1.713-1.61,2.857c-1.319,8.779-2.595,17.566-3.917,26.345c-0.179,1.187-0.324,3.254-0.852,3.379
		c-5.495,1.315-6.969,9.724-14.099,7.956C0,131.946,0,113.734,0,95.524z"/>
	<path fill-rule="evenodd" clip-rule="evenodd" fill="#D3672F" d="M912.189,116.641c3.327-0.028,6.663-0.242,9.974-0.032
		c2.868,0.183,3.653-0.961,3.483-3.629c-0.188-2.965-0.067-5.95-0.032-8.927c0.063-5.19,1.609-6.744,6.933-6.145
		c1.979,0.222,3.598-0.262,3.244-1.888c-1.467-6.73,3.972-8.789,7.616-12.103c0.392-0.662,0.757-0.647,1.099,0.041
		c1.017,0.935,1.882,2.242,3.082,2.742c4.431,1.841,4.829,5.199,5.729,9.552c0.889,4.301,2.914,8.5,2.437,14.531
		c5.64-6.84,12.028-5.544,18.062-4.374c2.804,0.543,3.378,0.181,3.287-2.396c-0.093-2.611-0.154-5.235,0.015-7.838
		c0.219-3.339-1.855-8.009,4.496-8.181c0.614-0.016,1.179-1.927,1.766-2.959c1.216-0.619,1.539,0.406,2.04,1.106
		c4.283-0.084,8.578,0.002,12.845-0.308c3.23-0.234,4.141,0.852,4.143,4.099c0.006,9.582,0.163,9.688,9.916,9.691
		c3.288,0.001,6.192,2.822,9.966,0.629c1.197-0.696,3.839,1.904,3.811,4.639c-0.021,2.076-0.004,4.152-0.004,6.503
		c8.605-2.264,9.818-8.965,10.851-15.792c0.167-1.112-0.534-2.9,1.128-3.068c8.375-0.845,16.542-3.914,25.131-2.458
		c2.635,0.448,1.841,2.614,1.857,4.194c0.075,6.969,0.033,13.939,0.033,21.559c3.329-1.663,5.149-4.558,8.507-4.857
		c1.555-0.14,1.046-1.98,1.067-3.111c0.07-3.674,0.104-7.352,0.008-11.023c-0.088-3.433,0.399-6.628,3.413-8.744
		c1.503-1.055,1.035-2.465,1.078-3.762c0.1-2.972-0.196-5.972,0.096-8.918c0.641-6.463,6.674-9.228,11.812-5.559
		c3.339,2.384,10.573,2.679,13.915,0.078c3.287-2.558,6.459-1.256,9.34,0.013c2.261,0.995,2.044,3.385,1.895,6.015
		c-0.144,2.541,0.507,5.427,0.644,8.179c0.008,0.174,0.021,0.482,0.087,0.498c5.415,1.298,4.18,5.854,4.798,9.563
		c0.197,1.187,1.204,0.801,2.067,0.409c0.77-0.348,1.689-0.791,2.453-0.661c5.802,0.98,8.548-0.979,7.36-7.171
		c-0.37-1.923,0.537-2.649,2.6-2.854c5.743-0.572,11.758,1.779,17.275-1.893c1.534-1.021,2.468,1.719,4.323,2.164
		c6.606,1.592,13.229,0.818,19.802,0.699c4.813-0.088,6.703,1.468,6.39,6.188c-0.091,1.378-0.873,3.488,1.307,3.98
		c1.819,0.412,4.21,0.943,5.545-0.482c2.866-3.062,6.009-2.128,9.455-1.859c2.869,0.224,6.79,2.268,8.288-2.738
		c0.377-1.256,2.162-0.688,3.329-0.753c6.962-0.389,13.967,0.734,20.907-0.722c3.666-0.768,1.884,2.89,3.366,4.488
		c1.348-1.75,2.815-2.899,5.271-2.791c7.91,0.348,15.21-2.269,22.433-5.161c1.938-0.776,0.973-2.33,1.406-3.504
		c0.636-1.723,1.338-3.421,2.214-5.64c0.292,1.019,0.604,1.492,0.509,1.866c-1.399,5.592,2.228,8.034,6.526,8.904
		c3.066,0.62,3.05,2.051,3.011,4.228c-0.045,2.448-0.304,4.946,0.078,7.335c0.322,2.002-2.009,5.448,2.186,5.742
		c3.581,0.25,8.155,1.715,8.675-4.355c0.136-1.576,0.954-2.076,2.401-2.065c3.85,0.029,7.699,0.058,11.548-0.007
		c1.88-0.032,2.262,0.92,2.368,2.582c0.146,2.259,2.387,3.499,3.84,3.378c1.91-0.158,1.116-2.572,1.122-4.006
		c0.065-12.076,0.117-24.15-0.017-36.224c-0.032-3.131,0.425-5.121,4.193-4.527c2.15,0.34,3.862-0.076,3.52-2.935
		c-0.292-2.418,1.426-2.338,3.062-2.334c4.552,0.012,9.1,0.022,13.649-0.006c2.297-0.015,4.476-0.398,4.423,3.248
		c-0.039,2.649,2.594,1.876,4.112,1.78c3.058-0.19,3.92,1.07,3.854,3.979c-0.16,6.996,0.032,13.998-0.078,20.996
		c-0.101,6.22,0.154,12.181,5.178,16.91c0.831,0.784,0.384,3.009,0.396,4.567c0.036,5.249,0.036,10.499,0.004,15.749
		c-0.009,1.617,0.578,2.742,2.23,3.007c2.323,0.372,2.491-2.01,1.891-2.607c-2.086-2.073,6.566-3.436-0.395-5.521
		c5.034,1.783,7.6-3.378,12.038-2.694c8.363,1.288,16.88,1.621,25.218,3.018c3.059,0.512,3.717,0.107,3.643-2.706
		c-0.09-3.497-0.002-6.999,0.003-10.499c0.006-8.343,0.039-8.25,7.827-11.111c1.571-0.577,2.858-1.11,4.379-0.242
		c0.296-0.724,0.706-0.796,1.231-0.216c3.314,3.545,7.669,2.392,11.581,2.164c4.276-0.249,5.307,1.256,5.137,5.285
		c-0.308,7.337,0.01,14.697-0.136,22.044c-0.054,2.755,0.948,3.564,3.631,3.657c4.463,0.153,9.018-0.963,13.398,0.786
		c2.139,0.854,1.708-0.948,1.859-1.986c1.768-12.078,3.448-24.167,5.274-36.234c1.574-10.407,4.948-20.457,5.504-32.081
		c2.305,2.026,1.941,3.723,2.107,5.051c1.755,13.958,5.513,27.638,5.952,41.766c0.119,3.834,2.282,4.859,5.366,4.698
		c3.095-0.161,4.535,0.698,4.215,4.066c-0.422,4.443,0.653,6.073,6.105,5.29c3.858-0.555,8.455,0.569,12.71,1.025
		c4.952,0.53,6.078-1.519,5.565-5.878c-0.285-2.415,0.035-4.896-0.047-7.341c-0.15-4.394,3.063-6.404,6.208-5.692
		c4.096,0.928,4.603-0.894,3.993-3.541c-1.481-6.438,5.061-6.581,7.458-9.927c0.718-1,9.729,5.598,9.457,7.293
		c-1.063,6.566,5.731,11.348,3.283,18.358c5.383-6.17,11.833-4.706,17.676-3.567c3.612,0.704,3.911-0.323,3.858-3.08
		c-0.039-2.1,0.455-4.328-0.091-6.275c-1.61-5.757,1.915-9.088,6.014-10.968c1.379-0.634,4.79-0.045,7.277-0.158
		c0.522-0.024,1.051,0,1.573,0c9.757-0.03,9.925-0.032,10.061,9.604c0.049,3.604,1.526,4.973,4.66,4.12
		c5.248-1.428,10.159,3.09,15.566,0.57c0.829-0.387,3.782,1.571,3.635,4.309c-0.121,2.261-0.024,4.533-0.024,8.069
		c4.347-4.111,10.404-5.151,9.571-12.364c-0.419-3.61,2.754-2.287,4.527-2.38c2.657-0.139,5.241,0.444,4.956-3.865
		c-0.162-2.441,1.997-3.889,4.566-3.924c4.198-0.058,8.399-0.045,12.599,0.028c0.811,0.015,1.894,0.197,2.376,0.732
		c3.996,4.443,7.212,5.285,11.197,1.659c2.512-2.285,4.991-2.52,7.915-2.461c3.15,0.063,6.303,0.094,9.451-0.003
		c4.326-0.134,8.122,0.152,8.289,5.959c0.082,2.826,2.612,1.82,4.069,1.741c3.29-0.18,5.375,0.312,4.997,4.407
		c-0.499,5.41,4.802,6.276,7.725,8.921c1.112,1.008,1.664-0.544,1.716-1.613c0.075-1.572,0.01-3.15,0.065-4.724
		c0.095-2.677,2.282-5.196,4.041-4.484c5.502,2.22,10.404-2.069,15.714-0.579c3.326,0.934,3.946-1.19,3.969-4.174
		c0.07-9.604,0.201-9.229,10.04-9.794c2.692-0.155,6.205,4.531,8.061-1.163c1.882,1.621,1.98,4.599,5.157,4.119
		c2.061-0.311,1.872,1.589,1.878,2.964c0.022,4.025,0.08,8.051-0.012,12.074c-0.063,2.639,0.221,3.417,3.494,2.773
		c5.886-1.156,12.274-2.642,17.139,3.783c2.083-10.132,1.845-20.619,11.964-26.242c0.341-0.682,0.717-0.702,1.129-0.062
		c1.991,1.361,3.354,3.452,5.746,4.418c2.863,1.156,1.513,3.925,1.681,6.012c0.206,2.555,0.261,4.049,3.894,3.51
		c3.754-0.558,7.189,1.038,6.485,6.12c-0.072,0.513-0.054,1.049-0.002,1.567c0.358,3.575-1.671,9.146,0.915,10.316
		c4.073,1.843,9.475,1.494,14.193-0.08c1.389-0.464,2.905-0.958,4.045-0.339c4.369,2.381,5.059-0.083,5.139-3.593
		c0.019-0.872,0.024-1.747-0.002-2.617c-0.045-1.571,0.308-2.781,2.236-2.754c2.235,0.033,1.813,1.721,1.811,3.013
		c-0.021,7.674-0.099,15.346-0.156,23.019c-4.014,0.662-9.519-2.407-11.117,4.474c-0.098,0.427-1.51,0.787-2.302,0.769
		c-2.44-0.057-3.43,0.983-3.452,3.432c-0.021,2.219-1.611,3.733-3.596,3.882c-2.23,0.168-0.866-2.137-1.467-3.21
		c-2.098-3.738-6.001-2.598-8.922-2.746c-4.492-0.229-7.601-0.611-6.723-6.201c0.115-0.723-0.436-2.195-0.829-2.251
		c-4.334-0.611-8.904-2.01-12.99-1.164c-3.52,0.729-5.034,4.711-4.29,8.792c0.659,3.619-0.41,5.957-4.603,4.735
		c-2.869-0.835-6.516,2.284-8.205-0.315c-1.394-2.149-2.096-5.372-2.111-8.451c-0.019-3.53-4.737-3.27-5.802-6.189
		c-0.427-0.559-0.858-0.534-1.295-0.015c-2.208,2.596-6.858,3.292-6.245,8.106c0.095,0.734-0.544,1.285-1.332,1.319
		c-5.424,0.233-5.438,4.049-4.997,7.857c0.509,4.413-1.728,6.04-5.44,4.946c-3.549-1.044-9.5,1.515-9.75-5.528
		c-0.009-0.24-0.456-0.661-0.71-0.669c-7.136-0.23-5.379-5.86-6.034-9.968c-1.153-7.238-2.204-14.493-3.349-21.733
		c-0.171-1.079,0.25-2.813-1.615-2.719c-1.693,0.084-1.392,1.724-1.615,2.854c-2.438,12.344-4.846,24.689-6.292,37.203
		c-0.624,5.405-4.876,7.666-9.917,5.659c-1.793-0.714-1.606-2.114-1.623-3.45c-0.054-4.377,0.013-8.755-0.041-13.131
		c-0.017-1.336,0.486-3.464-1.083-3.697c-4.267-0.635-8.686-2.129-12.663-2.091c-7.563,0.071-8.206,1.733-8.206,9.207
		c0,1.576-0.07,3.154,0.002,4.727c0.106,2.297-0.696,3.091-3.109,2.599c-3.577-0.733-7.257-0.425-10.897-1.34
		c-5.89-1.48-10.719,0.542-14.101,5.29c0.747-13.286-5.818-25.559-3.569-38.718c0.339-1.974-0.505-2.974-2.784-3.476
		c-3.43-0.756-5.991-3.329-10.135-3.423c-5.048-0.112-8.569,2.339-12.571,4.174c-1.749,0.801-1.239,2.734-1.246,4.25
		c-0.039,7.688-0.019,15.375-0.019,23.256c-4.58-3.104-10.715-2.565-14.486,0.919c-0.997,0.924-2.262,1.809-3.782,1.129
		c-1.427-0.635-1.104-2.059-1.121-3.215c-0.051-4.095,0.989-8.664-5.159-9.554c-1.124-0.162-1.016-1.656-1.165-2.692
		c-0.158-1.095,0.443-2.75-1.408-2.842c-1.334-0.065-1.675,1.332-1.729,2.265c-0.286,4.832-4.854,5.043-7.579,5.873
		c-3.665,1.117-7.678,1.421-12.024,0.92c-6.325-0.729-13.212-1.602-19.828,1.431c-3.563,1.633-8.312-0.4-12.25,2.126
		c-0.961,0.615-1.716-1.363-1.677-2.642c0.108-3.395-1.925-3.945-4.759-3.987c-5.185-0.076-10.256-0.426-15.468-1.504
		c-3.996-0.825-8.985,1.361-13.656,1.487c-1.588,0.043-1.551,1.693-1.553,2.896c-0.002,2.161-0.907,3.141-3.161,3.161
		c-2.091,0.019-2.441-1.106-3.492-2.722c-2.274-3.5-3.04-6.766-2.688-10.895c0.233-2.746-5.481-4.454-9.228-2.546
		c-2.933,1.494-5.26,1.653-8.315,0.191c-5.711-2.736-9.044-0.396-9.275,5.892c-0.255,6.851-4.544,12.946-3.506,20.188
		c0.277,1.929-3.384,3.083-5.348,3.197c-2.126,0.123-1.244-2.441-1.291-3.821c-0.359-10.534-0.423-11.425-11.013-10.264
		c-8.757,0.963-16.655-3.493-25.254-2.16c-2.693,0.418-5.302,0.182-6.135,3.513c-0.041,0.168-0.103,0.48-0.153,0.48
		c-6.254-0.033-6.517,7.113-11.493,9.838c-0.045-8.262-6.119-7.047-10.713-7.177c-4.453-0.126-7.686-0.396-6.811-6.07
		c0.112-0.73-0.306-2.077-0.821-2.286c-4.201-1.694-8.886,0.4-13.26-1.737c-1.014-0.493-4.03,1.787-5.271,3.434
		c-1.486,1.972-0.689,4.764-0.544,7.156c0.188,3.088-0.959,4.085-3.889,3.578c-1.199-0.207-2.588-0.511-3.646-0.115
		c-6.667,2.5-7.548-2.747-8.176-6.729c-0.488-3.086-1.773-4.511-4.181-5.909c-4.168-2.42-8.576-0.86-9.771,3.867
		c-0.4,1.585-0.396,3.191-2.536,3.326c-5.024,0.317-5.945,3.694-5.472,7.745c0.516,4.407-1.576,5.628-5.469,5.109
		c-2.755-0.368-5.505-0.762-8.261-1.11c-1.184-0.151-2.102-0.707-2.05-1.93c0.108-2.674-1.142-3.706-3.715-3.846
		c-3.144-0.17-3.354-2.836-3.406-5.017c-0.201-8.276-2.999-16.122-3.81-24.288c-0.147-1.487,0.08-3.627-1.951-3.798
		c-2.375-0.201-1.722,2.118-2.046,3.482c-2.949,12.418-5.084,24.994-6.82,37.626c-0.9,6.542-5.664,3.435-8.878,3.925
		c-3.895,0.597-3.397-2.462-3.412-4.867c-0.026-4.026,0.015-8.053-0.026-12.08c-0.013-1.189,0.336-2.779-0.92-3.33
		c-1.204-0.529-2.715-0.397-4.096-0.484c-5.828-0.369-11.686-3.695-17.479,0.177c-2.07,1.384-1.169,3.487-1.194,5.263
		c-0.123,9.456-0.071,9.428-9.577,9.029c-3.834-0.16-7.485-1.782-11.406-1.253c-3.834,0.517-7.097,1.909-9.788,6.39
		c0-3.875-0.111-6.74,0.033-9.595c0.136-2.686-0.3-5.08-1.849-7.383c-4.056-6.029-1.738-12.877-2.169-19.359
		c-0.31-4.668-3.762-9.073-8.325-9.735c-6.727-0.979-13.009,0.492-18.928,3.654c-1.756,0.939-1.129,2.787-1.139,4.27
		c-0.056,7.991-0.026,15.981-0.026,24.513c-4.92-4.297-11.499-4.079-15.684-0.127c-1.183,1.117-2.646,1.837-4.316,1.174
		c-1.746-0.69-1.315-2.372-1.218-3.644c0.345-4.469,0.249-8.496-5.678-8.979c-2.853-0.232,0.151-5.156-3.333-4.53
		c-2.195,0.396-0.758,4.211-3.32,4.827c-6.349,1.525-11.997,4.323-19.432,2.869c-6.43-1.257-13.975-1.418-20.929,1.292
		c-4.28,1.668-9.359-0.089-13.822,2.395c-1.245,0.693-1.708-1.722-1.737-3.123c-0.058-2.754-1.656-3.578-4.139-3.491
		c-2.098,0.073-4.214-0.143-6.299,0.036c-5.262,0.45-9.271,0.021-8.831-7.113c0.208-3.371-4.687-5.191-8.738-3.122
		c-3.328,1.699-5.9,1.61-9.245-0.025c-5.089-2.483-8.533,0.181-8.733,6.046c-0.051,1.486,0.515,3.158-0.998,4.437
		c-2.162-0.718-1.288-2.594-1.359-3.93c-0.345-6.516-4-9.168-9.848-6.462c-3.333,1.541-5.941,1.549-9.307-0.015
		c-5.719-2.658-9.719-0.209-9.876,5.896c-0.093,3.642-1.589,4.394-4.777,4.314c-3.912-0.099-8.957-1.612-8.625,5.386
		c0.041,0.881-1.01,1.576-1.942,1.242c-8.88-3.188-18.132-3.58-27.424-4.154c-4.427-0.273-8.51,2.597-13.145,0.449
		c-4.249-1.969-10.324-0.988-11.04-7.863c-0.082-0.782-0.688-1.158-1.494-1.112c-0.934,0.053-1.225,0.846-1.131,1.464
		c0.515,3.383-1.543,4.727-4.265,5.487c-3.364,0.941-1.729,3.681-2.14,5.68c-0.396,1.923,1.062,4.607-1.306,5.648
		c-2.427,1.064-3.388-1.096-4.644-2.969c-1.547-2.31-10.574-1.175-13.775,1.917C912.189,132.168,912.189,124.404,912.189,116.641z"
		/>
	<path fill-rule="evenodd" clip-rule="evenodd" fill="#D3672F" d="M500.925,111.382c1.455-4.625,0.466-9.37,0.646-14.057
		c0.141-3.677,0.33-7.188,3.921-9.391c1.513-0.927,0.834-2.521,0.888-3.825c0.137-3.317-0.237-6.696,0.261-9.948
		c0.823-5.369,6.636-7.653,11.24-4.608c4.957,3.281,9.969,3.188,14.751,0.005c3.25-2.164,6.184-0.678,8.894,0.425
		c2.297,0.936,1.276,4.935,1.762,5.55c2.608,3.31-2.705,9.604,4.451,11.073c1.608,0.33,0.451,3.843,0.688,5.877
		c0.185,1.591-0.063,3.572,2.574,1.943c0.558-0.345,1.355-0.576,1.986-0.484c5.825,0.864,9.022-0.893,7.829-7.438
		c-0.308-1.689,0.611-2.354,2.386-2.55c5.75-0.64,11.782,1.729,17.318-1.925c1.375-0.908,2.517,1.679,4.339,2.143
		c6.586,1.681,13.194,0.766,19.76,0.739c4.458-0.019,6.369,1.217,6.246,5.842c-0.118,4.389,3.712,6.377,7.147,3.658
		c2.917-2.311,5.706-2.25,9.119-1.768c3.063,0.434,7.125,2.291,8.813-2.734c0.147-0.435,1.493-0.612,2.295-0.659
		c7.31-0.418,14.668,0.733,21.958-0.73c1.275-0.255,2.563,0.202,2.131,1.994c-0.258,1.074-0.612,2.146,0.793,2.536
		c1.195,0.333,1.339-0.763,1.615-1.559c0.563-1.627,1.97-1.194,3.098-1.173c8.097,0.15,15.583-2.229,22.996-5.178
		c1.669-0.663,1.308-1.679,1.575-2.786c0.504-2.081,1.167-4.123,1.73-6.067c1.651,0.191,1.353,1.179,1.245,1.615
		c-1.39,5.621,2.333,7.967,6.564,8.788c3.091,0.602,3.048,2.01,3.002,4.181c-0.047,2.273-0.383,4.634,0.101,6.801
		c0.479,2.146-2.303,5.81,2.079,6.284c3.607,0.389,8.306,1.687,8.396-4.685c0.005-0.346-0.009-0.771,0.175-1.022
		c1.43-1.954,15.221-0.51,15.844,1.809c0.672,2.501,3.031,2.274,5.079,3.526c0-4.469,0-8.938,0-13.405
		c-0.001-8.4,0.166-16.805-0.073-25.198c-0.12-4.227,0.242-7.29,5.663-6.256c0.971,0.186,2.52,0.059,2.41-1.285
		c-0.409-5.014,3.091-3.911,5.865-3.942c3.674-0.041,7.35,0.039,11.024-0.026c2.388-0.043,4.58-0.231,4.368,3.328
		c-0.123,2.063,1.81,1.916,3.11,1.723c4.004-0.597,4.578,1.433,4.446,4.831c-0.236,6.115,0.152,12.258-0.13,18.369
		c-0.318,6.917,0.362,13.346,5.354,18.754c0.742,0.802,0.391,2.688,0.403,4.075c0.045,5.25,0.026,10.5,0.044,15.751
		c0.006,1.715,0.484,3.217,2.466,3.414c2.178,0.216,2.344-1.662,1.915-2.825c-0.707-1.915,5.019-3.257,1.05-4.748
		c7.903-5.831,16.853-2.129,25.688-1.461c-1.106,8.592-2.211,17.184-3.317,25.775c-0.021,0.172-0.015,0.358-0.081,0.514
		c-1.441,3.451-7.791,2.52-7.063,7.911c-3.922,0.545-7.734,1.949-11.795,1.439c-2.263-0.283-2.063-1.953-2.116-3.507
		c-0.141-4.164,1.324-9.258-5.537-9.507c-0.688-4.649-4.755-6.87-7.314-10.174c-0.214-0.77-0.399-0.443-0.582,0.014
		c-3.591,3.391-7.007,6.785-7.796,12.119c-0.194,1.309,0.169,4.431-2.102,4.106c-3.511-0.503-7.102,0.397-10.388-0.568
		c-1.634-0.482-0.725-3.149-0.753-4.818c-0.121-7.034-2.101-8.838-8.875-7.998c-1.38,0.171-2.815,0.192-4.192,0.024
		c-4.033-0.493-6.471,0.559-5.837,5.264c0.375,2.785-1.194,3.603-3.776,3.6c-2.066-0.001-4.174,0.869-6.191,0.661
		c-4.328-0.448-6.229,1.427-6.006,6.005c-1.055-0.557-2.093-0.796-2.15-1.18c-0.819-5.532-7.029-6.243-9.259-10.481
		c-0.787-1.494-2.322-1.542-3.691-1.378c-4.992,0.599-9.929-0.937-15.114,2.084c-2.631,1.533-7.971-0.361-12.106-0.334
		c-9.143,0.056-8.159-1.006-8.26,8.024c-0.007,0.699,0.123,1.424-0.021,2.093c-0.328,1.516,0.923,4.479-1.385,4.161
		c-2.005-0.276-6.152-0.831-5.465-4.258c1.529-7.628-3.867-13.839-3.547-21.231c0.183-4.229-4.032-6.081-8.64-3.892
		c-3.164,1.502-5.597,1.517-8.8,0.002c-5.718-2.705-9.442-0.013-8.868,6.21c0.375,4.052-3.735,5.84-4.245,9.481
		c-0.08,0.568-4.899,1.642-5.114-1.716c-0.266-4.167-2.645-3.622-5.493-4.281c-8.607-1.99-16.991,1.164-25.486,0.468
		c-2.887-0.237-4.691,0.648-4.74,3.99c-0.036,2.438-0.84,3.456-3.572,1.81c-2.675-1.61-6.833,0.017-8.797-1.038
		c-5.907-3.173-11.956-1.117-17.805-2.146c-4.175-0.734-8.148,2.389-12.59,0.328c-4.154-1.927-9.683-1.58-10.866-7.666
		c-0.131-0.676-0.513-1.354-1.369-1.349c-1.175,0.009-1.495,0.942-1.387,1.793c0.402,3.162-1.592,4.35-4.069,5.134
		c-4.105,1.299-1.669,4.696-2.303,7.098c-0.411,1.552,0.779,3.893-1.613,4.41c-1.78,0.384-2.973-0.845-4.083-2.503
		c-1.794-2.675-9.982-2.206-13.734,1.035c0-7.801,0.029-15.008-0.018-22.215C501.899,115.758,502.394,113.413,500.925,111.382z"/>
	<path fill-rule="evenodd" clip-rule="evenodd" fill="#D3672F" d="M259.551,120.457c2.255-16.16,3.837-32.419,7.708-48.332
		c1.308-5.377,1.917-10.925,3.305-16.415c2.062,3.972,1.745,8.371,2.53,12.527c2.095,11.093,4.226,22.185,4.724,33.509
		c0.156,3.548,2.438,4.801,5.668,4.594c2.774-0.178,4.293,0.621,4.083,3.773c-0.283,4.261,0.174,6.407,6.111,5.583
		c4.369-0.606,9.508,0.629,14.326,0.928c3.337,0.206,4.302-1.007,4.037-4.167c-0.247-2.951,0.19-5.962-0.104-8.902
		c-0.502-5.029,2.969-5.937,6.412-5.729c2.166,0.131,4.022-0.032,3.6-1.988c-1.494-6.926,4.363-8.56,7.884-11.909
		c0.395-0.675,0.756-0.657,1.084,0.054c0.998,0.956,1.834,2.311,3.025,2.799c4.275,1.751,4.939,4.834,5.631,9.199
		c0.708,4.473,2.512,8.96,2.593,15.064c5.472-7.201,11.842-5.832,17.765-4.643c3.161,0.636,3.689,0.018,3.594-2.729
		c-0.091-2.619-0.107-5.248,0.004-7.864c0.141-3.286-1.568-7.582,4.37-7.892c0.779-0.04,1.448-2.183,2.378-3.697
		c1.139,2.1,1.992,3.07,4.946,2.001c3.402-1.231,7.588-0.316,11.434-0.292c2.481,0.017,1.954,1.917,2.037,3.399
		c0.559,9.98,0.555,10.056,10.354,10.313c3.09,0.082,5.836,3.009,9.423,0.546c1.025-0.703,3.606,1.628,3.604,4.17
		c-0.002,2.263,0,4.527,0,6.859c6.051-1.574,9.181-4.781,9.47-10.37c0.166-3.204,1.939-3.154,4.159-3.099
		c2.739,0.069,5.515,0.717,5.41-3.903c-0.056-2.488,2.493-3.858,5.252-3.842c5.069,0.028,10.14,0.006,15.209,0.006
		c0.175,0,0.412-0.069,0.516,0.018c9.96,8.248,21.075,0.084,31.576,2.083c3.961,0.754,5.419,1.404,5.044,5.424
		c-0.323,3.468-0.072,6.987-0.075,10.484c-4.834-1.33-7.967,2.829-12.105,3.807c-1.652,0.39-1.363,2.255-1.375,3.622
		c-0.038,4.199-0.132,8.403,0.015,12.599c0.137,3.918-0.675,7.431-2.501,10.979c-2.234,4.341-0.28,9.294-1.223,14.479
		c-3.224-5.625-8.272-6.485-13.573-5.317c-3.641,0.803-7.329,0.542-10.884,1.306c-3.166,0.684-3.642-0.728-3.493-3.255
		c0.072-1.221,0.009-2.448,0.01-3.673c0.006-8.509-4.257-11.385-12.206-8.269c-0.633,0.248-1.366,0.259-2.059,0.334
		c-7.693,0.84-7.693,0.838-7.688,8.505c0.002,1.924,0.006,3.849-0.001,5.774c-0.029,6.949-0.068,6.806-7.058,6.695
		c-3.016-0.048-3.825-1.35-4.234-3.968c-1.918-12.244-3.979-24.469-5.985-36.7c-0.142-0.861-0.172-1.754-0.425-2.58
		c-0.333-1.089-0.178-2.764-1.859-2.732c-1.788,0.03-1.447,1.703-1.549,2.807c-0.768,8.35-3.325,16.427-3.627,24.867
		c-0.104,2.889,0.11,6.742-4.788,6.515c-0.559-0.027-1.666,0.644-1.648,0.943c0.294,5.1-3.66,4.448-6.701,5.098
		c-7.692,1.645-8.232,1.231-8.462-6.67c-0.041-1.385,0.345-3.704-0.767-3.896c-6.585-1.135-5.917-9.678-11.87-11.252
		c-0.428-0.636-0.854-0.652-1.279,0.005c-5,2.999-6.618,7.915-7.348,13.249c-0.275,2.005-0.915,2.877-3.029,2.161
		c-0.976-0.331-2.049-0.464-3.085-0.514c-7.015-0.324-7.016-0.31-7.294-7.306c-0.171-4.304-3.384-6.773-7.436-5.836
		c-1.173,0.271-2.442,0.311-3.648,0.214c-4.445-0.357-8.143-0.085-7.169,6.075c0.384,2.428-1.535,2.684-3.442,2.781
		c-2.771,0.142-5.532,0.482-8.302,0.661c-1.942,0.124-3.292,0.833-3.858,2.86c-0.271,0.969,0.718,2.837-1.382,2.703
		c-1.471-0.096-3.008-1.233-3.107-2.485c-0.288-3.615-1.906-5.311-5.521-5.102c-0.154,0.009-0.421-0.091-0.461-0.202
		c-3.222-8.894-10.676-4.249-16.13-4.464c-4.567-0.181-5.838-1.635-5.906-5.53c-0.012-0.699,0.008-1.399-0.009-2.099
		c-0.148-6.12-3.583-8.505-9.236-6.081C263.143,119.896,261.565,120.857,259.551,120.457z"/>
	<path fill-rule="evenodd" clip-rule="evenodd" fill="#D3672F" d="M815.175,115.25c2.623,0.009,5.172,0.488,8.521,1.636
		c0-5.697,0.762-11.123-0.192-16.227c-1.201-6.422,3.066-7.825,7.139-9.11c1.454-0.459,3.697-2.148,5.603-0.271
		c0.729-0.567,1.416-0.593,2.046,0.152c2.033,3.862,5.6,1.753,8.385,1.878c7.441,0.337,7.451,0.115,7.451,7.52
		c-0.001,6.464,0.175,12.934-0.071,19.388c-0.126,3.315,1.12,3.926,4.182,4.129c4.353,0.288,8.867-1.598,13.161,1.114
		c1.047,0.663,1.339-1.604,1.489-2.652c1.851-12.924,3.155-25.949,5.595-38.76c1.795-9.426,3.67-18.868,6.567-28.359
		c0.892,6.242,1.184,12.647,2.818,18.69c2.334,8.632,2.614,17.446,3.576,26.195c0.479,4.36,2.382,6.162,6.663,5.831
		c1.28-0.1,2.969-0.494,3.199,1.655c-5.314-1.08-9.71,1.468-14.235,3.563c-1.48,0.685-1.248,1.97-1.265,3.128
		c-0.057,3.843-0.072,7.687-0.026,11.529c0.048,4.159,0.048,8.182-2.242,12.024c-2.657,4.459-0.464,9.609-1.418,14.638
		c-3.616-4.676-8.548-5.898-13.907-4.802c-2.929,0.598-5.925,0.532-8.75,1.205c-5.2,1.236-5.588-1.277-5.498-5.434
		c0.208-9.475,0.108-10.062-7.973-10.951c-4.199-0.464-8.71,1.411-12.996,2.55c-1.264,0.337-0.86,2.14-0.873,3.319
		c-0.046,4.018-0.079,8.036-0.003,12.052c0.049,2.636,0.049,5.07-3.687,4.638c-3.131-0.361-7.333,1.604-7.808-4.137
		c-0.373-4.513-1.555-8.964-1.822-13.476C818.347,130.214,815.187,122.988,815.175,115.25z"/>
	<path fill-rule="evenodd" clip-rule="evenodd" fill="#6A4837" d="M772.419,127.146c0.151-1.094-0.911-2.432,0.557-3.22
		c0.261-0.141,0.996,0.244,1.29,0.581c1.547,1.779-1.177,1.576-1.265,2.625l-0.291,0.028L772.419,127.146z"/>
	<path fill-rule="evenodd" clip-rule="evenodd" fill="#524136" d="M361.3,128.04c0.021-0.173-0.007-0.374,0.07-0.516
		c0.583-1.069-0.054-3.688,1.735-3.01c2.554,0.968-1.688,2.074-0.526,3.521C362.153,128.035,361.727,128.038,361.3,128.04z"/>
	<path fill-rule="evenodd" clip-rule="evenodd" fill="#524137" d="M1743.876,128.025c1.157-1.431-3.095-2.688-0.495-3.485
		c1.979-0.608,1.129,2.287,1.788,3.5C1744.737,128.035,1744.307,128.031,1743.876,128.025z"/>
	<path fill-rule="evenodd" clip-rule="evenodd" fill="#575757" d="M1.181,612.865c0-0.993,0-1.986,0-3.101
		C2.875,610.748,1.67,611.959,1.181,612.865z"/>
	<path fill-rule="evenodd" clip-rule="evenodd" fill="#E0936D" d="M330.918,83.982c-0.362-0.018-0.724-0.035-1.084-0.054
		c-0.294-1.856,1.157-4.028-1.002-5.549c-0.241-1.075,0.462-1.787,0.99-2.565C331.611,78.345,330.469,81.271,330.918,83.982z"/>
	<path fill-rule="evenodd" clip-rule="evenodd" fill="#E8B397" d="M1775.595,83.894c-0.375,0.021-0.753,0.041-1.129,0.062
		c0.177-2.272-0.404-4.649,1.129-6.766C1775.595,79.425,1775.595,81.658,1775.595,83.894z"/>
	<path fill-rule="evenodd" clip-rule="evenodd" fill="#DC895E" d="M942.371,78.648c-0.595-0.121-1.191-0.244-1.786-0.367
		c0.788-1.291,1.733-2.647,3.248-2.781c0.77-0.068,0.647,1.302,0.584,2.112C944.003,78.488,942.978,78.154,942.371,78.648z"/>
	<path fill-rule="evenodd" clip-rule="evenodd" fill="#E9B99F" d="M942.371,78.648c0.682-0.345,1.365-0.691,2.046-1.036
		c0.03,2.115,0.06,4.23,0.089,6.347c-0.366-0.014-0.733-0.027-1.099-0.041C943.248,82.125,944.133,80.126,942.371,78.648z"/>
	<path fill-rule="evenodd" clip-rule="evenodd" fill="#EABAA0" d="M838.292,91.43c-0.681-0.05-1.364-0.102-2.046-0.152
		c-0.079-1.564-0.157-3.127-0.236-4.69c0.212-0.041,0.424-0.084,0.636-0.128C837.195,88.116,837.744,89.772,838.292,91.43z"/>
	<path fill-rule="evenodd" clip-rule="evenodd" fill="#D46B33" d="M1516.963,75.069c0.103,3.419-1.39,3.551-3.739,3.444
		C1514.511,77.329,1515.415,76.496,1516.963,75.069z"/>
	<path fill-rule="evenodd" clip-rule="evenodd" fill="#F2D4C5" d="M985.419,86.144c-0.68-0.369-1.361-0.737-2.04-1.106
		c0.351-1.057,0.595-2.181,2.04-2.997C985.419,83.579,985.419,84.86,985.419,86.144z"/>
	<path fill-rule="evenodd" clip-rule="evenodd" fill="#D77846" d="M329.822,75.814c-0.33,0.855-0.66,1.71-0.99,2.565
		c-0.599-0.021-1.199-0.041-1.799-0.062C327.678,77.165,328.426,76.129,329.822,75.814z"/>
	<path fill-rule="evenodd" clip-rule="evenodd" fill="#DE8E66" d="M1410.173,91.136c-0.41,0.071-0.82,0.144-1.231,0.216
		c0-1.484,0-2.969,0-4.761C1410.534,88.031,1409.549,89.792,1410.173,91.136z"/>
</g>
</svg>
