<?xml version="1.0" encoding="utf-8"?>
<!-- Generator: Adobe Illustrator 20.1.0, SVG Export Plug-In . SVG Version: 6.00 Build 0)  -->
<svg version="1.1" id="Lager_1" xmlns="http://www.w3.org/2000/svg" xmlns:xlink="http://www.w3.org/1999/xlink" x="0px" y="0px"
	 viewBox="0 0 200 200" style="enable-background:new 0 0 200 200;" xml:space="preserve">
<style type="text/css">
	.st0{fill:#303030;}
	.st1{fill:#FFB000;stroke:#FF6D00;stroke-miterlimit:10;}
	.st2{fill:#FF6D00;}
</style>
<g>
	<path class="st0" d="M55.2,172.3h-6.6l-5.4-11.7H21.4l-5.1,11.7H9.6l19.7-41.8h6.2L55.2,172.3z M41.2,156.2l-8-17.8
		c-0.3-0.6-0.5-1.5-0.8-2.8h-0.1c-0.2,1.2-0.5,2.1-0.8,2.8l-8,17.8H41.2z"/>
	<path class="st0" d="M93.2,169.9c0,11-6.4,16.5-19.3,16.5c-4.5,0-8.5-0.7-11.9-2.1v-4.8c4.1,1.9,8.1,2.8,11.8,2.8
		c9,0,13.5-3.9,13.5-11.7v-3.3h-0.1c-2.8,3.8-7,5.7-12.6,5.7c-4.6,0-8.2-1.3-11-4c-2.8-2.7-4.2-6.2-4.2-10.7c0-5.1,1.5-9.1,4.5-12.1
		c3-3,7.1-4.5,12.3-4.5c4.9,0,8.6,1.6,11,4.8h0.1v-4.1h5.9V169.9z M87.3,158.8v-4.4c0-2.4-1-4.4-2.9-6.1c-2-1.7-4.4-2.5-7.3-2.5
		c-3.6,0-6.5,1.1-8.5,3.2c-2,2.1-3.1,5.2-3.1,9c0,3.3,1,6,2.9,8c2,2,4.6,3,7.8,3c3.3,0,6-1,8-2.9C86.3,164.2,87.3,161.8,87.3,158.8z
		"/>
	<path class="st0" d="M131.2,172.3h-5.9v-4.7h-0.1c-2.5,3.6-6.3,5.4-11.3,5.4c-3.6,0-6.5-0.8-8.6-2.4c-2.1-1.6-3.1-3.7-3.1-6.3
		c0-5.6,4-8.8,12.1-9.7l11-1.3c0-5.1-2.5-7.6-7.5-7.6c-4.4,0-8.4,1.2-11.9,3.7v-4.9c3.6-1.9,7.7-2.8,12.4-2.8
		c8.6,0,12.9,3.7,12.9,11.1V172.3z M125.4,157.2l-8.8,1c-2.7,0.3-4.8,0.9-6.1,1.6c-1.4,0.8-2.1,2.2-2.1,4.2c0,1.5,0.6,2.6,1.9,3.6
		c1.3,0.9,3,1.4,5.1,1.4c2.9,0,5.3-0.8,7.2-2.5c1.9-1.7,2.8-3.8,2.8-6.3V157.2z"/>
	<path class="st0" d="M145.3,134.9c-1,0-1.9-0.3-2.7-0.9c-0.7-0.6-1.1-1.3-1.1-2.2s0.4-1.6,1.1-2.2c0.7-0.6,1.6-0.9,2.7-0.9
		c1.1,0,2,0.3,2.7,0.9c0.8,0.6,1.1,1.3,1.1,2.2c0,0.9-0.4,1.6-1.1,2.2S146.4,134.9,145.3,134.9z M148.2,172.3h-5.9v-29.9h5.9V172.3z
		"/>
	<path class="st0" d="M190.4,172.3h-5.9v-17c0-6.3-2.8-9.5-8.5-9.5c-2.9,0-5.4,0.9-7.3,2.7s-2.9,4.1-2.9,6.8v17H160v-29.9h5.9v5h0.1
		c2.8-3.8,6.8-5.7,12-5.7c4,0,7.1,1.1,9.2,3.2s3.2,5.2,3.2,9.1V172.3z"/>
</g>
<path class="st1" d="M135.3,55.5c0,0-1.3,3.8-2.2,8.9c-12.7-23.5-36.3-43.6-36.3-43.6s5.8,17-3.3,23c-5.8,3.8-13.9,11.8-19.4,22.4
	c-1-6-2.6-10.8-2.6-10.8C71.4,69.5,54,80.8,54,80.8c0.1,20.7,16.6,23.8,20.2,30.1c3.6,6.3,0,10.3,0,10.3l8.1-8.2
	c7.6,5.3,17,8.2,24.8,8.2c6.5,0,13.1-2.9,18.7-7.2l7,7.2c0,0-3.5-4,0-10.3c3.5-6.3,19.6-9.4,19.8-30.1
	C152.5,80.8,135.4,69.5,135.3,55.5z"/>
<path class="st2" d="M64.8,81.8c-2,5.8-3.2,15.6,7.9,21.1c0.2,0.1,0.4-0.1,0.3-0.3c-0.6-1.3-1.7-4.2,0-6.5c0.1-0.2,0.4-0.1,0.4,0.1
	c0.8,2.6,5.9,16.2,22.7,16.1c0.2,0,0.3-0.3,0.2-0.4C93,109,74.4,92.1,89,71.3c0,0,0,0,0,0c0.2-0.2,11.1-13.5,11.9-20.9
	c0-0.3-0.3-0.4-0.5-0.1c-0.9,2-3,5.4-8.7,9.1c0,0-12.3,6.4-16.6,14.7c-4.7,9-11.4,14.5-9.9,7.8C65.4,81.6,64.9,81.5,64.8,81.8z"/>
</svg>
