<?xml version="1.0" encoding="utf-8"?>
<!-- Generator: Adobe Illustrator 20.1.0, SVG Export Plug-In . SVG Version: 6.00 Build 0)  -->
<svg version="1.1" id="Lager_1" xmlns="http://www.w3.org/2000/svg" xmlns:xlink="http://www.w3.org/1999/xlink" x="0px" y="0px"
	 viewBox="0 0 200 200" style="enable-background:new 0 0 200 200;" xml:space="preserve">
<style type="text/css">
	.st0{opacity:0.5;fill:#DB0822;}
	.st1{opacity:0.5;fill-rule:evenodd;clip-rule:evenodd;fill:url(#SVGID_1_);}
	.st2{fill:none;}
	.st3{opacity:0.5;}
	.st4{font-family:'KozGoPr6N-Regular-90ms-RKSJ-H';}
	.st5{font-size:30px;}
	.st6{font-family:'SegoeUI-Semilight';}
	.st7{font-size:39.257px;}
</style>
<g>
	<path class="st0" d="M84.2,121.6L84.2,121.6c-0.4-4.1,0.6-7.4,2.6-9.3c1.9-1.9,4.8-2.6,8-1.7l0,0l0,0l0,0c0.1,0,0.1,0,0.2,0.1
		c0,0,0,0,0,0l0,0c3.1,0.9,6.2,3.1,8.8,6c0,0,0,0,0,0c2.5,2.9,4.5,6.6,5.4,10.6c0,0,0,0,0,0c0,0.1,0,0.2,0,0.2l0,0
		c0,0.1,0,0.1,0.1,0.2c0,0,0,0,0,0c0.8,4.1,0.2,7.6-1.5,10c-1.7,2.5-4.5,3.7-8,3.1c0,0,0,0,0,0c-0.1,0-0.2,0-0.2,0
		c-3.7-0.7-7.4-3.3-10.2-6.9C86.6,130.3,84.6,125.9,84.2,121.6L84.2,121.6L84.2,121.6z M91.4,117.7c-1.1,1.1-1.6,3-1.3,5.2
		c0,0,0,0,0,0c0.3,2.4,1.4,4.7,2.9,6.6c1.5,1.9,3.5,3.3,5.4,3.7c0,0,0,0,0,0c2,0.4,3.6-0.2,4.6-1.5c1-1.2,1.3-3.1,1-5.3
		c0-0.1,0-0.1-0.1-0.2c0-0.1,0-0.1,0-0.2c-0.5-2.2-1.5-4.3-2.9-6l0,0c-1.4-1.7-3.2-3-5.1-3.4c0,0,0,0,0,0
		C94,116.1,92.4,116.6,91.4,117.7L91.4,117.7z M91,123.2c0.3,2,1.2,4,2.5,5.7l0,0c1.3,1.6,3,2.8,4.7,3.2c1.7,0.4,3.1-0.2,4-1.3
		c0.9-1.1,1.2-2.8,0.8-4.8c-0.3-2-1.3-3.9-2.6-5.4c-1.3-1.5-2.8-2.6-4.5-3c-1.6-0.4-3,0-3.9,1c0,0,0,0,0,0
		C91.2,119.6,90.7,121.2,91,123.2L91,123.2z M96.7,124.2c-0.1,0.1-0.1,0.2-0.1,0.4c0,0.2,0.1,0.3,0.2,0.4c0,0,0,0,0,0
		c0.1,0.1,0.2,0.2,0.3,0.2c0.1,0,0.2,0,0.3-0.1c0.1-0.1,0.1-0.2,0.1-0.4c0-0.2-0.1-0.3-0.2-0.4c-0.1-0.1-0.2-0.2-0.3-0.2
		C96.9,124.1,96.8,124.1,96.7,124.2L96.7,124.2L96.7,124.2z M106.7,102c0.7,3.2,2.6,6.6,5.1,9.4c2.5,2.8,5.5,5,8.4,5.7
		c2.9,0.8,5,0.1,6.1-1.7c1.1-1.7,1.3-4.3,0.3-7.5c-1-3.1-2.8-6.1-5.1-8.5c-2.3-2.4-4.9-4.4-7.5-5.2c-2.6-0.9-4.8-0.5-6.1,0.9
		c0,0,0,0,0,0C106.5,96.4,106,98.8,106.7,102L106.7,102z M111.9,99.4C111.9,99.4,111.9,99.4,111.9,99.4c0.7-0.8,1.9-1,3.4-0.6
		c1.5,0.5,3,1.5,4.3,2.9c1.3,1.4,2.3,3.1,2.8,4.8c0.5,1.8,0.4,3.2-0.2,4.1c-0.7,0.9-1.9,1.3-3.4,0.8c-1.6-0.4-3.2-1.6-4.5-3.1
		c-1.3-1.5-2.4-3.3-2.8-5.1C110.9,101.6,111.2,100.2,111.9,99.4L111.9,99.4z M116.6,104.9c0-0.1,0-0.2,0-0.2c0,0,0.1-0.1,0.2-0.1
		c0,0,0.1,0,0.1,0c0,0,0,0,0,0c0.1,0,0.1,0.1,0.2,0.1c0.1,0.1,0.2,0.2,0.2,0.3c0,0,0,0,0,0c0,0.1,0,0.2,0,0.2c-0.1,0-0.1,0.1-0.2,0
		c0,0,0,0,0,0c-0.1,0-0.2-0.1-0.3-0.2c0,0,0,0,0,0C116.7,105.1,116.6,105,116.6,104.9C116.6,104.9,116.6,104.9,116.6,104.9
		L116.6,104.9z M112.1,103.4c-0.3-1.5-0.1-2.6,0.5-3.3c0.6-0.6,1.5-0.9,2.7-0.6c0,0,0,0,0,0c0.1,0,0.1,0,0.2,0.1c0,0,0,0,0,0
		c0,0,0,0,0.1,0c0,0,0,0,0,0c1.3,0.4,2.5,1.3,3.6,2.5c1.1,1.2,1.9,2.6,2.4,4c0,0,0,0,0,0c0,0.1,0,0.1,0.1,0.2
		c0.4,1.5,0.3,2.8-0.3,3.5c-0.5,0.7-1.5,1-2.7,0.7c0,0,0,0,0,0c-0.1,0-0.1,0-0.2,0c-1.3-0.4-2.8-1.4-3.9-2.7c0,0,0,0,0,0
		c-1.1-1.2-2-2.7-2.4-4.2c0-0.1,0-0.1-0.1-0.2C112.1,103.6,112.1,103.5,112.1,103.4L112.1,103.4z M105.6,86.4
		c-0.6-2.7-0.2-4.7,1.1-5.7c1.2-1,3.2-1.3,5.6-0.4c2.4,0.9,4.9,2.6,7,4.8c0,0,0,0,0,0c2.1,2.2,3.8,4.9,4.7,7.5
		c0.9,2.7,0.7,4.9-0.4,6.2c-1.1,1.4-3,1.8-5.7,1c-2.7-0.8-5.4-2.8-7.7-5.3C107.9,92.1,106.2,89.2,105.6,86.4L105.6,86.4z
		 M110.3,84.6c0.7-0.6,1.8-0.8,3.1-0.3c1.4,0.5,2.8,1.5,3.9,2.7c0,0,0,0,0,0c1.2,1.2,2.1,2.7,2.6,4.2c0.5,1.5,0.3,2.7-0.3,3.4
		c-0.6,0.7-1.7,0.9-3.2,0.5c-1.4-0.5-2.9-1.5-4.1-2.8c-1.2-1.3-2.2-2.9-2.6-4.4C109.4,86.4,109.6,85.2,110.3,84.6L110.3,84.6z
		 M110.5,88.1c-0.4-1.3-0.2-2.3,0.4-2.8c0.6-0.5,1.5-0.7,2.7-0.3c1.2,0.4,2.4,1.3,3.5,2.4c1,1.1,1.9,2.4,2.3,3.7
		c0.4,1.3,0.3,2.3-0.3,2.9l0,0c-0.5,0.6-1.5,0.8-2.7,0.4c-1.2-0.4-2.5-1.3-3.6-2.5C111.6,90.7,110.8,89.4,110.5,88.1L110.5,88.1z
		 M114.6,89.2c0,0,0,0.1,0,0.2c0,0.1,0.1,0.2,0.2,0.3c0.1,0.1,0.2,0.1,0.3,0.2c0.1,0,0.2,0,0.2,0c0,0,0,0,0,0c0,0,0-0.1,0-0.2
		c0-0.1-0.1-0.2-0.2-0.3c-0.1-0.1-0.2-0.1-0.3-0.2C114.7,89.2,114.7,89.2,114.6,89.2L114.6,89.2z M98.2,71.5c0.6,2.3,2.1,4.8,4.1,7
		c2.1,2.2,4.6,4,7.1,4.9c0,0,0,0,0,0c0,0,0.1,0,0.1,0c2.5,0.9,4.5,0.6,5.6-0.5c1.1-1.1,1.4-2.9,0.7-5.3c-0.7-2.3-2.3-4.7-4.2-6.7
		c-1.9-2-4.3-3.6-6.6-4.5c-0.1,0-0.1,0-0.1-0.1c0,0,0,0,0,0c-2.3-0.8-4.1-0.7-5.4,0.1c-1.2,0.8-1.8,2.5-1.3,4.7l0,0c0,0,0,0.1,0,0.1
		l0,0C98.2,71.4,98.2,71.4,98.2,71.5C98.2,71.5,98.2,71.5,98.2,71.5L98.2,71.5z M102.9,70c-0.6,0.5-0.9,1.4-0.6,2.6c0,0,0,0.1,0,0.1
		c0,0,0,0.1,0,0.1c0.3,1.3,1.2,2.6,2.3,3.8c1.1,1.2,2.5,2.2,3.9,2.7c0,0,0,0,0,0c1.4,0.5,2.4,0.4,3.1-0.2c0.6-0.6,0.8-1.5,0.4-2.9
		c-0.4-1.3-1.2-2.6-2.3-3.7c-1.1-1.1-2.4-2.1-3.7-2.5c0,0,0,0,0,0C104.6,69.5,103.5,69.6,102.9,70L102.9,70z M102.9,73
		c-0.3-1.1,0-1.9,0.5-2.4c0.6-0.4,1.5-0.5,2.7-0.1c1.1,0.4,2.3,1.3,3.3,2.2c0.9,0.9,1.6,2,2,3.1c0,0,0,0,0,0c0,0.1,0,0.1,0,0.1
		c0.3,1.1,0.2,2-0.4,2.5c-0.5,0.5-1.4,0.6-2.5,0.2c0,0,0,0,0,0c-0.1,0-0.1,0-0.2-0.1c-1.2-0.4-2.4-1.3-3.4-2.3c0,0,0,0,0,0
		C103.9,75.3,103.2,74.1,102.9,73L102.9,73z M106.9,74.3c0,0,0.1,0,0.2,0c0.1,0,0.2,0.1,0.2,0.2c0.1,0.1,0.1,0.2,0.2,0.3l0,0
		c0,0.1,0,0.1,0,0.2c0,0-0.1,0-0.2,0c0,0,0,0,0,0c-0.1,0-0.2-0.1-0.2-0.2c0,0,0,0,0,0c-0.1-0.1-0.1-0.2-0.1-0.2
		C106.8,74.4,106.9,74.3,106.9,74.3L106.9,74.3z M86.8,58.7C86.8,58.7,86.8,58.7,86.8,58.7c0-0.1,0-0.1,0-0.1
		c-0.4-2.1,0.3-3.5,1.6-4.2c1.3-0.6,3.2-0.6,5.5,0.3c0,0,0,0,0,0c0,0,0.1,0,0.1,0.1c2.3,0.9,4.6,2.5,6.4,4.4c1.8,1.9,3.2,4,3.8,6
		c0,0,0,0,0,0c0,0,0,0.1,0,0.1c0.6,2.1,0.1,3.7-1.1,4.6c-1.2,0.9-3.1,1-5.6,0.2c0,0,0,0,0,0c-0.1,0-0.1,0-0.2-0.1
		c-2.5-0.9-5.1-2.7-7-4.8C88.6,63.1,87.2,60.8,86.8,58.7L86.8,58.7z M91.6,57.7c0.7-0.4,1.8-0.4,3.2,0.1c0,0,0,0,0,0
		c1.3,0.5,2.6,1.4,3.6,2.5c1,1.1,1.8,2.3,2.1,3.5c0,0,0,0,0,0c0.3,1.2,0,2-0.7,2.5c-0.7,0.5-1.8,0.5-3.2,0l0,0
		c-1.4-0.5-2.7-1.5-3.8-2.6c-1.1-1.1-1.9-2.4-2.1-3.6l0,0C90.6,58.9,90.9,58.1,91.6,57.7L91.6,57.7z M91.4,60.3
		c-0.2-1,0.1-1.7,0.7-2.1c0.6-0.4,1.6-0.3,2.7,0.1c1.1,0.4,2.3,1.2,3.2,2.2c0.9,0.9,1.6,2,1.8,3c0,0,0,0,0,0.1c0,0,0,0,0,0
		c0.2,1,0,1.7-0.6,2.1c0,0,0,0,0,0c-0.6,0.4-1.6,0.4-2.7,0c0,0-0.1,0-0.1,0c0,0,0,0,0,0c-1.2-0.5-2.3-1.3-3.2-2.2c0,0,0,0,0,0
		C92.3,62.5,91.7,61.3,91.4,60.3L91.4,60.3z M95.5,61.7c0,0-0.1,0.1,0,0.2c0,0.1,0.1,0.2,0.1,0.2l0,0c0.1,0.1,0.1,0.1,0.2,0.2
		c0,0,0,0,0,0c0.1,0,0.2,0,0.2,0c0,0,0,0,0,0c0,0,0.1-0.1,0-0.2l0,0c0-0.1-0.1-0.2-0.1-0.2c-0.1-0.1-0.2-0.1-0.2-0.2
		C95.6,61.6,95.5,61.6,95.5,61.7L95.5,61.7z M72.6,49.1c0.3,2,1.5,4.2,3.4,6.2c1.9,2.1,4.5,3.8,7.1,4.8c2.6,1,4.8,0.9,6.2,0.2
		c1.4-0.8,2-2.2,1.6-4.3c-0.4-2-1.7-4.1-3.5-5.9c-1.8-1.8-4.1-3.4-6.5-4.4c-0.1,0-0.1,0-0.2-0.1c0,0,0,0,0,0c-2.4-0.9-4.4-1-5.9-0.5
		c0,0,0,0,0,0c-1.5,0.6-2.4,1.9-2.2,3.9C72.6,49,72.6,49.1,72.6,49.1C72.6,49.1,72.6,49.1,72.6,49.1L72.6,49.1z M77.9,48.4
		c-0.8,0.3-1.3,1.1-1.1,2.2l0,0c0.1,1.1,0.9,2.3,1.9,3.4c1,1.1,2.4,2.1,3.8,2.6c1.4,0.5,2.6,0.6,3.4,0.2c0.8-0.4,1.1-1.2,0.9-2.3
		c-0.2-1.1-0.9-2.3-2-3.3c-1-1-2.3-1.9-3.7-2.5l0,0C79.9,48.1,78.7,48.1,77.9,48.4C77.9,48.4,77.9,48.4,77.9,48.4L77.9,48.4z
		 M77.5,50.8c0.1,1,0.8,2,1.7,3c0.9,1,2.1,1.8,3.3,2.3c1.2,0.5,2.3,0.5,3,0.1c0.7-0.4,1-1,0.8-2c-0.2-1-0.8-2-1.7-2.9
		c-0.9-0.9-2-1.7-3.2-2.2c-1.2-0.5-2.2-0.5-2.9-0.2C77.7,49.2,77.4,49.9,77.5,50.8L77.5,50.8z M81.7,52.3c0.1,0,0.1,0,0.2,0
		c0.1,0,0.2,0.1,0.2,0.2c0.1,0.1,0.1,0.2,0.1,0.2c0,0.1,0,0.1-0.1,0.2c-0.1,0-0.1,0-0.2,0c-0.1,0-0.2-0.1-0.2-0.2
		c-0.1-0.1-0.1-0.1-0.1-0.2C81.6,52.3,81.6,52.3,81.7,52.3L81.7,52.3z M57.3,43.7c0-2,1.1-3.3,2.8-3.8c0,0,0,0,0,0
		c1.7-0.5,4.1-0.3,6.6,0.7c2.6,1,5,2.7,6.8,4.5c1.8,1.9,3.1,4,3.3,6c0.3,2-0.6,3.5-2.2,4.2l0,0c-1.6,0.7-3.9,0.7-6.7-0.2
		c0,0,0,0,0,0c-0.1,0-0.1,0-0.2-0.1c-2.9-1-5.5-2.9-7.4-5c-1.9-2-3-4.3-3.1-6.3c0,0,0,0,0,0C57.3,43.8,57.3,43.8,57.3,43.7
		L57.3,43.7z M63.3,43.3C63.3,43.3,63.3,43.3,63.3,43.3c0.9-0.3,2.3-0.2,3.7,0.3c1.5,0.6,2.8,1.5,3.8,2.6c1,1.1,1.7,2.3,1.8,3.4
		c0.1,1.1-0.4,1.9-1.3,2.3c0,0,0,0,0,0c-0.9,0.4-2.3,0.3-3.8-0.2l0,0c-1.5-0.6-3-1.6-4-2.7c-1.1-1.1-1.7-2.4-1.8-3.5c0,0,0,0,0,0
		C61.8,44.4,62.4,43.6,63.3,43.3L63.3,43.3z M62.5,45.7c0,1,0.6,2.1,1.5,3c0.9,1,2.2,1.8,3.5,2.3c1.3,0.5,2.5,0.5,3.3,0.2
		c0.8-0.3,1.2-1,1.1-2c-0.1-0.9-0.7-2-1.6-2.9c-0.9-0.9-2.1-1.8-3.3-2.3c-1.3-0.5-2.4-0.6-3.2-0.3C63,44.1,62.5,44.8,62.5,45.7
		L62.5,45.7z M67,47.3c-0.1,0-0.1,0.1-0.1,0.1c0,0.1,0,0.2,0.1,0.2c0.1,0.1,0.1,0.1,0.2,0.2c0.1,0,0.2,0,0.3,0
		c0.1,0,0.1-0.1,0.1-0.1c0-0.1-0.1-0.2-0.1-0.2c-0.1-0.1-0.1-0.1-0.2-0.2C67.2,47.3,67.1,47.3,67,47.3L67,47.3z M42.5,43.9
		c-0.2,2.2,0.9,4.6,2.9,6.9c2,2.3,4.8,4.2,8,5.3c0.1,0,0.1,0,0.2,0.1c0,0,0,0,0,0c3,1,5.7,1,7.6,0.2c0,0,0,0,0,0
		c1.9-0.8,3-2.4,2.9-4.6c0,0,0-0.1,0-0.1c0,0,0,0,0,0c-0.1-2.1-1.4-4.3-3.2-6.2c-1.9-2-4.4-3.8-7.2-4.8c-2.8-1.1-5.5-1.3-7.5-0.7
		C44.1,40.4,42.7,41.8,42.5,43.9L42.5,43.9z M49.4,43.4c-1.1,0.3-1.9,1.2-1.9,2.3c-0.1,1.2,0.6,2.5,1.6,3.7c1.1,1.2,2.6,2.3,4.3,2.9
		c0,0,0,0,0,0c1.7,0.6,3.2,0.6,4.3,0.2c0,0,0,0,0,0c1.1-0.4,1.7-1.3,1.7-2.5c0,0,0,0,0,0c0-1.2-0.7-2.5-1.7-3.6
		c-1-1.1-2.5-2.1-4.1-2.7C52,43.1,50.5,43.1,49.4,43.4L49.4,43.4z M48.2,46.2c0,1,0.5,2.1,1.4,3.1c0,0,0,0,0,0c0.9,1,2.3,2,3.8,2.5
		c0.1,0,0.1,0,0.2,0.1c0,0,0,0,0,0c1.4,0.5,2.6,0.5,3.5,0.1c0.9-0.4,1.5-1.1,1.5-2.1c0-0.1,0-0.1,0-0.1c0,0,0,0,0,0
		c-0.1-1-0.6-2-1.5-3c-0.9-1-2.2-1.9-3.6-2.4c-0.1,0-0.1,0-0.2-0.1c0,0,0,0,0,0c-1.3-0.4-2.5-0.5-3.4-0.2c-1,0.3-1.6,1-1.7,2
		C48.2,46,48.2,46.1,48.2,46.2C48.2,46.1,48.2,46.1,48.2,46.2L48.2,46.2z M53.2,47.6c0.1,0,0.2,0,0.3,0c0,0,0,0,0,0
		c0.1,0,0.2,0.1,0.3,0.2c0.1,0.1,0.1,0.2,0.1,0.2l0,0c0,0.1,0,0.1-0.1,0.1c-0.1,0-0.2,0-0.3,0c0,0,0,0,0,0c-0.1,0-0.2-0.1-0.3-0.2
		c0,0,0,0,0,0c-0.1-0.1-0.1-0.2-0.1-0.2h0C53.1,47.7,53.2,47.6,53.2,47.6L53.2,47.6z M30.1,50.7L30.1,50.7c0-0.1,0-0.1,0-0.2
		c0.4-2.4,2.2-4,4.6-4.8c2.3-0.7,5.3-0.5,8.4,0.5c0,0,0,0,0,0c0.1,0,0.1,0.1,0.2,0.1c3.1,1.1,5.9,3,7.9,5.2c1.9,2.2,3.1,4.6,3.2,7
		c0,0,0,0,0,0c0,0.1,0,0.1,0,0.2c0,2.5-1.4,4.3-3.7,5.3c0,0,0,0,0,0c-2.3,1-5.5,1.1-9,0c-3.6-1.1-6.7-3.3-8.8-5.8
		C30.9,55.8,29.8,53.1,30.1,50.7L30.1,50.7z M38.2,49.7c1.3-0.4,3-0.4,4.8,0.3c0,0,0,0,0,0c1.8,0.6,3.3,1.7,4.5,2.9
		c1.1,1.3,1.8,2.7,1.7,4c0,0,0,0,0,0c-0.1,1.4-0.9,2.3-2.1,2.9c0,0,0,0,0,0c-1.3,0.5-3,0.5-4.9-0.1c-1.9-0.6-3.6-1.8-4.8-3.1
		c-1.2-1.3-1.8-2.9-1.6-4.2c0,0,0,0,0,0C36,51,36.9,50.1,38.2,49.7L38.2,49.7z M42.2,54.6c0-0.1,0.1-0.1,0.1-0.2c0,0,0,0,0,0
		c0.1,0,0.2,0,0.3,0c0,0,0.1,0,0.2,0.1c0,0,0,0,0,0c0.1,0,0.1,0.1,0.2,0.1c0.1,0.1,0.1,0.2,0.1,0.3l0,0c0,0.1,0,0.1-0.1,0.2
		c-0.1,0-0.2,0-0.3,0l0,0c-0.1,0-0.2-0.1-0.3-0.2c0,0,0,0,0,0C42.2,54.8,42.2,54.6,42.2,54.6C42.2,54.6,42.2,54.6,42.2,54.6
		L42.2,54.6z M36.7,52.6c0.2-1.1,1-1.9,2.1-2.3c0,0,0,0,0,0c1.1-0.4,2.5-0.3,3.9,0.1c0,0,0,0,0,0c0.1,0,0.1,0,0.2,0.1l0,0
		c0,0,0.1,0,0.1,0c0,0,0,0,0,0c1.5,0.6,2.8,1.5,3.8,2.6c0.9,1,1.5,2.2,1.5,3.3c0,0,0,0,0,0c0,0.1,0,0.1,0,0.2
		c-0.1,1.2-0.8,2.1-1.9,2.5c-1.1,0.4-2.5,0.5-4,0c0,0,0,0,0,0c-0.1,0-0.2,0-0.2-0.1c-1.7-0.6-3.1-1.5-4.1-2.7c0,0,0,0,0,0
		C37.1,55.2,36.5,53.9,36.7,52.6C36.7,52.7,36.7,52.7,36.7,52.6C36.7,52.6,36.7,52.6,36.7,52.6L36.7,52.6z M23.9,64.2
		c-0.6,3,0.5,6.2,2.8,9.1c2.3,2.9,5.8,5.2,9.8,6.4c3.9,1.1,7.5,0.8,10.1-0.6c0,0,0,0,0,0c2.5-1.3,4.1-3.6,4.2-6.6
		c0.1-2.8-1.2-5.8-3.3-8.3c-2.1-2.5-5.2-4.5-8.6-5.7c-3.5-1.2-6.9-1.2-9.6-0.2C26.5,59.3,24.5,61.4,23.9,64.2L23.9,64.2z M33,62.8
		c-1.5,0.6-2.6,1.8-2.8,3.4c-0.3,1.6,0.4,3.4,1.6,4.9c1.3,1.5,3.1,2.8,5.2,3.4c2.1,0.6,4.1,0.5,5.6-0.2l0,0c1.4-0.7,2.3-2,2.5-3.6
		c0.1-1.6-0.6-3.3-1.8-4.7c-1.2-1.4-2.9-2.6-4.9-3.2C36.4,62.1,34.5,62.2,33,62.8L33,62.8z M31.2,66.4c0,0.1,0,0.1,0,0.2
		c0,0,0,0,0,0c-0.1,1.3,0.4,2.8,1.4,4c1.1,1.3,2.7,2.4,4.6,3c0.1,0,0.2,0,0.2,0.1c0,0,0,0,0,0c1.7,0.4,3.3,0.3,4.5-0.3
		c1.3-0.6,2.1-1.7,2.2-3.1c0.1-1.4-0.5-2.8-1.6-4.1c0,0,0,0,0,0c-1-1.2-2.5-2.3-4.3-2.8c-1.7-0.6-3.4-0.5-4.7,0
		C32.3,64,31.4,65,31.2,66.4L31.2,66.4z M37.4,68.1c0.1,0,0.2,0,0.4,0c0.1,0,0.2,0.1,0.3,0.2l0,0c0.1,0.1,0.1,0.2,0.1,0.3
		c0,0.1-0.1,0.2-0.2,0.2c-0.1,0-0.2,0.1-0.4,0c0,0,0,0,0,0c-0.1,0-0.2-0.1-0.3-0.2c-0.1-0.1-0.1-0.2-0.1-0.3l0,0
		C37.3,68.2,37.3,68.1,37.4,68.1L37.4,68.1z M33.7,85.2c0.3-1.9,1.4-3.4,3-4.2c1.6-0.8,3.6-1,5.8-0.4c0,0,0,0,0,0
		c2.1,0.6,4,1.9,5.3,3.5c0,0,0,0,0,0c1.3,1.6,2.1,3.5,2,5.4c0,0,0,0,0,0c-0.1,1.9-1,3.5-2.6,4.4c-1.5,1-3.6,1.3-5.9,0.7l0,0
		c-2.3-0.6-4.3-2-5.7-3.7C34.2,89.2,33.5,87.2,33.7,85.2L33.7,85.2L33.7,85.2z M27,83.3c0.6-3.4,2.7-5.9,5.7-7.3
		c2.9-1.3,6.5-1.6,10.2-0.5c0,0,0.1,0,0.1,0l0,0c3.7,1.1,6.9,3.3,9.1,6.1c0,0,0,0,0,0c2.3,2.7,3.7,6,3.7,9.3c0,0,0,0,0,0
		c0,0.1,0,0.1,0,0.2c-0.1,3.5-1.7,6.4-4.4,8.2c-2.7,1.8-6.4,2.5-10.5,1.6c0,0,0,0,0,0c-0.1,0-0.2,0-0.3-0.1c-4.3-1-8.1-3.6-10.6-6.9
		c-2.5-3.2-3.7-7.1-3.1-10.6C26.9,83.4,26.9,83.3,27,83.3C26.9,83.3,26.9,83.3,27,83.3L27,83.3z M34.8,85.5c-0.2,1.7,0.4,3.5,1.6,5
		c1.2,1.5,2.9,2.7,4.9,3.2c2,0.5,3.8,0.2,5.1-0.6c1.3-0.8,2.2-2.2,2.3-3.9c0.1-1.7-0.6-3.3-1.7-4.7c-1.2-1.4-2.8-2.5-4.6-3
		c-1.9-0.5-3.6-0.4-5,0.3C36,82.5,35,83.8,34.8,85.5L34.8,85.5z M41.5,87c-0.1,0-0.2,0.1-0.2,0.3c0,0.1,0,0.3,0.1,0.4
		c0.1,0.1,0.2,0.2,0.3,0.2c0.1,0,0.3,0,0.4,0c0.1,0,0.2-0.1,0.2-0.3c0-0.1,0-0.3-0.1-0.4c-0.1-0.1-0.2-0.2-0.3-0.2
		C41.7,86.9,41.6,86.9,41.5,87L41.5,87z M40.9,103.7l29.3,6.9c0,0,0,0,0-0.1c0,0,0,0,0,0c-0.2-3.8-1.9-7.5-4.3-10.5
		c-2.5-3-5.8-5.3-9.6-6.4c-0.1,0-0.2,0-0.2-0.1c0,0,0,0,0,0c-3.7-0.9-7.2-0.4-9.9,1.3C43.3,96.6,41.3,99.7,40.9,103.7L40.9,103.7z
		 M50.5,100.3c-1.5,1-2.6,2.8-2.7,5c0,0,0,0,0,0c-0.1,2.3,0.7,4.6,2.2,6.5c0,0,0,0,0,0c1.5,1.9,3.5,3.4,5.9,3.9c0,0,0,0,0,0l0,0
		c0,0,0,0,0,0c2.3,0.5,4.4,0,5.8-1.2c0,0,0,0,0,0c1.4-1.2,2.3-3,2.2-5.3c0,0,0,0,0,0c0-2.2-0.9-4.4-2.3-6.1
		c-1.4-1.7-3.3-3.1-5.5-3.6c0,0,0,0,0,0C54,98.9,52,99.3,50.5,100.3L50.5,100.3z M70.2,110.7C70.2,110.7,70.2,110.7,70.2,110.7
		L70.2,110.7C70.2,110.7,70.2,110.7,70.2,110.7c0.2,4.1-1.2,7.5-3.8,9.8c0,0,0,0,0,0c-2.6,2.3-6.2,3.4-10.4,2.6c0,0,0,0,0,0
		c-0.1,0-0.2,0-0.3-0.1c-4.4-0.9-8.3-3.7-11-7.3c0,0,0,0,0,0c-2.6-3.5-4.1-7.7-3.8-11.7c0,0,0,0,0,0c0-0.1,0-0.2,0-0.3L70.2,110.7
		L70.2,110.7z M48.9,105.6c-0.1,2,0.6,4,1.9,5.6c1.3,1.7,3.1,3,5.1,3.4c2,0.5,3.8,0,5-1c1.3-1,2-2.6,2-4.6c0-1.9-0.8-3.8-2-5.3
		c-1.2-1.5-2.9-2.7-4.8-3.2c-1.9-0.5-3.6-0.2-4.9,0.7c0,0,0,0,0,0C49.9,102.1,49,103.6,48.9,105.6L48.9,105.6z M55.7,106.8
		L55.7,106.8c0.1-0.1,0.2-0.1,0.4-0.1c0.1,0,0.3,0.1,0.4,0.2c0.1,0.1,0.1,0.3,0.2,0.4c0,0.1-0.1,0.3-0.2,0.3
		c-0.1,0.1-0.2,0.1-0.4,0.1c-0.1,0-0.3-0.1-0.4-0.2c-0.1-0.1-0.1-0.3-0.2-0.4C55.5,107,55.6,106.9,55.7,106.8L55.7,106.8z
		 M62.4,118.2c0.1,4.4,1.8,8.8,4.6,12.4c2.8,3.7,6.6,6.4,10.7,7.3c0.1,0,0.2,0.1,0.2,0.1c0,0,0.1,0,0.2,0c3.9,0.7,7.2-0.6,9.4-3.1
		c2.2-2.5,3.2-6.3,2.6-10.6c0-0.1,0-0.2,0-0.3c0,0,0,0,0,0c-0.6-4-2.4-7.9-4.9-11c-2.6-3.1-5.9-5.5-9.5-6.4c-0.1,0-0.1,0-0.2-0.1
		c0,0,0,0,0,0c-3.5-0.8-6.7-0.1-9,1.7c-2.4,2-4,5.3-4,9.5c0,0,0,0,0,0c0,0.1,0,0.1,0,0.1l0,0C62.4,118,62.4,118.1,62.4,118.2
		C62.4,118.2,62.4,118.2,62.4,118.2L62.4,118.2z M71,113.9c-1.3,1.1-2.1,2.9-2,5.2c0,0.1,0,0.1,0,0.1c0,0.1,0,0.2,0,0.2
		c0.1,2.4,1.1,4.8,2.6,6.7c1.5,2,3.6,3.5,5.8,3.9l0,0c2.2,0.4,4.1-0.2,5.3-1.5c1.2-1.3,1.8-3.3,1.6-5.7c0,0,0,0,0,0
		c-0.2-2.3-1.3-4.6-2.7-6.4c-1.4-1.8-3.3-3.1-5.4-3.6c0,0,0,0,0,0C74.1,112.3,72.3,112.7,71,113.9L71,113.9z M70,119.9
		c0.2,2,1,4,2.2,5.6c1.3,1.7,3.1,3,5,3.4c1.9,0.4,3.5-0.1,4.6-1.3c1.1-1.2,1.6-2.9,1.4-5c-0.2-2-1.1-4-2.4-5.6
		c-1.3-1.6-3-2.7-4.7-3.2c-0.1,0-0.2,0-0.2-0.1c0,0,0,0,0,0c-1.7-0.3-3.2,0.1-4.2,1c-1.2,1-1.9,2.7-1.8,4.8
		C70,119.7,70,119.8,70,119.9C70,119.9,70,119.9,70,119.9L70,119.9z M76.3,120.6c0.1-0.1,0.2-0.1,0.4-0.1c0,0,0,0,0,0
		c0.1,0,0.3,0.1,0.3,0.2c0.1,0.1,0.2,0.3,0.2,0.4c0,0.2,0,0.3-0.1,0.4c-0.1,0.1-0.2,0.1-0.4,0.1c-0.1,0-0.3-0.1-0.3-0.2
		c-0.1-0.1-0.2-0.3-0.2-0.4l0,0C76.2,120.8,76.3,120.7,76.3,120.6L76.3,120.6z M99.8,115.3c0.7,3.7,2.7,7.5,5.3,10.6
		c2.7,3.2,6,5.6,9.3,6.3c0.1,0,0.1,0,0.2,0c0,0,0,0,0,0c3.1,0.6,5.5-0.4,6.8-2.5c1.3-2.1,1.6-5.3,0.6-9c0-0.1,0-0.1-0.1-0.2
		c0,0,0,0,0,0c-1-3.5-3-6.8-5.4-9.5c-2.4-2.7-5.4-4.8-8.3-5.6c-0.1,0-0.1,0-0.2-0.1l0,0c-2.9-0.8-5.2-0.2-6.7,1.4
		c-1.6,1.7-2.3,4.6-1.6,8.3C99.8,115.1,99.8,115.2,99.8,115.3C99.8,115.3,99.8,115.3,99.8,115.3L99.8,115.3z M105.7,111.7
		c-0.8,1-1.2,2.6-0.8,4.7c0,0,0,0,0,0c0.4,2.1,1.5,4.2,3,5.9c1.4,1.7,3.2,3,5,3.4c0,0,0,0,0,0c1.8,0.4,3.1-0.1,3.9-1.2
		c0.8-1.1,1-2.8,0.4-4.8c0,0,0,0,0,0c-0.5-2-1.6-4-3-5.5c-1.4-1.6-3-2.7-4.7-3.2l0,0C107.9,110.4,106.6,110.8,105.7,111.7
		L105.7,111.7z M110.8,117.9c0-0.1,0-0.2,0-0.3c0.1-0.1,0.1-0.1,0.3-0.1l0,0c0.1,0,0.2,0.1,0.3,0.2c0.1,0.1,0.2,0.2,0.2,0.4l0,0
		c0,0.1,0,0.2,0,0.3c-0.1,0.1-0.1,0.1-0.3,0.1c0,0,0,0,0,0c-0.1,0-0.2-0.1-0.3-0.2C110.9,118.2,110.9,118.1,110.8,117.9
		C110.8,118,110.8,117.9,110.8,117.9L110.8,117.9z M105.8,116.4C105.8,116.4,105.8,116.4,105.8,116.4c0,0.1,0,0.2,0,0.2
		c0.4,1.8,1.3,3.6,2.6,5.1c1.2,1.4,2.7,2.5,4.1,2.9c0.1,0,0.1,0.1,0.2,0.1c0.1,0,0.1,0,0.2,0c1.4,0.3,2.5-0.2,3.1-1.1
		c0.7-0.9,0.9-2.4,0.4-4.2c0-0.1,0-0.1-0.1-0.2c0,0,0,0,0,0c-0.5-1.7-1.4-3.3-2.5-4.6c-1.2-1.3-2.6-2.3-3.9-2.8c0,0,0,0,0,0
		c-0.1,0-0.1,0-0.2-0.1c-1.5-0.4-2.6-0.1-3.3,0.8C105.7,113.4,105.5,114.7,105.8,116.4z"/>
</g>
<g>
	<path class="st0" d="M84.4,87.9L84.4,87.9c-0.1-0.5,0.1-1,0.3-1.2c0.3-0.2,0.6-0.3,1.1-0.2l0,0l0,0l0,0c0,0,0,0,0,0c0,0,0,0,0,0
		l0,0c0.4,0.1,0.8,0.4,1.1,0.8c0,0,0,0,0,0c0.3,0.4,0.6,0.9,0.7,1.4c0,0,0,0,0,0c0,0,0,0,0,0l0,0c0,0,0,0,0,0c0,0,0,0,0,0
		c0.1,0.5,0,1-0.2,1.3c-0.2,0.3-0.6,0.5-1.1,0.4c0,0,0,0,0,0c0,0,0,0,0,0c-0.5-0.1-1-0.4-1.3-0.9C84.7,89.1,84.5,88.5,84.4,87.9
		L84.4,87.9L84.4,87.9z M85.4,87.4c-0.1,0.1-0.2,0.4-0.2,0.7c0,0,0,0,0,0c0,0.3,0.2,0.6,0.4,0.9c0.2,0.2,0.5,0.4,0.7,0.5
		c0,0,0,0,0,0c0.3,0.1,0.5,0,0.6-0.2c0.1-0.2,0.2-0.4,0.1-0.7c0,0,0,0,0,0c0,0,0,0,0,0c-0.1-0.3-0.2-0.6-0.4-0.8l0,0
		c-0.2-0.2-0.4-0.4-0.7-0.5c0,0,0,0,0,0C85.7,87.2,85.5,87.3,85.4,87.4L85.4,87.4z M85.3,88.1c0,0.3,0.2,0.5,0.3,0.7l0,0
		c0.2,0.2,0.4,0.4,0.6,0.4c0.2,0,0.4,0,0.5-0.2c0.1-0.1,0.2-0.4,0.1-0.6c0-0.3-0.2-0.5-0.3-0.7c-0.2-0.2-0.4-0.3-0.6-0.4
		c-0.2-0.1-0.4,0-0.5,0.1c0,0,0,0,0,0C85.3,87.7,85.3,87.9,85.3,88.1L85.3,88.1z M86.1,88.3C86.1,88.3,86.1,88.3,86.1,88.3
		c0,0.1,0,0.1,0,0.1c0,0,0,0,0,0c0,0,0,0,0,0c0,0,0,0,0,0c0,0,0,0,0,0C86.2,88.3,86.2,88.3,86.1,88.3C86.1,88.3,86.1,88.2,86.1,88.3
		C86.1,88.2,86.1,88.2,86.1,88.3L86.1,88.3L86.1,88.3z M87.4,85.3c0.1,0.4,0.3,0.9,0.7,1.2c0.3,0.4,0.7,0.6,1.1,0.8
		c0.4,0.1,0.7,0,0.8-0.2c0.1-0.2,0.2-0.6,0-1c-0.1-0.4-0.4-0.8-0.7-1.1c-0.3-0.3-0.6-0.6-1-0.7c-0.3-0.1-0.6-0.1-0.8,0.1
		c0,0,0,0,0,0C87.3,84.6,87.3,84.9,87.4,85.3L87.4,85.3z M88,85C88,85,88,85,88,85c0.1-0.1,0.2-0.1,0.4-0.1c0.2,0.1,0.4,0.2,0.6,0.4
		c0.2,0.2,0.3,0.4,0.4,0.6c0.1,0.2,0.1,0.4,0,0.5c-0.1,0.1-0.2,0.2-0.4,0.1c-0.2-0.1-0.4-0.2-0.6-0.4C88.2,86,88,85.8,88,85.5
		C87.9,85.3,88,85.1,88,85L88,85z M88.7,85.7C88.7,85.7,88.7,85.7,88.7,85.7C88.7,85.7,88.7,85.7,88.7,85.7
		C88.7,85.7,88.7,85.7,88.7,85.7C88.7,85.7,88.7,85.7,88.7,85.7C88.7,85.7,88.7,85.7,88.7,85.7C88.7,85.7,88.8,85.7,88.7,85.7
		C88.8,85.8,88.8,85.8,88.7,85.7C88.8,85.8,88.8,85.8,88.7,85.7C88.7,85.8,88.7,85.8,88.7,85.7C88.7,85.8,88.7,85.8,88.7,85.7
		C88.7,85.8,88.7,85.8,88.7,85.7C88.7,85.8,88.7,85.8,88.7,85.7C88.7,85.8,88.7,85.7,88.7,85.7C88.7,85.7,88.7,85.7,88.7,85.7
		L88.7,85.7z M88.1,85.5c0-0.2,0-0.3,0.1-0.4c0.1-0.1,0.2-0.1,0.4-0.1c0,0,0,0,0,0c0,0,0,0,0,0c0,0,0,0,0,0c0,0,0,0,0,0l0,0
		c0.2,0.1,0.3,0.2,0.5,0.3c0.1,0.2,0.3,0.3,0.3,0.5c0,0,0,0,0,0c0,0,0,0,0,0c0.1,0.2,0,0.4,0,0.5c-0.1,0.1-0.2,0.1-0.4,0.1
		c0,0,0,0,0,0c0,0,0,0,0,0c-0.2-0.1-0.4-0.2-0.5-0.4c0,0,0,0,0,0C88.3,86,88.1,85.8,88.1,85.5C88.1,85.6,88.1,85.6,88.1,85.5
		C88.1,85.6,88.1,85.6,88.1,85.5L88.1,85.5z M87.2,83.3c-0.1-0.3,0-0.6,0.1-0.8c0.2-0.1,0.4-0.2,0.7-0.1c0.3,0.1,0.6,0.3,0.9,0.6
		c0,0,0,0,0,0c0.3,0.3,0.5,0.6,0.6,1c0.1,0.4,0.1,0.6,0,0.8c-0.1,0.2-0.4,0.2-0.7,0.1c-0.3-0.1-0.7-0.4-1-0.7
		C87.5,84.1,87.3,83.7,87.2,83.3L87.2,83.3z M87.8,83.1c0.1-0.1,0.2-0.1,0.4,0c0.2,0.1,0.4,0.2,0.5,0.4l0,0c0.2,0.2,0.3,0.4,0.3,0.6
		c0.1,0.2,0,0.4,0,0.4c-0.1,0.1-0.2,0.1-0.4,0.1c-0.2-0.1-0.4-0.2-0.5-0.4c-0.2-0.2-0.3-0.4-0.3-0.6C87.7,83.3,87.8,83.2,87.8,83.1
		L87.8,83.1z M87.9,83.5c0-0.2,0-0.3,0.1-0.4c0.1-0.1,0.2-0.1,0.4,0c0.2,0.1,0.3,0.2,0.5,0.3c0.1,0.1,0.2,0.3,0.3,0.5
		c0.1,0.2,0,0.3,0,0.4l0,0c-0.1,0.1-0.2,0.1-0.4,0.1c-0.2-0.1-0.3-0.2-0.5-0.3C88,83.9,87.9,83.7,87.9,83.5L87.9,83.5z M88.4,83.7
		C88.4,83.7,88.4,83.7,88.4,83.7C88.4,83.7,88.4,83.7,88.4,83.7C88.4,83.8,88.5,83.8,88.4,83.7C88.5,83.8,88.5,83.8,88.4,83.7
		C88.5,83.8,88.5,83.8,88.4,83.7C88.5,83.8,88.5,83.8,88.4,83.7C88.5,83.7,88.5,83.7,88.4,83.7C88.5,83.7,88.4,83.7,88.4,83.7
		C88.4,83.7,88.4,83.7,88.4,83.7L88.4,83.7z M86.3,81.4c0.1,0.3,0.3,0.6,0.5,0.9c0.3,0.3,0.6,0.5,0.9,0.6l0,0c0,0,0,0,0,0
		c0.3,0.1,0.6,0.1,0.7-0.1c0.1-0.1,0.2-0.4,0.1-0.7c-0.1-0.3-0.3-0.6-0.6-0.9c-0.3-0.3-0.6-0.5-0.9-0.6c0,0,0,0,0,0c0,0,0,0,0,0
		c-0.3-0.1-0.5-0.1-0.7,0C86.3,80.8,86.2,81,86.3,81.4L86.3,81.4C86.3,81.3,86.3,81.3,86.3,81.4L86.3,81.4
		C86.3,81.3,86.3,81.3,86.3,81.4C86.3,81.4,86.3,81.4,86.3,81.4L86.3,81.4z M86.9,81.2c-0.1,0.1-0.1,0.2-0.1,0.3c0,0,0,0,0,0
		c0,0,0,0,0,0c0,0.2,0.2,0.3,0.3,0.5c0.1,0.2,0.3,0.3,0.5,0.4c0,0,0,0,0,0c0.2,0.1,0.3,0,0.4,0c0.1-0.1,0.1-0.2,0.1-0.4
		c0-0.2-0.2-0.3-0.3-0.5c-0.1-0.1-0.3-0.3-0.5-0.3c0,0,0,0,0,0C87.1,81.1,87,81.1,86.9,81.2L86.9,81.2z M86.9,81.6
		c0-0.1,0-0.3,0.1-0.3c0.1-0.1,0.2-0.1,0.3,0c0.1,0.1,0.3,0.2,0.4,0.3c0.1,0.1,0.2,0.3,0.3,0.4c0,0,0,0,0,0c0,0,0,0,0,0
		c0,0.1,0,0.3-0.1,0.3c-0.1,0.1-0.2,0.1-0.3,0c0,0,0,0,0,0c0,0,0,0,0,0c-0.2-0.1-0.3-0.2-0.4-0.3c0,0,0,0,0,0
		C87,81.9,86.9,81.7,86.9,81.6L86.9,81.6z M87.4,81.7C87.4,81.7,87.4,81.7,87.4,81.7C87.4,81.7,87.4,81.7,87.4,81.7
		C87.5,81.8,87.5,81.8,87.4,81.7L87.4,81.7C87.5,81.8,87.5,81.8,87.4,81.7C87.5,81.8,87.5,81.8,87.4,81.7
		C87.4,81.8,87.4,81.8,87.4,81.7C87.4,81.8,87.4,81.8,87.4,81.7C87.4,81.8,87.4,81.8,87.4,81.7C87.4,81.8,87.4,81.8,87.4,81.7
		C87.4,81.7,87.4,81.7,87.4,81.7L87.4,81.7z M84.8,79.7C84.8,79.7,84.8,79.7,84.8,79.7C84.8,79.7,84.8,79.7,84.8,79.7
		c-0.1-0.3,0-0.5,0.2-0.6c0.2-0.1,0.4-0.1,0.7,0h0c0,0,0,0,0,0c0.3,0.1,0.6,0.3,0.8,0.6c0.2,0.2,0.4,0.5,0.5,0.8c0,0,0,0,0,0
		c0,0,0,0,0,0c0.1,0.3,0,0.5-0.1,0.6c-0.2,0.1-0.4,0.1-0.7,0h0c0,0,0,0,0,0c-0.3-0.1-0.7-0.4-0.9-0.6C85,80.3,84.8,80,84.8,79.7
		L84.8,79.7z M85.4,79.6c0.1-0.1,0.2-0.1,0.4,0c0,0,0,0,0,0c0.2,0.1,0.3,0.2,0.5,0.3c0.1,0.1,0.2,0.3,0.3,0.5l0,0
		c0,0.2,0,0.3-0.1,0.3c-0.1,0.1-0.2,0.1-0.4,0l0,0c-0.2-0.1-0.4-0.2-0.5-0.3c-0.1-0.1-0.2-0.3-0.3-0.5l0,0
		C85.3,79.7,85.3,79.6,85.4,79.6L85.4,79.6z M85.4,79.9c0-0.1,0-0.2,0.1-0.3c0.1,0,0.2,0,0.4,0c0.1,0.1,0.3,0.2,0.4,0.3
		c0.1,0.1,0.2,0.3,0.2,0.4c0,0,0,0,0,0l0,0c0,0.1,0,0.2-0.1,0.3c0,0,0,0,0,0c-0.1,0.1-0.2,0.1-0.4,0c0,0,0,0,0,0c0,0,0,0,0,0
		c-0.2-0.1-0.3-0.2-0.4-0.3c0,0,0,0,0,0C85.5,80.2,85.4,80,85.4,79.9L85.4,79.9z M85.9,80.1C85.9,80.1,85.9,80.1,85.9,80.1
		C85.9,80.1,85.9,80.1,85.9,80.1L85.9,80.1C85.9,80.1,85.9,80.1,85.9,80.1C85.9,80.1,85.9,80.1,85.9,80.1C86,80.2,86,80.2,85.9,80.1
		C86,80.1,86,80.1,85.9,80.1C86,80.1,86,80.1,85.9,80.1L85.9,80.1C86,80.1,86,80.1,85.9,80.1C86,80.1,85.9,80.1,85.9,80.1
		C85.9,80.1,85.9,80.1,85.9,80.1L85.9,80.1z M82.9,78.4c0,0.3,0.2,0.5,0.4,0.8c0.3,0.3,0.6,0.5,0.9,0.6c0.3,0.1,0.6,0.1,0.8,0
		c0.2-0.1,0.3-0.3,0.2-0.6c-0.1-0.3-0.2-0.5-0.5-0.8c-0.2-0.2-0.5-0.4-0.9-0.6c0,0,0,0,0,0h0c-0.3-0.1-0.6-0.1-0.8-0.1h0
		C83,78,82.9,78.2,82.9,78.4C82.9,78.4,82.9,78.4,82.9,78.4L82.9,78.4L82.9,78.4z M83.6,78.3c-0.1,0-0.2,0.1-0.1,0.3l0,0
		c0,0.1,0.1,0.3,0.3,0.5c0.1,0.1,0.3,0.3,0.5,0.3c0.2,0.1,0.3,0.1,0.4,0c0.1-0.1,0.1-0.2,0.1-0.3c0-0.1-0.1-0.3-0.3-0.4
		c-0.1-0.1-0.3-0.3-0.5-0.3l0,0C83.9,78.3,83.7,78.3,83.6,78.3C83.6,78.3,83.6,78.3,83.6,78.3L83.6,78.3z M83.5,78.7
		c0,0.1,0.1,0.3,0.2,0.4c0.1,0.1,0.3,0.2,0.4,0.3c0.2,0.1,0.3,0.1,0.4,0c0.1,0,0.1-0.1,0.1-0.3c0-0.1-0.1-0.3-0.2-0.4
		c-0.1-0.1-0.3-0.2-0.4-0.3c-0.2-0.1-0.3-0.1-0.4,0C83.6,78.4,83.5,78.5,83.5,78.7L83.5,78.7z M84.1,78.8
		C84.1,78.8,84.1,78.8,84.1,78.8C84.1,78.9,84.1,78.9,84.1,78.8C84.2,78.9,84.2,78.9,84.1,78.8C84.2,78.9,84.2,78.9,84.1,78.8
		C84.2,78.9,84.1,78.9,84.1,78.8C84.1,78.9,84.1,78.9,84.1,78.8C84.1,78.9,84.1,78.9,84.1,78.8C84.1,78.9,84.1,78.8,84.1,78.8
		L84.1,78.8z M80.9,77.7c0-0.3,0.1-0.4,0.4-0.5c0,0,0,0,0,0c0.2-0.1,0.5,0,0.9,0.1c0.3,0.1,0.6,0.4,0.9,0.6c0.2,0.2,0.4,0.5,0.4,0.8
		c0,0.3-0.1,0.5-0.3,0.6l0,0c-0.2,0.1-0.5,0.1-0.9,0c0,0,0,0,0,0c0,0,0,0,0,0c-0.4-0.1-0.7-0.4-1-0.7C81.1,78.3,80.9,78,80.9,77.7
		C80.9,77.7,80.9,77.7,80.9,77.7C80.9,77.7,80.9,77.7,80.9,77.7L80.9,77.7z M81.7,77.7C81.7,77.7,81.7,77.7,81.7,77.7
		c0.1,0,0.3,0,0.5,0c0.2,0.1,0.4,0.2,0.5,0.3c0.1,0.1,0.2,0.3,0.2,0.4c0,0.1,0,0.2-0.2,0.3c0,0,0,0,0,0c-0.1,0-0.3,0-0.5,0l0,0
		c-0.2-0.1-0.4-0.2-0.5-0.4c-0.1-0.1-0.2-0.3-0.2-0.5h0C81.5,77.8,81.6,77.7,81.7,77.7L81.7,77.7z M81.6,78c0,0.1,0.1,0.3,0.2,0.4
		c0.1,0.1,0.3,0.2,0.5,0.3c0.2,0.1,0.3,0.1,0.4,0c0.1,0,0.2-0.1,0.1-0.3c0-0.1-0.1-0.3-0.2-0.4c-0.1-0.1-0.3-0.2-0.4-0.3
		c-0.2-0.1-0.3-0.1-0.4,0C81.7,77.8,81.6,77.9,81.6,78L81.6,78z M82.2,78.2C82.2,78.2,82.2,78.2,82.2,78.2
		C82.2,78.2,82.2,78.2,82.2,78.2C82.2,78.2,82.2,78.3,82.2,78.2C82.2,78.3,82.2,78.3,82.2,78.2C82.3,78.3,82.3,78.3,82.2,78.2
		C82.3,78.2,82.3,78.2,82.2,78.2C82.2,78.2,82.2,78.2,82.2,78.2C82.2,78.2,82.2,78.2,82.2,78.2L82.2,78.2z M79,77.7
		c0,0.3,0.1,0.6,0.4,0.9c0.3,0.3,0.6,0.6,1,0.7c0,0,0,0,0,0c0,0,0,0,0,0c0.4,0.1,0.7,0.1,1,0c0,0,0,0,0,0c0.2-0.1,0.4-0.3,0.4-0.6
		c0,0,0,0,0,0l0,0c0-0.3-0.2-0.6-0.4-0.8c-0.2-0.3-0.6-0.5-0.9-0.6c-0.4-0.1-0.7-0.2-1-0.1C79.2,77.3,79,77.5,79,77.7L79,77.7z
		 M79.9,77.7c-0.1,0-0.2,0.2-0.3,0.3c0,0.2,0.1,0.3,0.2,0.5c0.1,0.2,0.3,0.3,0.6,0.4h0c0.2,0.1,0.4,0.1,0.6,0c0,0,0,0,0,0
		c0.1-0.1,0.2-0.2,0.2-0.3c0,0,0,0,0,0c0-0.2-0.1-0.3-0.2-0.5c-0.1-0.1-0.3-0.3-0.5-0.4C80.2,77.7,80,77.6,79.9,77.7L79.9,77.7z
		 M79.7,78c0,0.1,0.1,0.3,0.2,0.4c0,0,0,0,0,0c0.1,0.1,0.3,0.3,0.5,0.3c0,0,0,0,0,0c0,0,0,0,0,0c0.2,0.1,0.3,0.1,0.5,0
		c0.1,0,0.2-0.1,0.2-0.3c0,0,0,0,0,0c0,0,0,0,0,0c0-0.1-0.1-0.3-0.2-0.4c-0.1-0.1-0.3-0.2-0.5-0.3c0,0,0,0,0,0c0,0,0,0,0,0
		c-0.2-0.1-0.3-0.1-0.4,0C79.8,77.8,79.7,77.9,79.7,78C79.7,78,79.7,78,79.7,78C79.7,78,79.7,78,79.7,78L79.7,78z M80.4,78.2
		C80.4,78.2,80.4,78.2,80.4,78.2C80.4,78.2,80.4,78.2,80.4,78.2C80.4,78.2,80.4,78.3,80.4,78.2C80.5,78.3,80.5,78.3,80.4,78.2
		L80.4,78.2C80.5,78.3,80.5,78.3,80.4,78.2C80.4,78.3,80.4,78.3,80.4,78.2C80.4,78.3,80.4,78.3,80.4,78.2
		C80.4,78.3,80.4,78.3,80.4,78.2C80.4,78.3,80.4,78.3,80.4,78.2C80.4,78.3,80.4,78.3,80.4,78.2L80.4,78.2
		C80.4,78.2,80.4,78.2,80.4,78.2L80.4,78.2z M77.4,78.6L77.4,78.6C77.4,78.6,77.4,78.6,77.4,78.6c0.1-0.3,0.3-0.6,0.6-0.6
		c0.3-0.1,0.7-0.1,1.1,0.1c0,0,0,0,0,0c0,0,0,0,0,0c0.4,0.1,0.8,0.4,1,0.7c0.3,0.3,0.4,0.6,0.4,0.9c0,0,0,0,0,0c0,0,0,0,0,0
		c0,0.3-0.2,0.6-0.5,0.7c0,0,0,0,0,0c-0.3,0.1-0.7,0.1-1.2,0c-0.5-0.1-0.9-0.4-1.2-0.8C77.4,79.3,77.3,79,77.4,78.6L77.4,78.6z
		 M78.4,78.5c0.2-0.1,0.4,0,0.6,0c0,0,0,0,0,0c0.2,0.1,0.4,0.2,0.6,0.4c0.1,0.2,0.2,0.4,0.2,0.5c0,0,0,0,0,0c0,0.2-0.1,0.3-0.3,0.4
		c0,0,0,0,0,0c-0.2,0.1-0.4,0.1-0.6,0c-0.3-0.1-0.5-0.2-0.6-0.4c-0.2-0.2-0.2-0.4-0.2-0.6c0,0,0,0,0,0
		C78.1,78.7,78.2,78.6,78.4,78.5L78.4,78.5z M78.9,79.1C78.9,79.1,78.9,79.1,78.9,79.1C78.9,79.1,78.9,79.1,78.9,79.1
		C79,79.1,79,79.1,78.9,79.1C79,79.1,79,79.1,78.9,79.1C79,79.1,79,79.1,78.9,79.1C79,79.1,79,79.1,78.9,79.1c0.1,0,0.1,0,0.1,0l0,0
		C79,79.2,79,79.2,78.9,79.1C79,79.2,79,79.2,78.9,79.1L78.9,79.1C79,79.2,78.9,79.2,78.9,79.1C78.9,79.2,78.9,79.2,78.9,79.1
		C78.9,79.2,78.9,79.2,78.9,79.1C78.9,79.1,78.9,79.1,78.9,79.1L78.9,79.1z M78.2,78.9c0-0.1,0.1-0.2,0.3-0.3l0,0c0.1,0,0.3,0,0.5,0
		c0,0,0,0,0,0c0,0,0,0,0,0l0,0c0,0,0,0,0,0c0,0,0,0,0,0c0.2,0.1,0.4,0.2,0.5,0.3c0.1,0.1,0.2,0.3,0.2,0.4c0,0,0,0,0,0c0,0,0,0,0,0
		c0,0.2-0.1,0.3-0.2,0.3c-0.1,0.1-0.3,0.1-0.5,0c0,0,0,0,0,0c0,0,0,0,0,0c-0.2-0.1-0.4-0.2-0.5-0.4c0,0,0,0,0,0
		C78.3,79.2,78.2,79.1,78.2,78.9C78.2,78.9,78.2,78.9,78.2,78.9C78.2,78.9,78.2,78.9,78.2,78.9L78.2,78.9z M76.5,80.4
		c-0.1,0.4,0.1,0.8,0.4,1.2c0.3,0.4,0.8,0.7,1.3,0.8c0.5,0.1,1,0.1,1.3-0.1c0,0,0,0,0,0c0.3-0.2,0.5-0.5,0.6-0.9
		c0-0.4-0.2-0.8-0.4-1.1c-0.3-0.3-0.7-0.6-1.1-0.7c-0.5-0.2-0.9-0.2-1.3,0C76.9,79.8,76.6,80,76.5,80.4L76.5,80.4z M77.7,80.2
		c-0.2,0.1-0.3,0.2-0.4,0.4c0,0.2,0,0.4,0.2,0.6c0.2,0.2,0.4,0.4,0.7,0.4c0.3,0.1,0.5,0.1,0.7,0l0,0c0.2-0.1,0.3-0.3,0.3-0.5
		c0-0.2-0.1-0.4-0.2-0.6c-0.2-0.2-0.4-0.3-0.6-0.4C78.2,80.1,77.9,80.1,77.7,80.2L77.7,80.2z M77.5,80.7
		C77.5,80.7,77.5,80.7,77.5,80.7C77.5,80.7,77.5,80.7,77.5,80.7c0,0.2,0.1,0.4,0.2,0.6c0.1,0.2,0.4,0.3,0.6,0.4c0,0,0,0,0,0
		c0,0,0,0,0,0c0.2,0.1,0.4,0,0.6,0c0.2-0.1,0.3-0.2,0.3-0.4c0-0.2-0.1-0.4-0.2-0.5c0,0,0,0,0,0c-0.1-0.2-0.3-0.3-0.6-0.4
		c-0.2-0.1-0.4-0.1-0.6,0C77.6,80.4,77.5,80.5,77.5,80.7L77.5,80.7z M78.3,80.9C78.3,80.9,78.3,80.9,78.3,80.9
		C78.4,80.9,78.4,80.9,78.3,80.9L78.3,80.9c0.1,0,0.1,0.1,0.1,0.1C78.4,81,78.4,81,78.3,80.9C78.4,81,78.4,81,78.3,80.9
		C78.3,81,78.3,81,78.3,80.9C78.3,81,78.3,81,78.3,80.9C78.3,81,78.3,81,78.3,80.9L78.3,80.9C78.3,80.9,78.3,80.9,78.3,80.9
		L78.3,80.9z M77.8,83.2c0-0.3,0.2-0.4,0.4-0.5c0.2-0.1,0.5-0.1,0.8,0c0,0,0,0,0,0c0.3,0.1,0.5,0.2,0.7,0.5c0,0,0,0,0,0
		c0.2,0.2,0.3,0.5,0.3,0.7c0,0,0,0,0,0c0,0.3-0.1,0.5-0.3,0.6c-0.2,0.1-0.5,0.2-0.8,0.1l0,0c-0.3-0.1-0.6-0.3-0.7-0.5
		C77.9,83.7,77.8,83.4,77.8,83.2L77.8,83.2L77.8,83.2z M76.9,82.9c0.1-0.4,0.4-0.8,0.7-1c0.4-0.2,0.8-0.2,1.3-0.1c0,0,0,0,0,0l0,0
		c0.5,0.1,0.9,0.4,1.2,0.8l0,0c0.3,0.4,0.5,0.8,0.5,1.2v0c0,0,0,0,0,0c0,0.5-0.2,0.8-0.6,1.1c-0.4,0.2-0.8,0.3-1.4,0.2c0,0,0,0,0,0
		c0,0,0,0,0,0c-0.6-0.1-1.1-0.5-1.4-0.9C77,83.9,76.9,83.4,76.9,82.9C76.9,82.9,76.9,82.9,76.9,82.9C76.9,82.9,76.9,82.9,76.9,82.9
		L76.9,82.9z M78,83.2c0,0.2,0.1,0.5,0.2,0.7c0.2,0.2,0.4,0.4,0.6,0.4c0.3,0.1,0.5,0,0.7-0.1c0.2-0.1,0.3-0.3,0.3-0.5
		c0-0.2-0.1-0.4-0.2-0.6c-0.1-0.2-0.4-0.3-0.6-0.4c-0.2-0.1-0.5,0-0.7,0C78.1,82.8,78,83,78,83.2L78,83.2z M78.8,83.4
		C78.8,83.4,78.8,83.4,78.8,83.4C78.8,83.4,78.8,83.5,78.8,83.4c0,0.1,0,0.1,0,0.1c0,0,0,0,0.1,0c0,0,0,0,0,0
		C79,83.4,78.9,83.4,78.8,83.4C78.9,83.4,78.9,83.4,78.8,83.4C78.9,83.4,78.9,83.4,78.8,83.4L78.8,83.4z M78.8,85.6l3.8,0.9
		c0,0,0,0,0,0c0,0,0,0,0,0c0-0.5-0.2-1-0.6-1.4c-0.3-0.4-0.8-0.7-1.3-0.8c0,0,0,0,0,0c0,0,0,0,0,0c-0.5-0.1-0.9-0.1-1.3,0.2
		C79.1,84.6,78.8,85,78.8,85.6L78.8,85.6z M80,85.1c-0.2,0.1-0.3,0.4-0.3,0.7c0,0,0,0,0,0c0,0.3,0.1,0.6,0.3,0.9h0
		c0.2,0.3,0.5,0.4,0.8,0.5c0,0,0,0,0,0l0,0c0,0,0,0,0,0c0.3,0.1,0.6,0,0.8-0.2c0,0,0,0,0,0c0.2-0.2,0.3-0.4,0.3-0.7c0,0,0,0,0,0
		c0-0.3-0.1-0.6-0.3-0.8c-0.2-0.2-0.4-0.4-0.7-0.5c0,0,0,0,0,0C80.5,85,80.2,85,80,85.1L80,85.1z M82.6,86.5
		C82.6,86.5,82.6,86.5,82.6,86.5L82.6,86.5C82.6,86.5,82.6,86.5,82.6,86.5c0,0.5-0.2,1-0.5,1.3c0,0,0,0,0,0
		c-0.3,0.3-0.8,0.4-1.4,0.3c0,0,0,0,0,0c0,0,0,0,0,0c-0.6-0.1-1.1-0.5-1.4-1c0,0,0,0,0,0c-0.3-0.5-0.5-1-0.5-1.5c0,0,0,0,0,0
		c0,0,0,0,0,0L82.6,86.5L82.6,86.5z M79.8,85.8c0,0.3,0.1,0.5,0.3,0.7c0.2,0.2,0.4,0.4,0.7,0.4c0.3,0.1,0.5,0,0.7-0.1
		c0.2-0.1,0.3-0.3,0.3-0.6c0-0.2-0.1-0.5-0.3-0.7c-0.2-0.2-0.4-0.4-0.6-0.4c-0.2-0.1-0.5,0-0.6,0.1c0,0,0,0,0,0
		C79.9,85.4,79.8,85.6,79.8,85.8L79.8,85.8z M80.7,86L80.7,86C80.7,86,80.7,86,80.7,86C80.8,86,80.8,86,80.7,86
		c0.1,0,0.1,0.1,0.1,0.1c0,0,0,0,0,0c0,0,0,0-0.1,0C80.7,86.1,80.7,86.1,80.7,86C80.7,86.1,80.7,86,80.7,86C80.7,86,80.7,86,80.7,86
		L80.7,86z M81.6,87.5c0,0.6,0.2,1.1,0.6,1.6c0.4,0.5,0.9,0.8,1.4,1c0,0,0,0,0,0c0,0,0,0,0,0c0.5,0.1,0.9-0.1,1.2-0.4
		c0.3-0.3,0.4-0.8,0.3-1.4c0,0,0,0,0,0c0,0,0,0,0,0c-0.1-0.5-0.3-1-0.6-1.4c-0.3-0.4-0.8-0.7-1.2-0.8c0,0,0,0,0,0h0
		c-0.5-0.1-0.9,0-1.2,0.2C81.8,86.4,81.6,86.9,81.6,87.5C81.6,87.4,81.6,87.4,81.6,87.5C81.6,87.4,81.6,87.4,81.6,87.5L81.6,87.5
		C81.6,87.4,81.6,87.5,81.6,87.5C81.6,87.5,81.6,87.5,81.6,87.5L81.6,87.5z M82.7,86.9c-0.2,0.1-0.3,0.4-0.3,0.7c0,0,0,0,0,0
		c0,0,0,0,0,0c0,0.3,0.1,0.6,0.3,0.9c0.2,0.3,0.5,0.5,0.8,0.5l0,0c0.3,0.1,0.5,0,0.7-0.2c0.2-0.2,0.2-0.4,0.2-0.7c0,0,0,0,0,0
		c0-0.3-0.2-0.6-0.4-0.8c-0.2-0.2-0.4-0.4-0.7-0.5c0,0,0,0,0,0C83.1,86.7,82.9,86.8,82.7,86.9L82.7,86.9z M82.6,87.7
		c0,0.3,0.1,0.5,0.3,0.7c0.2,0.2,0.4,0.4,0.7,0.4c0.2,0,0.5,0,0.6-0.2c0.1-0.2,0.2-0.4,0.2-0.7c0-0.3-0.1-0.5-0.3-0.7
		c-0.2-0.2-0.4-0.4-0.6-0.4c0,0,0,0,0,0c0,0,0,0,0,0c-0.2,0-0.4,0-0.6,0.1C82.6,87.2,82.6,87.4,82.6,87.7
		C82.6,87.7,82.6,87.7,82.6,87.7C82.6,87.7,82.6,87.7,82.6,87.7L82.6,87.7z M83.4,87.8C83.4,87.8,83.4,87.8,83.4,87.8
		C83.4,87.8,83.4,87.8,83.4,87.8C83.5,87.8,83.5,87.8,83.4,87.8c0.1,0,0.1,0.1,0.1,0.1c0,0,0,0,0,0c0,0,0,0,0,0c0,0,0,0,0,0
		C83.4,87.9,83.4,87.9,83.4,87.8L83.4,87.8C83.4,87.8,83.4,87.8,83.4,87.8L83.4,87.8z M86.5,87.1c0.1,0.5,0.3,1,0.7,1.4
		c0.4,0.4,0.8,0.7,1.2,0.8c0,0,0,0,0,0l0,0c0.4,0.1,0.7,0,0.9-0.3c0.2-0.3,0.2-0.7,0.1-1.2c0,0,0,0,0,0c0,0,0,0,0,0
		c-0.1-0.5-0.4-0.9-0.7-1.2c-0.3-0.4-0.7-0.6-1.1-0.7c0,0,0,0,0,0l0,0c-0.4-0.1-0.7,0-0.9,0.2C86.5,86.2,86.4,86.6,86.5,87.1
		C86.5,87.1,86.5,87.1,86.5,87.1C86.5,87.1,86.5,87.1,86.5,87.1L86.5,87.1z M87.2,86.6c-0.1,0.1-0.2,0.3-0.1,0.6c0,0,0,0,0,0
		c0.1,0.3,0.2,0.5,0.4,0.8c0.2,0.2,0.4,0.4,0.7,0.4l0,0c0.2,0.1,0.4,0,0.5-0.2c0.1-0.1,0.1-0.4,0.1-0.6c0,0,0,0,0,0
		c-0.1-0.3-0.2-0.5-0.4-0.7c-0.2-0.2-0.4-0.4-0.6-0.4l0,0C87.5,86.5,87.4,86.5,87.2,86.6L87.2,86.6z M87.9,87.4
		C87.9,87.4,87.9,87.4,87.9,87.4C87.9,87.4,87.9,87.4,87.9,87.4L87.9,87.4C88,87.4,88,87.4,87.9,87.4c0.1,0,0.1,0,0.1,0l0,0
		C88,87.5,88,87.5,87.9,87.4C88,87.5,88,87.5,87.9,87.4C88,87.5,88,87.5,87.9,87.4C88,87.5,87.9,87.5,87.9,87.4
		C87.9,87.5,87.9,87.5,87.9,87.4C87.9,87.4,87.9,87.4,87.9,87.4L87.9,87.4z M87.2,87.2C87.2,87.2,87.2,87.2,87.2,87.2
		C87.3,87.3,87.3,87.3,87.2,87.2c0.1,0.3,0.2,0.5,0.3,0.7c0.2,0.2,0.4,0.3,0.5,0.4c0,0,0,0,0,0c0,0,0,0,0,0c0.2,0,0.3,0,0.4-0.1
		c0.1-0.1,0.1-0.3,0.1-0.6c0,0,0,0,0,0c0,0,0,0,0,0c-0.1-0.2-0.2-0.4-0.3-0.6c-0.2-0.2-0.3-0.3-0.5-0.4c0,0,0,0,0,0c0,0,0,0,0,0
		c-0.2-0.1-0.3,0-0.4,0.1C87.2,86.8,87.2,87,87.2,87.2z"/>
</g>
<linearGradient id="SVGID_1_" gradientUnits="userSpaceOnUse" x1="132.2753" y1="147.6697" x2="132.2753" y2="-52.9434">
	<stop  offset="0" style="stop-color:#000000"/>
	<stop  offset="1" style="stop-color:#3E3E40"/>
</linearGradient>
<polygon class="st1" points="181.1,50.3 83.5,84 165.5,10.7 154.7,43.9 "/>
<rect x="43.9" y="150.6" class="st2" width="113.6" height="30.1"/>
<text transform="matrix(1 0 0 1 43.853 174.6214)" class="st3 st4 st5">ゲーム</text>
<text transform="matrix(1.2827 0 0 1 136.8396 174.4687)" class="st0 st6 st7">z</text>
</svg>
