<?xml version="1.0" encoding="utf-8"?>
<!-- Generator: Adobe Illustrator 20.1.0, SVG Export Plug-In . SVG Version: 6.00 Build 0)  -->
<svg version="1.1" id="Lager_1" xmlns="http://www.w3.org/2000/svg" xmlns:xlink="http://www.w3.org/1999/xlink" x="0px" y="0px"
	 viewBox="0 0 200 200" style="enable-background:new 0 0 200 200;" xml:space="preserve">
<style type="text/css">
	.st0{fill:#63C2D0;}
	.st1{font-family:'Tahoma-Bold';}
	.st2{font-size:25.9861px;}
	.st3{letter-spacing:-1.6;}
	.st4{fill-rule:evenodd;clip-rule:evenodd;fill:#6F6F6E;}
	.st5{fill-rule:evenodd;clip-rule:evenodd;fill:#868686;}
	.st6{fill-rule:evenodd;clip-rule:evenodd;fill:#5CACC6;}
	.st7{fill-rule:evenodd;clip-rule:evenodd;fill:#63C2D0;}
</style>
<text transform="matrix(1.2274 0 0 1 35.8649 175.118)"><tspan x="0" y="0" class="st0 st1 st2 st3">s</tspan><tspan x="11.6" y="0" class="st0 st1 st2 st3">hiGOT</tspan><tspan x="82.2" y="0" class="st0 st1 st2">O</tspan></text>
<polygon class="st4" points="61.7,68.7 78.9,65.4 80.8,65.1 82.6,65.1 84.3,65.2 85.8,65.5 87.2,66 88.5,66.7 89.7,67.5 90.8,68.4 
	91.9,69.3 92.9,70.4 93.9,71.4 94.8,72.5 95.8,73.7 96.8,74.7 97.7,75.8 98.7,76.8 99.8,77.7 100.9,78.6 102.1,79.3 103.3,79.9 
	104.7,80.3 106.2,80.5 107.8,80.6 109.5,80.4 111.4,80 113.4,79.4 115.7,78.4 118.1,77.2 119.4,76.5 120.6,75.9 121.9,75.4 
	123.3,75 124.6,74.6 125.9,74.2 127.3,74 128.7,73.8 130,73.6 131.4,73.5 132.7,73.5 134.1,73.5 135.5,73.6 136.8,73.8 138.1,74 
	139.5,74.3 140.8,74.6 142,75 143.3,75.4 144.6,75.9 145.8,76.5 147,77.1 148.1,77.7 149.3,78.5 150.3,79.2 151.4,80 152.4,80.9 
	153.4,81.8 154.3,82.8 155.2,83.8 156,84.9 156.8,86 157.5,87.2 158.2,88.3 158.7,89.5 159.2,90.7 159.7,92 162.7,101.9 
	162.1,100.4 161.5,98.9 160.8,97.4 160,95.9 159.1,94.5 158.1,93.1 157.1,91.7 156,90.5 154.8,89.2 153.6,88.1 152.3,87 151,86 
	149.7,85 148.2,84.1 146.8,83.3 145.3,82.5 143.8,81.9 142.2,81.2 140.6,80.7 139,80.2 137.4,79.8 135.8,79.5 134.1,79.2 132.4,79 
	130.7,78.9 129,78.8 127.3,78.9 125.6,79 123.9,79.2 122.2,79.4 120.5,79.7 118.8,80.2 117.2,80.7 115.5,81.2 113.9,81.9 
	112.3,82.6 110.7,83.4 107.7,85 104.9,86.1 102.3,87 100,87.5 97.8,87.7 95.8,87.6 93.9,87.3 92.2,86.8 90.7,86.1 89.2,85.2 
	87.8,84.1 86.5,83 85.2,81.7 84,80.4 82.8,79 81.7,77.6 80.5,76.2 79.2,74.9 78,73.6 76.6,72.4 75.2,71.3 73.7,70.3 72.1,69.5 
	70.3,68.9 68.4,68.5 66.4,68.3 64.1,68.3 "/>
<polygon class="st4" points="61.7,68.7 78.9,65.4 80.8,65.1 82.6,65.1 84.3,65.2 85.8,65.5 87.2,66 88.5,66.7 89.7,67.5 90.8,68.4 
	91.9,69.3 92.9,70.4 93.9,71.4 94.8,72.5 95.8,73.7 96.8,74.7 97.7,75.8 98.7,76.8 99.8,77.7 100.9,78.6 102.1,79.3 103.3,79.9 
	104.7,80.3 106.2,80.5 107.8,80.6 109.5,80.4 111.4,80 113.4,79.4 115.7,78.4 118.1,77.2 119.4,76.5 120.6,75.9 121.9,75.4 
	123.3,75 124.6,74.6 125.9,74.2 127.3,74 128.7,73.8 130,73.6 131.4,73.5 132.7,73.5 134.1,73.5 135.5,73.6 136.8,73.8 138.1,74 
	139.5,74.3 140.8,74.6 142,75 143.3,75.4 144.6,75.9 145.8,76.5 147,77.1 148.1,77.7 149.3,78.5 150.3,79.2 151.4,80 152.4,80.9 
	153.4,81.8 154.3,82.8 155.2,83.8 156,84.9 156.8,86 157.5,87.2 158.2,88.3 158.7,89.5 159.2,90.7 159.7,92 162.7,101.9 
	162.1,100.4 161.5,98.9 160.8,97.4 160,95.9 159.1,94.5 158.1,93.1 157.1,91.7 156,90.5 154.8,89.2 153.6,88.1 152.3,87 151,86 
	149.7,85 148.2,84.1 146.8,83.3 145.3,82.5 143.8,81.9 142.2,81.2 140.6,80.7 139,80.2 137.4,79.8 135.8,79.5 134.1,79.2 132.4,79 
	130.7,78.9 129,78.8 127.3,78.9 125.6,79 123.9,79.2 122.2,79.4 120.5,79.7 118.8,80.2 117.2,80.7 115.5,81.2 113.9,81.9 
	112.3,82.6 110.7,83.4 107.7,85 104.9,86.1 102.3,87 100,87.5 97.8,87.7 95.8,87.6 93.9,87.3 92.2,86.8 90.7,86.1 89.2,85.2 
	87.8,84.1 86.5,83 85.2,81.7 84,80.4 82.8,79 81.7,77.6 80.5,76.2 79.2,74.9 78,73.6 76.6,72.4 75.2,71.3 73.7,70.3 72.1,69.5 
	70.3,68.9 68.4,68.5 66.4,68.3 64.1,68.3 "/>
<polygon class="st5" points="144.2,111.8 144.9,99.9 144.8,100.4 144.7,100.9 144.6,101.5 144.5,102 144.4,102.5 144.2,103 
	144,103.5 143.7,104 143.5,104.5 143.2,105 142.9,105.4 142.5,105.9 142.2,106.3 141.8,106.7 141.4,107.2 140.9,107.5 140.5,107.9 
	140,108.3 139.5,108.6 138.9,108.9 138.4,109.2 137.8,109.4 137.3,109.7 136.7,109.9 136.1,110 135.5,110.2 134.9,110.3 
	134.3,110.4 133.8,110.4 133.2,110.5 132.6,110.5 132,110.5 131.4,110.4 130.8,110.4 130.2,110.3 129.7,110.2 129.1,110 
	128.5,109.9 128,109.7 127.4,109.4 126.9,109.2 126.4,108.9 125.9,108.7 125.4,108.3 124.9,108 124.5,107.7 124,107.3 123.6,106.9 
	123.2,106.5 122.8,106 122.4,105.5 122.1,105.1 121.8,104.6 121.5,104 121.3,103.5 121.1,103 120.9,102.5 120.7,101.9 120.6,101.4 
	120.5,100.9 120.4,100.3 120.4,99.8 120.4,99.2 120.4,98.7 120.4,98.2 120.5,97.6 120.6,97.1 120.7,96.6 120.9,96.1 121.1,95.5 
	121.3,95 121.5,94.5 121.8,94.1 122.1,93.6 115.7,103.9 115.3,104.5 115,105.1 114.7,105.8 114.4,106.4 114.2,107 114,107.7 
	113.8,108.3 113.7,109 113.6,109.7 113.6,110.3 113.5,111 113.6,111.7 113.6,112.4 113.7,113 113.8,113.7 114,114.4 114.2,115 
	114.4,115.7 114.7,116.4 115,117 115.3,117.6 115.7,118.3 116.2,118.9 116.6,119.5 117.1,120 117.6,120.5 118.1,121 118.7,121.5 
	119.2,122 119.8,122.4 120.4,122.8 121.1,123.1 121.7,123.5 122.4,123.8 123.1,124 123.8,124.3 124.5,124.5 125.2,124.7 
	125.9,124.8 126.6,124.9 127.3,125 128.1,125.1 128.8,125.1 129.5,125.1 130.3,125 131,124.9 131.8,124.8 132.5,124.7 133.2,124.5 
	134,124.3 134.7,124 135.4,123.7 136.1,123.4 136.8,123.1 137.4,122.7 138.1,122.3 138.7,121.8 139.2,121.4 139.8,120.9 
	140.3,120.4 140.8,119.9 141.3,119.3 141.7,118.8 142.1,118.2 142.4,117.6 142.8,117 143.1,116.4 143.3,115.7 143.5,115.1 
	143.7,114.5 143.9,113.8 144,113.1 144.1,112.5 "/>
<polygon class="st5" points="144.2,111.8 144.9,99.9 144.8,100.4 144.7,100.9 144.6,101.5 144.5,102 144.4,102.5 144.2,103 
	144,103.5 143.7,104 143.5,104.5 143.2,105 142.9,105.4 142.5,105.9 142.2,106.3 141.8,106.7 141.4,107.2 140.9,107.5 140.5,107.9 
	140,108.3 139.5,108.6 138.9,108.9 138.4,109.2 137.8,109.4 137.3,109.7 136.7,109.9 136.1,110 135.5,110.2 134.9,110.3 
	134.3,110.4 133.8,110.4 133.2,110.5 132.6,110.5 132,110.5 131.4,110.4 130.8,110.4 130.2,110.3 129.7,110.2 129.1,110 
	128.5,109.9 128,109.7 127.4,109.4 126.9,109.2 126.4,108.9 125.9,108.7 125.4,108.3 124.9,108 124.5,107.7 124,107.3 123.6,106.9 
	123.2,106.5 122.8,106 122.4,105.5 122.1,105.1 121.8,104.6 121.5,104 121.3,103.5 121.1,103 120.9,102.5 120.7,101.9 120.6,101.4 
	120.5,100.9 120.4,100.3 120.4,99.8 120.4,99.2 120.4,98.7 120.4,98.2 120.5,97.6 120.6,97.1 120.7,96.6 120.9,96.1 121.1,95.5 
	121.3,95 121.5,94.5 121.8,94.1 122.1,93.6 115.7,103.9 115.3,104.5 115,105.1 114.7,105.8 114.4,106.4 114.2,107 114,107.7 
	113.8,108.3 113.7,109 113.6,109.7 113.6,110.3 113.5,111 113.6,111.7 113.6,112.4 113.7,113 113.8,113.7 114,114.4 114.2,115 
	114.4,115.7 114.7,116.4 115,117 115.3,117.6 115.7,118.3 116.2,118.9 116.6,119.5 117.1,120 117.6,120.5 118.1,121 118.7,121.5 
	119.2,122 119.8,122.4 120.4,122.8 121.1,123.1 121.7,123.5 122.4,123.8 123.1,124 123.8,124.3 124.5,124.5 125.2,124.7 
	125.9,124.8 126.6,124.9 127.3,125 128.1,125.1 128.8,125.1 129.5,125.1 130.3,125 131,124.9 131.8,124.8 132.5,124.7 133.2,124.5 
	134,124.3 134.7,124 135.4,123.7 136.1,123.4 136.8,123.1 137.4,122.7 138.1,122.3 138.7,121.8 139.2,121.4 139.8,120.9 
	140.3,120.4 140.8,119.9 141.3,119.3 141.7,118.8 142.1,118.2 142.4,117.6 142.8,117 143.1,116.4 143.3,115.7 143.5,115.1 
	143.7,114.5 143.9,113.8 144,113.1 144.1,112.5 "/>
<path class="st6" d="M128.9,78.8c12,0,23.6,5.6,30.2,15.6c10,15.3,4.6,35.1-12.1,44.2c-5.7,3.1-12,4.6-18.2,4.6v-18.2
	c2.7,0,5.4-0.6,7.9-2c7.3-4,9.6-12.6,5.2-19.2c-2.9-4.4-7.9-6.8-13.1-6.8V78.8z M110.7,83.4c5.7-3.1,12-4.6,18.2-4.6v18.2
	c-2.7,0-5.4,0.6-7.9,2c-7.3,4-9.6,12.6-5.2,19.2c2.9,4.4,7.9,6.8,13.1,6.8v18.2c-12,0-23.6-5.6-30.2-15.6
	c-18-27.4-38.9,11.7-58.7-18.5c-8.1-12.3-3.7-28.3,9.7-35.7C87.3,52.8,77,101.9,110.7,83.4z"/>
<path class="st6" d="M128.9,78.8c12,0,23.6,5.6,30.2,15.6c10,15.3,4.6,35.1-12.1,44.2c-5.7,3.1-12,4.6-18.2,4.6v-18.2
	c2.7,0,5.4-0.6,7.9-2c7.3-4,9.6-12.6,5.2-19.2c-2.9-4.4-7.9-6.8-13.1-6.8V78.8z M110.7,83.4c5.7-3.1,12-4.6,18.2-4.6v18.2
	c-2.7,0-5.4,0.6-7.9,2c-7.3,4-9.6,12.6-5.2,19.2c2.9,4.4,7.9,6.8,13.1,6.8v18.2c-12,0-23.6-5.6-30.2-15.6
	c-18-27.4-38.9,11.7-58.7-18.5c-8.1-12.3-3.7-28.3,9.7-35.7C87.3,52.8,77,101.9,110.7,83.4z"/>
<path class="st4" d="M112.6,17.4c12.6-5.3,27.6-0.3,33.4,11.3c5.8,11.6,0.3,25.2-12.3,30.6C121,64.6,106,59.5,100.2,48
	C94.4,36.4,99.9,22.7,112.6,17.4z"/>
<path class="st4" d="M112.6,17.4c12.6-5.3,27.6-0.3,33.4,11.3c5.8,11.6,0.3,25.2-12.3,30.6C121,64.6,106,59.5,100.2,48
	C94.4,36.4,99.9,22.7,112.6,17.4z"/>
<path class="st7" d="M107.5,18.8c12.6-5.3,27.6-0.3,33.4,11.3c5.8,11.6,0.3,25.2-12.3,30.6C116,65.9,101,60.9,95.2,49.3
	C89.3,37.8,94.9,24.1,107.5,18.8z"/>
<path class="st7" d="M107.5,18.8c12.6-5.3,27.6-0.3,33.4,11.3c5.8,11.6,0.3,25.2-12.3,30.6C116,65.9,101,60.9,95.2,49.3
	C89.3,37.8,94.9,24.1,107.5,18.8z"/>
</svg>
