<svg id="Lager_1" xmlns="http://www.w3.org/2000/svg" viewBox="0 0 200 200"><style>.st0{fill:#303030}</style><path class="st0" d="M55.2 172.3h-6.6l-5.4-11.7H21.4l-5.1 11.7H9.6l19.7-41.8h6.2l19.7 41.8zm-14-16.1l-8-17.8c-.3-.6-.5-1.5-.8-2.8h-.1c-.2 1.2-.5 2.1-.8 2.8l-8 17.8h17.7zM93.2 169.9c0 11-6.4 16.5-19.3 16.5-4.5 0-8.5-.7-11.9-2.1v-4.8c4.1 1.9 8.1 2.8 11.8 2.8 9 0 13.5-3.9 13.5-11.7v-3.3h-.1c-2.8 3.8-7 5.7-12.6 5.7-4.6 0-8.2-1.3-11-4-2.8-2.7-4.2-6.2-4.2-10.7 0-5.1 1.5-9.1 4.5-12.1s7.1-4.5 12.3-4.5c4.9 0 8.6 1.6 11 4.8h.1v-4.1h5.9v27.5zm-5.9-11.1v-4.4c0-2.4-1-4.4-2.9-6.1-2-1.7-4.4-2.5-7.3-2.5-3.6 0-6.5 1.1-8.5 3.2s-3.1 5.2-3.1 9c0 3.3 1 6 2.9 8 2 2 4.6 3 7.8 3 3.3 0 6-1 8-2.9 2.1-1.9 3.1-4.3 3.1-7.3zM131.2 172.3h-5.9v-4.7h-.1c-2.5 3.6-6.3 5.4-11.3 5.4-3.6 0-6.5-.8-8.6-2.4-2.1-1.6-3.1-3.7-3.1-6.3 0-5.6 4-8.8 12.1-9.7l11-1.3c0-5.1-2.5-7.6-7.5-7.6-4.4 0-8.4 1.2-11.9 3.7v-4.9c3.6-1.9 7.7-2.8 12.4-2.8 8.6 0 12.9 3.7 12.9 11.1v19.5zm-5.8-15.1l-8.8 1c-2.7.3-4.8.9-6.1 1.6-1.4.8-2.1 2.2-2.1 4.2 0 1.5.6 2.6 1.9 3.6 1.3.9 3 1.4 5.1 1.4 2.9 0 5.3-.8 7.2-2.5 1.9-1.7 2.8-3.8 2.8-6.3v-3zM145.3 134.9c-1 0-1.9-.3-2.7-.9-.7-.6-1.1-1.3-1.1-2.2s.4-1.6 1.1-2.2c.7-.6 1.6-.9 2.7-.9s2 .3 2.7.9c.8.6 1.1 1.3 1.1 2.2 0 .9-.4 1.6-1.1 2.2s-1.6.9-2.7.9zm2.9 37.4h-5.9v-29.9h5.9v29.9zM190.4 172.3h-5.9v-17c0-6.3-2.8-9.5-8.5-9.5-2.9 0-5.4.9-7.3 2.7s-2.9 4.1-2.9 6.8v17H160v-29.9h5.9v5h.1c2.8-3.8 6.8-5.7 12-5.7 4 0 7.1 1.1 9.2 3.2s3.2 5.2 3.2 9.1v18.3z"/><path d="M135.3 55.5s-1.3 3.8-2.2 8.9c-12.7-23.5-36.3-43.6-36.3-43.6s5.8 17-3.3 23c-5.8 3.8-13.9 11.8-19.4 22.4-1-6-2.6-10.8-2.6-10.8C71.4 69.5 54 80.8 54 80.8c.1 20.7 16.6 23.8 20.2 30.1 3.6 6.3 0 10.3 0 10.3l8.1-8.2c7.6 5.3 17 8.2 24.8 8.2 6.5 0 13.1-2.9 18.7-7.2l7 7.2s-3.5-4 0-10.3c3.5-6.3 19.6-9.4 19.8-30.1-.1 0-17.2-11.3-17.3-25.3z" fill="#ffb000" stroke="#ff6d00" stroke-miterlimit="10"/><path d="M64.8 81.8c-2 5.8-3.2 15.6 7.9 21.1.2.1.4-.1.3-.3-.6-1.3-1.7-4.2 0-6.5.1-.2.4-.1.4.1.8 2.6 5.9 16.2 22.7 16.1.2 0 .3-.3.2-.4C93 109 74.4 92.1 89 71.3c.2-.2 11.1-13.5 11.9-20.9 0-.3-.3-.4-.5-.1-.9 2-3 5.4-8.7 9.1 0 0-12.3 6.4-16.6 14.7-4.7 9-11.4 14.5-9.9 7.8.2-.3-.3-.4-.4-.1z" fill="#ff6d00"/></svg>