<?xml version="1.0" encoding="utf-8"?>
<!-- Generator: Adobe Illustrator 16.0.0, SVG Export Plug-In . SVG Version: 6.00 Build 0)  -->
<!DOCTYPE svg PUBLIC "-//W3C//DTD SVG 1.1//EN" "http://www.w3.org/Graphics/SVG/1.1/DTD/svg11.dtd">
<svg version="1.1" id="Lager_1" xmlns="http://www.w3.org/2000/svg" xmlns:xlink="http://www.w3.org/1999/xlink" x="0px" y="0px"
	 width="400px" height="400px" viewBox="0 0 400 400" enable-background="new 0 0 400 400" xml:space="preserve">
<g>
	<path fill="#3A3A3A" d="M200,29c-94.441,0-171,76.559-171,171c0,94.439,76.559,171,171,171c94.439,0,171-76.561,171-171
		C371,105.559,294.44,29,200,29z M299.805,202.363c-6.894,6.92-13.711,13.932-20.188,21.236c-1.678,1.896-1.973,0.355-2.54-0.246
		c-7.265-7.676-15.224-14.654-22.134-22.709c-5.024-5.857-11.536-11.021-17.004-16.5c-6.882-6.9-13.938-13.806-21.938-21.336
		c0,2.318,0,3.723,0,5.126c0,43.249,0.621,86.497,0.776,129.745c0.015,3.668-0.719,4.311-4.051,4.213
		c-8.217-0.242-16.284-0.248-24.501,0c-3.477,0.104-4.964-0.652-4.95-4.418c0.152-43.115-0.274-86.231-0.274-129.348
		c0-1.439,0-2.878,0-4.504c-2,0.263-1.592,1.346-2.359,2.109c-11.09,11.048-22.225,21.844-32.893,33.286
		c-7.397,7.935-15.111,15.421-22.539,23.307c-1.768,1.877-2.468,2.418-4.695,0.032c-6.303-6.75-12.842-13.26-19.112-20.055
		c-1.583-1.716-2.221-2.593-0.172-4.632c32.441-32.284,64.807-64.653,97.105-97.082c1.891-1.898,2.827-1.753,4.624,0.05
		c32.215,32.323,64.481,64.596,96.815,96.802C301.732,199.391,301.775,200.382,299.805,202.363z"/>
</g>
</svg>
