<svg xmlns="http://www.w3.org/2000/svg" width="1822" height="780"><g fill-rule="evenodd" clip-rule="evenodd"><path fill="#3A3A3A" d="M0 780.384V150.156c2.083-3.105 5.528-4.78 8.32-6.93 4.092-3.152 4.888-6.988 5.155-11.351.396-6.481 2.473-12.654 3.246-19.064.261-2.16 1.11-4.293 3.74-4.336 2.628-.043 3.433 2.107 3.935 4.208 2.716 11.393 4.59 22.935 6.133 34.536.162 1.214.188 2.454.745 3.577.803 1.619 2.157 2.255 3.898 1.96 1.667-.283 2.229-1.539 2.37-3.039.28-2.97.091-5.95.173-8.925.182-6.578 1.381-7.99 7.854-8.622 3.909-.383 7.506-2.534 11.797-1.049 4.404 1.524 6.7 3.877 6.854 8.635.234 7.222 1.294 7.999 8.565 6.81 5.613-.918 11.147-1.721 15.797 2.419-.716-4.162-.742-8.355 1.245-12.456 2.487-5.134 1.286-10.686 1.406-16.061.195-8.757 1.649-11.361 8.387-13.84 6.235-2.296 16.991-.078 20.589 4.246 1.431 1.72 1.715 3.771 1.75 5.912.08 4.904.105 9.808.014 14.707-.054 2.903.995 4.28 4.004 3.915 1.038-.125 2.099-.067 3.149-.03 6.304.226 6.164.131 9.764-5.05 1.861-2.68 4.549-4.701 6.625-7.303 1.793-2.245 4.231-.929 5.705 1.16 4.192 5.942 9.996 6.654 16.638 5.79 6.426-.835 12.946-.247 19.299.717 3.269.495 6.594.52 9.829 1.252 1.42.322 2.851.193 3.705-1.247 2.119-3.572 5.556-3.824 9.17-3.785 3.672.039 7.326-.85 10.896-1 6.587-.276 13.663-.767 18.861 4.896 1.348 1.467 2.278 1.217 3.25-.36 1.391-2.258 2.161-4.771 3.118-7.214 2.751-6.581 5.694-7.611 13.62-4.798 2.523.11 4.508-1.689 7.006-1.886 5.903-.467 9.343 1.776 9.592 7.622.215 5.02 2.526 6.554 6.948 5.903 9.722-1.426 15.982 3.767 21.796 10.945 2.799-3.133 6.82-4.396 11.235-4.598 2.417-.108 3.784-1.198 4.385-3.643.833-3.385 3.419-4.634 6.708-4.742 1.221-.041 2.448-.087 3.661-.263 7.855-1.149 10.466.673 11.611 8.563.39 2.681 1.348 4.091 4.198 4.265 2.971.182 5.329-.381 5.823-3.715.773-5.226 3.629-8.552 8.637-10.111a6.102 6.102 0 0 1 1.675-.006c7.434 2.667 11.546 8.751 14.102 15.501 2.021 5.342 5.587 7.131 10.17 3.385 4.84-3.956 8.283-8.193 8.107-15.283-.139-5.618 1.804-11.321 2.781-16.993.398-2.313.837-4.805 3.742-4.904 3.085-.105 4.206 2.464 4.555 4.894 1.243 8.643 3.76 17.057 4.513 25.775.271 3.137 1.04 6.193 1.349 9.331.21 2.134 1.005 4.297 3.726 4.274 3.006-.022 2.996-2.405 3.084-4.526.13-3.147-.013-6.3.145-9.445.197-3.907 2.154-6.456 6.124-6.43 4.506.028 8.594-2.881 13.375-1.212 4.843 1.688 6.559 3.327 6.888 8.53.458 7.268 1.379 8.069 8.571 6.895 5.421-.887 10.77-1.678 15.603 2.198-.377-4.526-.16-8.873 1.808-13.184 2.171-4.754.986-10.015 1.086-15.053.2-10.068 5.4-14.95 15.463-14.263 5.395-1.463 9.229 2.169 13.576 4.144 1.783 1.394 2.51 3.315 2.64 5.492.206 3.498.13 7 .11 10.501-.019 3.308.226 6.63-.462 9.871 3.778-1.272 7.58-1.404 11.27-.021 2.286.856 3.645.956 3.775-2.014.247-5.6 5.838-7.468 8.361-11.547 1.1-1.777 3.601-.59 4.921 1.081 4.743 6.001 10.757 7.06 18.141 6.135 5.971-.748 12.264-.396 18.243.827 3.282.67 6.604.498 9.831 1.284 1.663.405 3.065-.032 4.119-1.531 2.163-3.07 5.366-3.618 8.838-3.555 3.676.069 7.383-1.071 10.874-1.01 7.211.125 15.118-.92 20.924 5.894 1.607-2.175 3.36-3.889 3.48-6.856.281-6.985 3.243-9.541 10.054-8.187 3.851.768 7.362.873 11.232.048 5.932-1.262 8.822 1.601 9.798 7.854 1.031 6.596 3.867 12.807 3.699 20.491 3.093-2.255 2.265-4.521 2.418-6.386.347-4.22 2.533-6.319 6.71-6.523 7.087-.345 14.123.211 21.22-1.88 8.489-2.501 15.647 1.533 21.474 7.579 1.567 1.625 2.416 1.991 4.192.698 1.895-1.38 4.307-1.587 6.508-1.834 3.45-.386 6.12-1.261 6.708-5.188.098-.652-.211.082.224-.461 4.226-5.28 10.374-3.339 15.62-3.503 4.182-.131 6.517 3.574 6.761 7.991.124 2.259-.093 4.655 3.282 4.932 3.47.285 6.005-.884 6.75-4.319 1.06-4.885 3.84-8.104 8.331-10.031a4.025 4.025 0 0 1 1.621-.046c6.541 4.93 13.545 9.427 14.92 18.604.524 3.497 6.186 3.788 9.884.924 5.292-4.097 7.717-9.321 7.684-16.002-.027-5.406 2.358-10.476 2.783-15.865.473-2.143 1.314-4.291 3.83-4.119 3.103.212 4.146 2.658 4.454 5.441 2.818 10.833 4.211 21.928 5.827 32.98.349 2.39.772 4.688 3.845 4.643 3.335-.052 3.165-2.662 3.257-4.932.115-2.797.016-5.599.132-8.397.11-2.613.874-5.325 3.365-6.063 4.599-1.36 9.258-3.371 14.185-2.549 6.916 1.153 8.554 3.227 8.884 10.05.281 5.782 1.287 6.688 7.637 5.75 5.411-.799 10.736-1.694 15.841 1.305.855-10.763 4.773-20.989 3.804-31.941-.448-5.067 4.43-9.078 9.964-9.431 2.616-.166 5.249.053 7.875-.154 6.363.313 11.156 4.144 12.194 9.717.788 5.04.528 10.131.42 15.195-.069 3.257 1.163 4.533 4.331 4.047.343-.053.699-.026 1.049-.024 7.517.037 7.388-.069 11.944-5.594 1.856-2.25 4.138-4.113 5.942-6.508 1.772-2.351 4.042-1.445 5.607.812 4.118 5.932 10.029 6.678 16.568 5.954 6.801-.753 13.6-.144 20.34.732 2.055.267 4.125.537 6.173.851 3.459.528 6.375.701 8.638-2.838 1.288-2.014 4.039-1.776 6.318-1.895 2.069-.109 3.5-.784 4.353-3.008 2.735-7.133 5.592-8.78 12.699-6.887 3.192.852 5.968.856 9.145-.034 5.688-1.597 8.556-.216 10.704 4.246 2.174-4.27 4.678-5.603 9.674-4.285 3.141.829 5.93 1.018 9.153.114 6.523-1.829 9.538-.062 11.812 6.58.963 2.813 2.865 3.229 5.25 3.261 5.215.069 10.002-.054 14.34 4.539 2.469 2.615 7.645.127 11.545-.297 8.645-.94 17.154-2.104 25.955-.67 5.558.904 11.099-1.089 15.443-5.017 2.709-2.45 4.59-2.659 7.534.03 3.344 3.054 7.599 5.078 7.388 10.573-.043 1.173.976 1.966 2.212 1.201 3.509-2.166 7.372-1.952 11.222-1.813 2.454.088 2.894-1.386 2.902-3.364.017-4.026.03-8.054.007-12.081-.054-9.824.522-9.571 9.648-13.103 6.037-2.338 13.001-2.187 19.066 2.156 2.737 1.957 4.011 4.188 4.066 7.396.064 3.853.032 7.704.06 11.557.017 2.479.296 4.85 1.633 7.051 2.667 4.394 3.05 9.178 2.091 14.234 4.39-4.063 9.644-3.612 14.872-3.102 1.381.135 2.729.569 4.139.657 6.703.422 7.165.031 7.501-6.563.347-6.798 6.532-11.284 13.705-9.509 2.901.718 5.742 1.358 8.722 1.565 3.987.278 5.886 2.658 6.068 6.554.131 2.801-.002 5.605.123 8.402.104 2.36-.451 5.272 3.138 5.63 3.907.389 4.507-2.491 4.982-5.382 1.08-6.548 1.924-13.131 3.122-19.663.885-4.82 2.278-9.513 3.257-14.306.445-2.179 1.301-4.191 3.926-4.165 2.761.029 4.099 2.069 4.396 4.436.858 6.76 3.175 13.245 3.481 20.117.308 6.875 7.624 13.518 14.568 13.713 2.678.075 3.848-1.22 4.065-3.695.337-3.809 2.241-6.594 5.617-8.298 1.506-.759 2.372-1.921 3.156-3.345 1.933-3.507 4.904-5.647 9.001-5.071 4.304.604 7.495 3.013 8.537 7.443.913 3.882 2.66 6.294 7.146 5.96 2.709-.202 4.015-1.057 4.402-3.957 1.057-7.905 4.388-10.144 12.58-8.949 1.911.277 3.846.187 5.765.359 2.672.242 4.92 1.436 5.519 4.095.797 3.541 3.076 4.323 6.161 4.276 1.051-.017 2.137.48 3.103.365 3.354-.402 6.038 5.124 9.077 1.835 2.521-2.726 5.956-3.409 8.564-5.811 5.258-4.839 12.174-3.485 18.024-2.074 5.241 1.266 10.281 1.337 15.459 1.37 10.085.066 10.186.119 11.633 10.245.099.684.233 1.383 1.063 1.707 1.103-.028 1.548-.995 1.455-1.772-.811-6.869 3.236-12.76 3.771-19.407.418-5.229 4.748-7.509 10.693-5.944 3.007.79 5.642.638 8.646.004 6.735-1.42 12.562.745 11.513 8.228-.373 2.649 1.585 4.449 3.208 6.089 6.979-5.471 14.838-6.35 23.067-5.02 2.616.423 5.204.658 7.816.611 3.985-.071 7.386.616 10.396 3.811 3.109 3.299 7.411.876 10.929.436 7.98-.999 15.824-1.819 23.894-.765 5.182.678 10.063-1.089 13.759-5.015 4.31-4.576 4.789-4.501 8.606.14 2.614 3.178 6.446 5.442 6.329 10.327-.024 1.056 1.183 1.201 2.042.792 3.809-1.813 7.856-1.118 12.176-1.096-.01-5.517.285-10.934-.108-16.293-.462-6.289 2.844-9.819 7.85-12.306 5.373-2.669 17.493-.54 21.842 3.635 1.636 1.57 2.055 3.581 2.104 5.749.076 3.501.091 7.004.039 10.503-.056 3.886.246 7.622 2.044 11.225 1.615 3.237 1.153 6.837.866 10.703 4.252-3.538 9.094-3.157 13.914-2.472 1.908.272 3.799.518 5.726.607 3.054.143 4.313-1.144 4.561-4.273.855-10.832 4.753-13.521 15.293-10.895.078.019.248.058.513.116 10.604 2.331 10.506 2.333 10.752 13.499.06 2.654-1.576 6.916 2.762 7.311 4.546.412 3.974-3.943 4.354-6.913 1.344-10.576 3.516-21.009 5.411-31.489a9.78 9.78 0 0 1 .594-2.011c.816-1.996 1.703-4.077 4.358-3.753 2.293.279 3.058 2.171 3.322 4.169.938 7.096 2.977 14.008 3.338 21.203.317 6.315 6.689 12.937 12.83 13.694 2.767.341 4.185-.578 4.727-3.46 1.276-6.799 7.777-14.492 14.229-17.247a5.757 5.757 0 0 1 1.62-.072c4.785 1.379 7.915 4.314 8.635 9.407.528 3.742 2.738 4.659 6.276 4.544 3.924-.127 3.764-2.604 4.071-5.312.706-6.192 4.408-8.912 10.428-7.811 1.908.349 3.827.333 5.735.527 2.647.273 4.879 1.432 5.498 4.114.727 3.139 2.51 4.357 5.558 4.298 1.224-.024 2.644.033 3.559.734 6.865 5.263 10.733-.396 15.022-4.102 4.878-4.218 9.906-4.089 12.478.587-.004 179.662-.002 460.029-.002 639.675 0 1.574-.045 3.152-.002 4.727.058 2.007-.866 2.856-2.845 2.766-1.221-.057-2.448-.004-3.676-.004-603.369 0-1206.739.001-1810.109-.022-1.884.008-3.843.479-5.652-.494z"/><path fill="#D3672F" d="M0 95.524c1.72-.523 3.447-.232 5.077-1.982 1.744-1.872 5.028-1.637 7.551-1.291 3.655.501 7.326 2.59 9.671-2.327.608-1.274 2.206-.618 3.359-.688 6.787-.408 13.615.717 20.386-.695 4.12-.858 1.153 3.751 3.78 4.67.782-1.875 2.049-3.143 4.602-2.994 8.095.473 15.513-2.371 22.946-5.12 1.73-.641 1.167-1.811 1.43-2.892.469-1.93 1.047-3.833 1.532-5.58 1.15-.131 1.326.514 1.228.932-1.36 5.764 2.176 8.263 6.808 9.206 2.76.563 2.859 1.875 2.818 3.918-.049 2.45-.336 4.961.088 7.334.376 2.104-2.168 5.792 2.496 6.008 3.564.165 7.887 1.268 8.155-4.584.043-.952.294-1.781 1.395-1.79 4.373-.039 8.893-.679 13.062.246 2.236.495 2.122 5.351 5.969 5.769 1.053-1.221.553-2.838.559-4.283.048-12.077.13-24.155-.038-36.23-.045-3.267.645-4.949 4.257-4.405 2.331.351 4.242-.073 3.969-3.18-.185-2.106 1.35-2.072 2.798-2.072 5.076 0 10.411-.962 15.143.314 3.576.962 5.663 6.019 10.464 5.733.066 1.218.187 2.433.19 3.649.02 6.651.333 13.323-.081 19.947-.399 6.39 1.235 11.881 4.939 16.999.706.975.53 2.678.545 4.046.059 5.25.063 10.502.016 15.752-.018 1.983.523 3.596 2.69 3.783 2.257.194 2.222-2.348 1.72-2.893-1.954-2.126 5.418-2.444.605-4.812 5.015-.822 9.315-4.491 14.659-2.984 7.249 2.044 14.92.969 22.117 3.005 2.901.819 3.294-.059 3.24-2.53-.097-4.375.675-8.896-.188-13.095-1.348-6.563 3.209-7.589 7.323-8.808 2.719-.807 5.763-1.948 8.446 1.414.922 1.153 4.321.388 6.589.396 8.137.029 8.139.013 8.141 8.406.001 5.076-.068 10.152.007 15.228.124 8.254-1.203 7.067 7.248 7.129.223 3.78-2.976 6.378-3.415 10.016-.209 1.729-2.32.986-3.622 1.051-1.873.094-3.122-.811-3.018-2.76.181-3.356-2.025-3.017-4.356-3.596-8.934-2.215-17.688 1.212-26.528.412-2.931-.265-4.093 1.085-4.211 3.915-.097 2.321-.56 2.66-3.526 2.069-10.679-2.129-21.402-5.156-32.534-2.261-5.968 1.553-14.708-2.719-17.365-8.046-.396-.793-.567-1.784-1.632-1.713-1.463.1-1.299 1.365-1.4 2.374-.118 1.188.21 2.987-1.161 3.197-6.527.995-5.03 5.906-5.207 10.061-.05 1.181.146 2.598-1.525 2.903-1.29.236-2.378-.234-3.295-1.189-3.797-3.953-10.111-4.266-14.988-.326 0-7.001-.762-13.721.219-20.173.94-6.183-2.661-8.709-6.492-11.517-2.025-1.484-12.685.645-14.818 1.308-6.762 2.105-4.975 7.341-5.067 11.96-.126 6.364.303 12.541-3.093 18.692-1.764 3.196-.31 8.168-.31 13.385-3.896-6.205-9.114-6.938-14.493-5.719-3.644.827-7.316.557-10.886 1.304-2.536.529-3.112-.567-3.04-2.72.047-1.398.001-2.799 0-4.198-.007-8.022.061-8.548-7.849-9.559-4.249-.544-8.583 2.058-13.132 2.115-1.185.016-.964 2.041-.973 3.231-.032 4.376-.064 8.75.001 13.124.036 2.35-.283 4.474-3.288 3.927-2.693-.491-6.716 2.167-7.721-2.763-.732-3.592-1.354-7.229-1.679-10.875-.888-9.952-3.701-19.559-5.107-29.412-.168-1.176-.108-2.808-1.727-2.772-1.637.032-1.438 1.713-1.61 2.857-1.319 8.779-2.595 17.566-3.917 26.345-.179 1.187-.324 3.254-.852 3.379-5.495 1.315-6.969 9.724-14.099 7.956C0 131.946 0 113.734 0 95.524zM912.189 116.641c3.327-.028 6.663-.242 9.974-.032 2.868.183 3.653-.961 3.483-3.629-.188-2.965-.067-5.95-.032-8.927.063-5.19 1.609-6.744 6.933-6.145 1.979.222 3.598-.262 3.244-1.888-1.467-6.73 3.972-8.789 7.616-12.103.392-.662.757-.647 1.099.041 1.017.935 1.882 2.242 3.082 2.742 4.431 1.841 4.829 5.199 5.729 9.552.889 4.301 2.914 8.5 2.437 14.531 5.64-6.84 12.028-5.544 18.062-4.374 2.804.543 3.378.181 3.287-2.396-.093-2.611-.154-5.235.015-7.838.219-3.339-1.855-8.009 4.496-8.181.614-.016 1.179-1.927 1.766-2.959 1.216-.619 1.539.406 2.04 1.106 4.283-.084 8.578.002 12.845-.308 3.23-.234 4.141.852 4.143 4.099.006 9.582.163 9.688 9.916 9.691 3.288.001 6.192 2.822 9.966.629 1.197-.696 3.839 1.904 3.811 4.639-.021 2.076-.004 4.152-.004 6.503 8.605-2.264 9.818-8.965 10.851-15.792.167-1.112-.534-2.9 1.128-3.068 8.375-.845 16.542-3.914 25.131-2.458 2.635.448 1.841 2.614 1.857 4.194.075 6.969.033 13.939.033 21.559 3.329-1.663 5.149-4.558 8.507-4.857 1.555-.14 1.046-1.98 1.067-3.111.07-3.674.104-7.352.008-11.023-.088-3.433.399-6.628 3.413-8.744 1.503-1.055 1.035-2.465 1.078-3.762.1-2.972-.196-5.972.096-8.918.641-6.463 6.674-9.228 11.812-5.559 3.339 2.384 10.573 2.679 13.915.078 3.287-2.558 6.459-1.256 9.34.013 2.261.995 2.044 3.385 1.895 6.015-.144 2.541.507 5.427.644 8.179.008.174.021.482.087.498 5.415 1.298 4.18 5.854 4.798 9.563.197 1.187 1.204.801 2.067.409.77-.348 1.689-.791 2.453-.661 5.802.98 8.548-.979 7.36-7.171-.37-1.923.537-2.649 2.6-2.854 5.743-.572 11.758 1.779 17.275-1.893 1.534-1.021 2.468 1.719 4.323 2.164 6.606 1.592 13.229.818 19.802.699 4.813-.088 6.703 1.468 6.39 6.188-.091 1.378-.873 3.488 1.307 3.98 1.819.412 4.21.943 5.545-.482 2.866-3.062 6.009-2.128 9.455-1.859 2.869.224 6.79 2.268 8.288-2.738.377-1.256 2.162-.688 3.329-.753 6.962-.389 13.967.734 20.907-.722 3.666-.768 1.884 2.89 3.366 4.488 1.348-1.75 2.815-2.899 5.271-2.791 7.91.348 15.21-2.269 22.433-5.161 1.938-.776.973-2.33 1.406-3.504.636-1.723 1.338-3.421 2.214-5.64.292 1.019.604 1.492.509 1.866-1.399 5.592 2.228 8.034 6.526 8.904 3.066.62 3.05 2.051 3.011 4.228-.045 2.448-.304 4.946.078 7.335.322 2.002-2.009 5.448 2.186 5.742 3.581.25 8.155 1.715 8.675-4.355.136-1.576.954-2.076 2.401-2.065 3.85.029 7.699.058 11.548-.007 1.88-.032 2.262.92 2.368 2.582.146 2.259 2.387 3.499 3.84 3.378 1.91-.158 1.116-2.572 1.122-4.006.065-12.076.117-24.15-.017-36.224-.032-3.131.425-5.121 4.193-4.527 2.15.34 3.862-.076 3.52-2.935-.292-2.418 1.426-2.338 3.062-2.334 4.552.012 9.1.022 13.649-.006 2.297-.015 4.476-.398 4.423 3.248-.039 2.649 2.594 1.876 4.112 1.78 3.058-.19 3.92 1.07 3.854 3.979-.16 6.996.032 13.998-.078 20.996-.101 6.22.154 12.181 5.178 16.91.831.784.384 3.009.396 4.567.036 5.249.036 10.499.004 15.749-.009 1.617.578 2.742 2.23 3.007 2.323.372 2.491-2.01 1.891-2.607-2.086-2.073 6.566-3.436-.395-5.521 5.034 1.783 7.6-3.378 12.038-2.694 8.363 1.288 16.88 1.621 25.218 3.018 3.059.512 3.717.107 3.643-2.706-.09-3.497-.002-6.999.003-10.499.006-8.343.039-8.25 7.827-11.111 1.571-.577 2.858-1.11 4.379-.242.296-.724.706-.796 1.231-.216 3.314 3.545 7.669 2.392 11.581 2.164 4.276-.249 5.307 1.256 5.137 5.285-.308 7.337.01 14.697-.136 22.044-.054 2.755.948 3.564 3.631 3.657 4.463.153 9.018-.963 13.398.786 2.139.854 1.708-.948 1.859-1.986 1.768-12.078 3.448-24.167 5.274-36.234 1.574-10.407 4.948-20.457 5.504-32.081 2.305 2.026 1.941 3.723 2.107 5.051 1.755 13.958 5.513 27.638 5.952 41.766.119 3.834 2.282 4.859 5.366 4.698 3.095-.161 4.535.698 4.215 4.066-.422 4.443.653 6.073 6.105 5.29 3.858-.555 8.455.569 12.71 1.025 4.952.53 6.078-1.519 5.565-5.878-.285-2.415.035-4.896-.047-7.341-.15-4.394 3.063-6.404 6.208-5.692 4.096.928 4.603-.894 3.993-3.541-1.481-6.438 5.061-6.581 7.458-9.927.718-1 9.729 5.598 9.457 7.293-1.063 6.566 5.731 11.348 3.283 18.358 5.383-6.17 11.833-4.706 17.676-3.567 3.612.704 3.911-.323 3.858-3.08-.039-2.1.455-4.328-.091-6.275-1.61-5.757 1.915-9.088 6.014-10.968 1.379-.634 4.79-.045 7.277-.158.522-.024 1.051 0 1.573 0 9.757-.03 9.925-.032 10.061 9.604.049 3.604 1.526 4.973 4.66 4.12 5.248-1.428 10.159 3.09 15.566.57.829-.387 3.782 1.571 3.635 4.309-.121 2.261-.024 4.533-.024 8.069 4.347-4.111 10.404-5.151 9.571-12.364-.419-3.61 2.754-2.287 4.527-2.38 2.657-.139 5.241.444 4.956-3.865-.162-2.441 1.997-3.889 4.566-3.924 4.198-.058 8.399-.045 12.599.028.811.015 1.894.197 2.376.732 3.996 4.443 7.212 5.285 11.197 1.659 2.512-2.285 4.991-2.52 7.915-2.461 3.15.063 6.303.094 9.451-.003 4.326-.134 8.122.152 8.289 5.959.082 2.826 2.612 1.82 4.069 1.741 3.29-.18 5.375.312 4.997 4.407-.499 5.41 4.802 6.276 7.725 8.921 1.112 1.008 1.664-.544 1.716-1.613.075-1.572.01-3.15.065-4.724.095-2.677 2.282-5.196 4.041-4.484 5.502 2.22 10.404-2.069 15.714-.579 3.326.934 3.946-1.19 3.969-4.174.07-9.604.201-9.229 10.04-9.794 2.692-.155 6.205 4.531 8.061-1.163 1.882 1.621 1.98 4.599 5.157 4.119 2.061-.311 1.872 1.589 1.878 2.964.022 4.025.08 8.051-.012 12.074-.063 2.639.221 3.417 3.494 2.773 5.886-1.156 12.274-2.642 17.139 3.783 2.083-10.132 1.845-20.619 11.964-26.242.341-.682.717-.702 1.129-.062 1.991 1.361 3.354 3.452 5.746 4.418 2.863 1.156 1.513 3.925 1.681 6.012.206 2.555.261 4.049 3.894 3.51 3.754-.558 7.189 1.038 6.485 6.12-.072.513-.054 1.049-.002 1.567.358 3.575-1.671 9.146.915 10.316 4.073 1.843 9.475 1.494 14.193-.08 1.389-.464 2.905-.958 4.045-.339 4.369 2.381 5.059-.083 5.139-3.593.019-.872.024-1.747-.002-2.617-.045-1.571.308-2.781 2.236-2.754 2.235.033 1.813 1.721 1.811 3.013-.021 7.674-.099 15.346-.156 23.019-4.014.662-9.519-2.407-11.117 4.474-.098.427-1.51.787-2.302.769-2.44-.057-3.43.983-3.452 3.432-.021 2.219-1.611 3.733-3.596 3.882-2.23.168-.866-2.137-1.467-3.21-2.098-3.738-6.001-2.598-8.922-2.746-4.492-.229-7.601-.611-6.723-6.201.115-.723-.436-2.195-.829-2.251-4.334-.611-8.904-2.01-12.99-1.164-3.52.729-5.034 4.711-4.29 8.792.659 3.619-.41 5.957-4.603 4.735-2.869-.835-6.516 2.284-8.205-.315-1.394-2.149-2.096-5.372-2.111-8.451-.019-3.53-4.737-3.27-5.802-6.189-.427-.559-.858-.534-1.295-.015-2.208 2.596-6.858 3.292-6.245 8.106.095.734-.544 1.285-1.332 1.319-5.424.233-5.438 4.049-4.997 7.857.509 4.413-1.728 6.04-5.44 4.946-3.549-1.044-9.5 1.515-9.75-5.528-.009-.24-.456-.661-.71-.669-7.136-.23-5.379-5.86-6.034-9.968-1.153-7.238-2.204-14.493-3.349-21.733-.171-1.079.25-2.813-1.615-2.719-1.693.084-1.392 1.724-1.615 2.854-2.438 12.344-4.846 24.689-6.292 37.203-.624 5.405-4.876 7.666-9.917 5.659-1.793-.714-1.606-2.114-1.623-3.45-.054-4.377.013-8.755-.041-13.131-.017-1.336.486-3.464-1.083-3.697-4.267-.635-8.686-2.129-12.663-2.091-7.563.071-8.206 1.733-8.206 9.207 0 1.576-.07 3.154.002 4.727.106 2.297-.696 3.091-3.109 2.599-3.577-.733-7.257-.425-10.897-1.34-5.89-1.48-10.719.542-14.101 5.29.747-13.286-5.818-25.559-3.569-38.718.339-1.974-.505-2.974-2.784-3.476-3.43-.756-5.991-3.329-10.135-3.423-5.048-.112-8.569 2.339-12.571 4.174-1.749.801-1.239 2.734-1.246 4.25-.039 7.688-.019 15.375-.019 23.256-4.58-3.104-10.715-2.565-14.486.919-.997.924-2.262 1.809-3.782 1.129-1.427-.635-1.104-2.059-1.121-3.215-.051-4.095.989-8.664-5.159-9.554-1.124-.162-1.016-1.656-1.165-2.692-.158-1.095.443-2.75-1.408-2.842-1.334-.065-1.675 1.332-1.729 2.265-.286 4.832-4.854 5.043-7.579 5.873-3.665 1.117-7.678 1.421-12.024.92-6.325-.729-13.212-1.602-19.828 1.431-3.563 1.633-8.312-.4-12.25 2.126-.961.615-1.716-1.363-1.677-2.642.108-3.395-1.925-3.945-4.759-3.987-5.185-.076-10.256-.426-15.468-1.504-3.996-.825-8.985 1.361-13.656 1.487-1.588.043-1.551 1.693-1.553 2.896-.002 2.161-.907 3.141-3.161 3.161-2.091.019-2.441-1.106-3.492-2.722-2.274-3.5-3.04-6.766-2.688-10.895.233-2.746-5.481-4.454-9.228-2.546-2.933 1.494-5.26 1.653-8.315.191-5.711-2.736-9.044-.396-9.275 5.892-.255 6.851-4.544 12.946-3.506 20.188.277 1.929-3.384 3.083-5.348 3.197-2.126.123-1.244-2.441-1.291-3.821-.359-10.534-.423-11.425-11.013-10.264-8.757.963-16.655-3.493-25.254-2.16-2.693.418-5.302.182-6.135 3.513-.041.168-.103.48-.153.48-6.254-.033-6.517 7.113-11.493 9.838-.045-8.262-6.119-7.047-10.713-7.177-4.453-.126-7.686-.396-6.811-6.07.112-.73-.306-2.077-.821-2.286-4.201-1.694-8.886.4-13.26-1.737-1.014-.493-4.03 1.787-5.271 3.434-1.486 1.972-.689 4.764-.544 7.156.188 3.088-.959 4.085-3.889 3.578-1.199-.207-2.588-.511-3.646-.115-6.667 2.5-7.548-2.747-8.176-6.729-.488-3.086-1.773-4.511-4.181-5.909-4.168-2.42-8.576-.86-9.771 3.867-.4 1.585-.396 3.191-2.536 3.326-5.024.317-5.945 3.694-5.472 7.745.516 4.407-1.576 5.628-5.469 5.109-2.755-.368-5.505-.762-8.261-1.11-1.184-.151-2.102-.707-2.05-1.93.108-2.674-1.142-3.706-3.715-3.846-3.144-.17-3.354-2.836-3.406-5.017-.201-8.276-2.999-16.122-3.81-24.288-.147-1.487.08-3.627-1.951-3.798-2.375-.201-1.722 2.118-2.046 3.482-2.949 12.418-5.084 24.994-6.82 37.626-.9 6.542-5.664 3.435-8.878 3.925-3.895.597-3.397-2.462-3.412-4.867-.026-4.026.015-8.053-.026-12.08-.013-1.189.336-2.779-.92-3.33-1.204-.529-2.715-.397-4.096-.484-5.828-.369-11.686-3.695-17.479.177-2.07 1.384-1.169 3.487-1.194 5.263-.123 9.456-.071 9.428-9.577 9.029-3.834-.16-7.485-1.782-11.406-1.253-3.834.517-7.097 1.909-9.788 6.39 0-3.875-.111-6.74.033-9.595.136-2.686-.3-5.08-1.849-7.383-4.056-6.029-1.738-12.877-2.169-19.359-.31-4.668-3.762-9.073-8.325-9.735-6.727-.979-13.009.492-18.928 3.654-1.756.939-1.129 2.787-1.139 4.27-.056 7.991-.026 15.981-.026 24.513-4.92-4.297-11.499-4.079-15.684-.127-1.183 1.117-2.646 1.837-4.316 1.174-1.746-.69-1.315-2.372-1.218-3.644.345-4.469.249-8.496-5.678-8.979-2.853-.232.151-5.156-3.333-4.53-2.195.396-.758 4.211-3.32 4.827-6.349 1.525-11.997 4.323-19.432 2.869-6.43-1.257-13.975-1.418-20.929 1.292-4.28 1.668-9.359-.089-13.822 2.395-1.245.693-1.708-1.722-1.737-3.123-.058-2.754-1.656-3.578-4.139-3.491-2.098.073-4.214-.143-6.299.036-5.262.45-9.271.021-8.831-7.113.208-3.371-4.687-5.191-8.738-3.122-3.328 1.699-5.9 1.61-9.245-.025-5.089-2.483-8.533.181-8.733 6.046-.051 1.486.515 3.158-.998 4.437-2.162-.718-1.288-2.594-1.359-3.93-.345-6.516-4-9.168-9.848-6.462-3.333 1.541-5.941 1.549-9.307-.015-5.719-2.658-9.719-.209-9.876 5.896-.093 3.642-1.589 4.394-4.777 4.314-3.912-.099-8.957-1.612-8.625 5.386.041.881-1.01 1.576-1.942 1.242-8.88-3.188-18.132-3.58-27.424-4.154-4.427-.273-8.51 2.597-13.145.449-4.249-1.969-10.324-.988-11.04-7.863-.082-.782-.688-1.158-1.494-1.112-.934.053-1.225.846-1.131 1.464.515 3.383-1.543 4.727-4.265 5.487-3.364.941-1.729 3.681-2.14 5.68-.396 1.923 1.062 4.607-1.306 5.648-2.427 1.064-3.388-1.096-4.644-2.969-1.547-2.31-10.574-1.175-13.775 1.917.002-8.367.002-16.131.002-23.894zM500.925 111.382c1.455-4.625.466-9.37.646-14.057.141-3.677.33-7.188 3.921-9.391 1.513-.927.834-2.521.888-3.825.137-3.317-.237-6.696.261-9.948.823-5.369 6.636-7.653 11.24-4.608 4.957 3.281 9.969 3.188 14.751.005 3.25-2.164 6.184-.678 8.894.425 2.297.936 1.276 4.935 1.762 5.55 2.608 3.31-2.705 9.604 4.451 11.073 1.608.33.451 3.843.688 5.877.185 1.591-.063 3.572 2.574 1.943.558-.345 1.355-.576 1.986-.484 5.825.864 9.022-.893 7.829-7.438-.308-1.689.611-2.354 2.386-2.55 5.75-.64 11.782 1.729 17.318-1.925 1.375-.908 2.517 1.679 4.339 2.143 6.586 1.681 13.194.766 19.76.739 4.458-.019 6.369 1.217 6.246 5.842-.118 4.389 3.712 6.377 7.147 3.658 2.917-2.311 5.706-2.25 9.119-1.768 3.063.434 7.125 2.291 8.813-2.734.147-.435 1.493-.612 2.295-.659 7.31-.418 14.668.733 21.958-.73 1.275-.255 2.563.202 2.131 1.994-.258 1.074-.612 2.146.793 2.536 1.195.333 1.339-.763 1.615-1.559.563-1.627 1.97-1.194 3.098-1.173 8.097.15 15.583-2.229 22.996-5.178 1.669-.663 1.308-1.679 1.575-2.786.504-2.081 1.167-4.123 1.73-6.067 1.651.191 1.353 1.179 1.245 1.615-1.39 5.621 2.333 7.967 6.564 8.788 3.091.602 3.048 2.01 3.002 4.181-.047 2.273-.383 4.634.101 6.801.479 2.146-2.303 5.81 2.079 6.284 3.607.389 8.306 1.687 8.396-4.685.005-.346-.009-.771.175-1.022 1.43-1.954 15.221-.51 15.844 1.809.672 2.501 3.031 2.274 5.079 3.526V90.179c-.001-8.4.166-16.805-.073-25.198-.12-4.227.242-7.29 5.663-6.256.971.186 2.52.059 2.41-1.285-.409-5.014 3.091-3.911 5.865-3.942 3.674-.041 7.35.039 11.024-.026 2.388-.043 4.58-.231 4.368 3.328-.123 2.063 1.81 1.916 3.11 1.723 4.004-.597 4.578 1.433 4.446 4.831-.236 6.115.152 12.258-.13 18.369-.318 6.917.362 13.346 5.354 18.754.742.802.391 2.688.403 4.075.045 5.25.026 10.5.044 15.751.006 1.715.484 3.217 2.466 3.414 2.178.216 2.344-1.662 1.915-2.825-.707-1.915 5.019-3.257 1.05-4.748 7.903-5.831 16.853-2.129 25.688-1.461l-3.317 25.775c-.021.172-.015.358-.081.514-1.441 3.451-7.791 2.52-7.063 7.911-3.922.545-7.734 1.949-11.795 1.439-2.263-.283-2.063-1.953-2.116-3.507-.141-4.164 1.324-9.258-5.537-9.507-.688-4.649-4.755-6.87-7.314-10.174-.214-.77-.399-.443-.582.014-3.591 3.391-7.007 6.785-7.796 12.119-.194 1.309.169 4.431-2.102 4.106-3.511-.503-7.102.397-10.388-.568-1.634-.482-.725-3.149-.753-4.818-.121-7.034-2.101-8.838-8.875-7.998-1.38.171-2.815.192-4.192.024-4.033-.493-6.471.559-5.837 5.264.375 2.785-1.194 3.603-3.776 3.6-2.066-.001-4.174.869-6.191.661-4.328-.448-6.229 1.427-6.006 6.005-1.055-.557-2.093-.796-2.15-1.18-.819-5.532-7.029-6.243-9.259-10.481-.787-1.494-2.322-1.542-3.691-1.378-4.992.599-9.929-.937-15.114 2.084-2.631 1.533-7.971-.361-12.106-.334-9.143.056-8.159-1.006-8.26 8.024-.007.699.123 1.424-.021 2.093-.328 1.516.923 4.479-1.385 4.161-2.005-.276-6.152-.831-5.465-4.258 1.529-7.628-3.867-13.839-3.547-21.231.183-4.229-4.032-6.081-8.64-3.892-3.164 1.502-5.597 1.517-8.8.002-5.718-2.705-9.442-.013-8.868 6.21.375 4.052-3.735 5.84-4.245 9.481-.08.568-4.899 1.642-5.114-1.716-.266-4.167-2.645-3.622-5.493-4.281-8.607-1.99-16.991 1.164-25.486.468-2.887-.237-4.691.648-4.74 3.99-.036 2.438-.84 3.456-3.572 1.81-2.675-1.61-6.833.017-8.797-1.038-5.907-3.173-11.956-1.117-17.805-2.146-4.175-.734-8.148 2.389-12.59.328-4.154-1.927-9.683-1.58-10.866-7.666-.131-.676-.513-1.354-1.369-1.349-1.175.009-1.495.942-1.387 1.793.402 3.162-1.592 4.35-4.069 5.134-4.105 1.299-1.669 4.696-2.303 7.098-.411 1.552.779 3.893-1.613 4.41-1.78.384-2.973-.845-4.083-2.503-1.794-2.675-9.982-2.206-13.734 1.035 0-7.801.029-15.008-.018-22.215-.013-2.238.482-4.583-.987-6.614zM259.551 120.457c2.255-16.16 3.837-32.419 7.708-48.332 1.308-5.377 1.917-10.925 3.305-16.415 2.062 3.972 1.745 8.371 2.53 12.527 2.095 11.093 4.226 22.185 4.724 33.509.156 3.548 2.438 4.801 5.668 4.594 2.774-.178 4.293.621 4.083 3.773-.283 4.261.174 6.407 6.111 5.583 4.369-.606 9.508.629 14.326.928 3.337.206 4.302-1.007 4.037-4.167-.247-2.951.19-5.962-.104-8.902-.502-5.029 2.969-5.937 6.412-5.729 2.166.131 4.022-.032 3.6-1.988-1.494-6.926 4.363-8.56 7.884-11.909.395-.675.756-.657 1.084.054.998.956 1.834 2.311 3.025 2.799 4.275 1.751 4.939 4.834 5.631 9.199.708 4.473 2.512 8.96 2.593 15.064 5.472-7.201 11.842-5.832 17.765-4.643 3.161.636 3.689.018 3.594-2.729-.091-2.619-.107-5.248.004-7.864.141-3.286-1.568-7.582 4.37-7.892.779-.04 1.448-2.183 2.378-3.697 1.139 2.1 1.992 3.07 4.946 2.001 3.402-1.231 7.588-.316 11.434-.292 2.481.017 1.954 1.917 2.037 3.399.559 9.98.555 10.056 10.354 10.313 3.09.082 5.836 3.009 9.423.546 1.025-.703 3.606 1.628 3.604 4.17-.002 2.263 0 4.527 0 6.859 6.051-1.574 9.181-4.781 9.47-10.37.166-3.204 1.939-3.154 4.159-3.099 2.739.069 5.515.717 5.41-3.903-.056-2.488 2.493-3.858 5.252-3.842 5.069.028 10.14.006 15.209.006.175 0 .412-.069.516.018 9.96 8.248 21.075.084 31.576 2.083 3.961.754 5.419 1.404 5.044 5.424-.323 3.468-.072 6.987-.075 10.484-4.834-1.33-7.967 2.829-12.105 3.807-1.652.39-1.363 2.255-1.375 3.622-.038 4.199-.132 8.403.015 12.599.137 3.918-.675 7.431-2.501 10.979-2.234 4.341-.28 9.294-1.223 14.479-3.224-5.625-8.272-6.485-13.573-5.317-3.641.803-7.329.542-10.884 1.306-3.166.684-3.642-.728-3.493-3.255.072-1.221.009-2.448.01-3.673.006-8.509-4.257-11.385-12.206-8.269-.633.248-1.366.259-2.059.334-7.693.84-7.693.838-7.688 8.505.002 1.924.006 3.849-.001 5.774-.029 6.949-.068 6.806-7.058 6.695-3.016-.048-3.825-1.35-4.234-3.968-1.918-12.244-3.979-24.469-5.985-36.7-.142-.861-.172-1.754-.425-2.58-.333-1.089-.178-2.764-1.859-2.732-1.788.03-1.447 1.703-1.549 2.807-.768 8.35-3.325 16.427-3.627 24.867-.104 2.889.11 6.742-4.788 6.515-.559-.027-1.666.644-1.648.943.294 5.1-3.66 4.448-6.701 5.098-7.692 1.645-8.232 1.231-8.462-6.67-.041-1.385.345-3.704-.767-3.896-6.585-1.135-5.917-9.678-11.87-11.252-.428-.636-.854-.652-1.279.005-5 2.999-6.618 7.915-7.348 13.249-.275 2.005-.915 2.877-3.029 2.161-.976-.331-2.049-.464-3.085-.514-7.015-.324-7.016-.31-7.294-7.306-.171-4.304-3.384-6.773-7.436-5.836-1.173.271-2.442.311-3.648.214-4.445-.357-8.143-.085-7.169 6.075.384 2.428-1.535 2.684-3.442 2.781-2.771.142-5.532.482-8.302.661-1.942.124-3.292.833-3.858 2.86-.271.969.718 2.837-1.382 2.703-1.471-.096-3.008-1.233-3.107-2.485-.288-3.615-1.906-5.311-5.521-5.102-.154.009-.421-.091-.461-.202-3.222-8.894-10.676-4.249-16.13-4.464-4.567-.181-5.838-1.635-5.906-5.53-.012-.699.008-1.399-.009-2.099-.148-6.12-3.583-8.505-9.236-6.081-1.797.771-3.375 1.732-5.389 1.332zM815.175 115.25c2.623.009 5.172.488 8.521 1.636 0-5.697.762-11.123-.192-16.227-1.201-6.422 3.066-7.825 7.139-9.11 1.454-.459 3.697-2.148 5.603-.271.729-.567 1.416-.593 2.046.152 2.033 3.862 5.6 1.753 8.385 1.878 7.441.337 7.451.115 7.451 7.52-.001 6.464.175 12.934-.071 19.388-.126 3.315 1.12 3.926 4.182 4.129 4.353.288 8.867-1.598 13.161 1.114 1.047.663 1.339-1.604 1.489-2.652 1.851-12.924 3.155-25.949 5.595-38.76 1.795-9.426 3.67-18.868 6.567-28.359.892 6.242 1.184 12.647 2.818 18.69 2.334 8.632 2.614 17.446 3.576 26.195.479 4.36 2.382 6.162 6.663 5.831 1.28-.1 2.969-.494 3.199 1.655-5.314-1.08-9.71 1.468-14.235 3.563-1.48.685-1.248 1.97-1.265 3.128a430.187 430.187 0 0 0-.026 11.529c.048 4.159.048 8.182-2.242 12.024-2.657 4.459-.464 9.609-1.418 14.638-3.616-4.676-8.548-5.898-13.907-4.802-2.929.598-5.925.532-8.75 1.205-5.2 1.236-5.588-1.277-5.498-5.434.208-9.475.108-10.062-7.973-10.951-4.199-.464-8.71 1.411-12.996 2.55-1.264.337-.86 2.14-.873 3.319-.046 4.018-.079 8.036-.003 12.052.049 2.636.049 5.07-3.687 4.638-3.131-.361-7.333 1.604-7.808-4.137-.373-4.513-1.555-8.964-1.822-13.476-.457-7.691-3.617-14.917-3.629-22.655z"/><path fill="#6A4837" d="M772.419 127.146c.151-1.094-.911-2.432.557-3.22.261-.141.996.244 1.29.581 1.547 1.779-1.177 1.576-1.265 2.625l-.291.028-.291-.014z"/><path fill="#524136" d="M361.3 128.04c.021-.173-.007-.374.07-.516.583-1.069-.054-3.688 1.735-3.01 2.554.968-1.688 2.074-.526 3.521-.426 0-.852.003-1.279.005z"/><path fill="#524137" d="M1743.876 128.025c1.157-1.431-3.095-2.688-.495-3.485 1.979-.608 1.129 2.287 1.788 3.5l-1.293-.015z"/><path fill="#575757" d="M1.181 612.865v-3.101c1.694.984.489 2.195 0 3.101z"/><path fill="#E0936D" d="M330.918 83.982c-.362-.018-.724-.035-1.084-.054-.294-1.856 1.157-4.028-1.002-5.549-.241-1.075.462-1.787.99-2.565 1.789 2.531.647 5.457 1.096 8.168z"/><path fill="#E8B397" d="M1775.595 83.894l-1.129.062c.177-2.272-.404-4.649 1.129-6.766v6.704z"/><path fill="#DC895E" d="M942.371 78.648c-.595-.121-1.191-.244-1.786-.367.788-1.291 1.733-2.647 3.248-2.781.77-.068.647 1.302.584 2.112-.414.876-1.439.542-2.046 1.036z"/><path fill="#E9B99F" d="M942.371 78.648l2.046-1.036.089 6.347-1.099-.041c-.159-1.793.726-3.792-1.036-5.27z"/><path fill="#EABAA0" d="M838.292 91.43l-2.046-.152-.236-4.69c.212-.041.424-.084.636-.128.549 1.656 1.098 3.312 1.646 4.97z"/><path fill="#D46B33" d="M1516.963 75.069c.103 3.419-1.39 3.551-3.739 3.444 1.287-1.184 2.191-2.017 3.739-3.444z"/><path fill="#F2D4C5" d="M985.419 86.144l-2.04-1.106c.351-1.057.595-2.181 2.04-2.997v4.103z"/><path fill="#D77846" d="M329.822 75.814l-.99 2.565-1.799-.062c.645-1.152 1.393-2.188 2.789-2.503z"/><path fill="#DE8E66" d="M1410.173 91.136l-1.231.216v-4.761c1.592 1.44.607 3.201 1.231 4.545z"/></g></svg>