<svg id="Lager_1" xmlns="http://www.w3.org/2000/svg" viewBox="0 0 200 200"><style>.st0{fill:#63c2d0}.st1{font-family:&apos;Tahoma-Bold&apos;}.st2{font-size:25.9861px}.st3{letter-spacing:-1.6}.st4,.st5,.st6,.st7{fill-rule:evenodd;clip-rule:evenodd;fill:#6f6f6e}.st5,.st6,.st7{fill:#868686}.st6,.st7{fill:#5cacc6}.st7{fill:#63c2d0}</style><text transform="matrix(1.2274 0 0 1 35.865 175.118)"><tspan x="0" y="0" class="st0 st1 st2 st3">s</tspan><tspan x="11.6" y="0" class="st0 st1 st2 st3">hiGOT</tspan><tspan x="82.2" y="0" class="st0 st1 st2">O</tspan></text><path class="st4" d="M61.7 68.7l17.2-3.3 1.9-.3h1.8l1.7.1 1.5.3 1.4.5 1.3.7 1.2.8 1.1.9 1.1.9 1 1.1 1 1 .9 1.1 1 1.2 1 1 .9 1.1 1 1 1.1.9 1.1.9 1.2.7 1.2.6 1.4.4 1.5.2 1.6.1 1.7-.2 1.9-.4 2-.6 2.3-1 2.4-1.2 1.3-.7 1.2-.6 1.3-.5 1.4-.4 1.3-.4 1.3-.4 1.4-.2 1.4-.2 1.3-.2 1.4-.1h2.7l1.4.1 1.3.2 1.3.2 1.4.3 1.3.3 1.2.4 1.3.4 1.3.5 1.2.6 1.2.6 1.1.6 1.2.8 1 .7 1.1.8 1 .9 1 .9.9 1 .9 1 .8 1.1.8 1.1.7 1.2.7 1.1.5 1.2.5 1.2.5 1.3 3 9.9-.6-1.5-.6-1.5-.7-1.5-.8-1.5-.9-1.4-1-1.4-1-1.4-1.1-1.2-1.2-1.3-1.2-1.1-1.3-1.1-1.3-1-1.3-1-1.5-.9-1.4-.8-1.5-.8-1.5-.6-1.6-.7-1.6-.5-1.6-.5-1.6-.4-1.6-.3-1.7-.3-1.7-.2-1.7-.1-1.7-.1-1.7.1-1.7.1-1.7.2-1.7.2-1.7.3-1.7.5-1.6.5-1.7.5-1.6.7-1.6.7-1.6.8-3 1.6-2.8 1.1-2.6.9-2.3.5-2.2.2-2-.1-1.9-.3-1.7-.5-1.5-.7-1.5-.9-1.4-1.1-1.3-1.1-1.3-1.3-1.2-1.3-1.2-1.4-1.1-1.4-1.2-1.4-1.3-1.3-1.2-1.3-1.4-1.2-1.4-1.1-1.5-1-1.6-.8-1.8-.6-1.9-.4-2-.2h-2.3z"/><path class="st4" d="M61.7 68.7l17.2-3.3 1.9-.3h1.8l1.7.1 1.5.3 1.4.5 1.3.7 1.2.8 1.1.9 1.1.9 1 1.1 1 1 .9 1.1 1 1.2 1 1 .9 1.1 1 1 1.1.9 1.1.9 1.2.7 1.2.6 1.4.4 1.5.2 1.6.1 1.7-.2 1.9-.4 2-.6 2.3-1 2.4-1.2 1.3-.7 1.2-.6 1.3-.5 1.4-.4 1.3-.4 1.3-.4 1.4-.2 1.4-.2 1.3-.2 1.4-.1h2.7l1.4.1 1.3.2 1.3.2 1.4.3 1.3.3 1.2.4 1.3.4 1.3.5 1.2.6 1.2.6 1.1.6 1.2.8 1 .7 1.1.8 1 .9 1 .9.9 1 .9 1 .8 1.1.8 1.1.7 1.2.7 1.1.5 1.2.5 1.2.5 1.3 3 9.9-.6-1.5-.6-1.5-.7-1.5-.8-1.5-.9-1.4-1-1.4-1-1.4-1.1-1.2-1.2-1.3-1.2-1.1-1.3-1.1-1.3-1-1.3-1-1.5-.9-1.4-.8-1.5-.8-1.5-.6-1.6-.7-1.6-.5-1.6-.5-1.6-.4-1.6-.3-1.7-.3-1.7-.2-1.7-.1-1.7-.1-1.7.1-1.7.1-1.7.2-1.7.2-1.7.3-1.7.5-1.6.5-1.7.5-1.6.7-1.6.7-1.6.8-3 1.6-2.8 1.1-2.6.9-2.3.5-2.2.2-2-.1-1.9-.3-1.7-.5-1.5-.7-1.5-.9-1.4-1.1-1.3-1.1-1.3-1.3-1.2-1.3-1.2-1.4-1.1-1.4-1.2-1.4-1.3-1.3-1.2-1.3-1.4-1.2-1.4-1.1-1.5-1-1.6-.8-1.8-.6-1.9-.4-2-.2h-2.3z"/><path class="st5" d="M144.2 111.8l.7-11.9-.1.5-.1.5-.1.6-.1.5-.1.5-.2.5-.2.5-.3.5-.2.5-.3.5-.3.4-.4.5-.3.4-.4.4-.4.5-.5.3-.4.4-.5.4-.5.3-.6.3-.5.3-.6.2-.5.3-.6.2-.6.1-.6.2-.6.1-.6.1h-.5l-.6.1H132l-.6-.1h-.6l-.6-.1-.5-.1-.6-.2-.6-.1-.5-.2-.6-.3-.5-.2-.5-.3-.5-.2-.5-.4-.5-.3-.4-.3-.5-.4-.4-.4-.4-.4-.4-.5-.4-.5-.3-.4-.3-.5-.3-.6-.2-.5-.2-.5-.2-.5-.2-.6-.1-.5-.1-.5-.1-.6v-2.1l.1-.6.1-.5.1-.5.2-.5.2-.6.2-.5.2-.5.3-.4.3-.5-6.4 10.3-.4.6-.3.6-.3.7-.3.6-.2.6-.2.7-.2.6-.1.7-.1.7v.6l-.1.7.1.7v.7l.1.6.1.7.2.7.2.6.2.7.3.7.3.6.3.6.4.7.5.6.4.6.5.5.5.5.5.5.6.5.5.5.6.4.6.4.7.3.6.4.7.3.7.2.7.3.7.2.7.2.7.1.7.1.7.1.8.1h1.4l.8-.1.7-.1.8-.1.7-.1.7-.2.8-.2.7-.3.7-.3.7-.3.7-.3.6-.4.7-.4.6-.5.5-.4.6-.5.5-.5.5-.5.5-.6.4-.5.4-.6.3-.6.4-.6.3-.6.2-.7.2-.6.2-.6.2-.7.1-.7.1-.6z"/><path class="st5" d="M144.2 111.8l.7-11.9-.1.5-.1.5-.1.6-.1.5-.1.5-.2.5-.2.5-.3.5-.2.5-.3.5-.3.4-.4.5-.3.4-.4.4-.4.5-.5.3-.4.4-.5.4-.5.3-.6.3-.5.3-.6.2-.5.3-.6.2-.6.1-.6.2-.6.1-.6.1h-.5l-.6.1H132l-.6-.1h-.6l-.6-.1-.5-.1-.6-.2-.6-.1-.5-.2-.6-.3-.5-.2-.5-.3-.5-.2-.5-.4-.5-.3-.4-.3-.5-.4-.4-.4-.4-.4-.4-.5-.4-.5-.3-.4-.3-.5-.3-.6-.2-.5-.2-.5-.2-.5-.2-.6-.1-.5-.1-.5-.1-.6v-2.1l.1-.6.1-.5.1-.5.2-.5.2-.6.2-.5.2-.5.3-.4.3-.5-6.4 10.3-.4.6-.3.6-.3.7-.3.6-.2.6-.2.7-.2.6-.1.7-.1.7v.6l-.1.7.1.7v.7l.1.6.1.7.2.7.2.6.2.7.3.7.3.6.3.6.4.7.5.6.4.6.5.5.5.5.5.5.6.5.5.5.6.4.6.4.7.3.6.4.7.3.7.2.7.3.7.2.7.2.7.1.7.1.7.1.8.1h1.4l.8-.1.7-.1.8-.1.7-.1.7-.2.8-.2.7-.3.7-.3.7-.3.7-.3.6-.4.7-.4.6-.5.5-.4.6-.5.5-.5.5-.5.5-.6.4-.5.4-.6.3-.6.4-.6.3-.6.2-.7.2-.6.2-.6.2-.7.1-.7.1-.6z"/><path class="st6" d="M128.9 78.8c12 0 23.6 5.6 30.2 15.6 10 15.3 4.6 35.1-12.1 44.2-5.7 3.1-12 4.6-18.2 4.6V125c2.7 0 5.4-.6 7.9-2 7.3-4 9.6-12.6 5.2-19.2-2.9-4.4-7.9-6.8-13.1-6.8V78.8zm-18.2 4.6c5.7-3.1 12-4.6 18.2-4.6V97c-2.7 0-5.4.6-7.9 2-7.3 4-9.6 12.6-5.2 19.2 2.9 4.4 7.9 6.8 13.1 6.8v18.2c-12 0-23.6-5.6-30.2-15.6-18-27.4-38.9 11.7-58.7-18.5-8.1-12.3-3.7-28.3 9.7-35.7 37.6-20.6 27.3 28.5 61 10z"/><path class="st6" d="M128.9 78.8c12 0 23.6 5.6 30.2 15.6 10 15.3 4.6 35.1-12.1 44.2-5.7 3.1-12 4.6-18.2 4.6V125c2.7 0 5.4-.6 7.9-2 7.3-4 9.6-12.6 5.2-19.2-2.9-4.4-7.9-6.8-13.1-6.8V78.8zm-18.2 4.6c5.7-3.1 12-4.6 18.2-4.6V97c-2.7 0-5.4.6-7.9 2-7.3 4-9.6 12.6-5.2 19.2 2.9 4.4 7.9 6.8 13.1 6.8v18.2c-12 0-23.6-5.6-30.2-15.6-18-27.4-38.9 11.7-58.7-18.5-8.1-12.3-3.7-28.3 9.7-35.7 37.6-20.6 27.3 28.5 61 10z"/><path class="st4" d="M112.6 17.4c12.6-5.3 27.6-.3 33.4 11.3 5.8 11.6.3 25.2-12.3 30.6-12.7 5.3-27.7.2-33.5-11.3-5.8-11.6-.3-25.3 12.4-30.6z"/><path class="st4" d="M112.6 17.4c12.6-5.3 27.6-.3 33.4 11.3 5.8 11.6.3 25.2-12.3 30.6-12.7 5.3-27.7.2-33.5-11.3-5.8-11.6-.3-25.3 12.4-30.6z"/><path class="st7" d="M107.5 18.8c12.6-5.3 27.6-.3 33.4 11.3 5.8 11.6.3 25.2-12.3 30.6-12.6 5.2-27.6.2-33.4-11.4-5.9-11.5-.3-25.2 12.3-30.5z"/><path class="st7" d="M107.5 18.8c12.6-5.3 27.6-.3 33.4 11.3 5.8 11.6.3 25.2-12.3 30.6-12.6 5.2-27.6.2-33.4-11.4-5.9-11.5-.3-25.2 12.3-30.5z"/></svg>